# 
# Wavefront OBJ file
# Converted by the DEEP Exploration 3.5.10.1242
# Right Hemisphere, LTD
# http://www.righthemisphere.com/
# 
# object Object #0
g Object__0
v 2.4785 -0.0496619 -1.9985
v 2.48 -0.0496619 -1.9985
v 2.48 -0.0496619 -2
v 2.4785 -0.0496619 -2
v -2.48 -0.0496619 -1.9985
v -2.4785 -0.0496619 -1.9985
v -2.4785 -0.0496619 -2
v -2.48 -0.0496619 -2
v 2.4785 -0.0496617 1.9985
v 2.48 -0.0496617 1.9985
v 2.48 -0.0496617 2
v 2.4785 -0.0496617 2
v -2.48 -0.0496617 1.9985
v -2.4785 -0.0496617 1.9985
v -2.4785 -0.0496617 2
v -2.48 -0.0496617 2
v 0.0149999 0.0496618 -0.135
v -0.12 0.0496618 -0.06
v -0.235 0.0496618 -0.025
v -0.19 0.0496618 -0.125
v -0.17 0.0496618 -0.235
v 0.0199999 0.0496618 -0.22
v 0.0149999 0.0296618 -0.135
v -0.12 0.0296618 -0.06
v -0.235 0.0296618 -0.025
v -0.19 0.0296618 -0.125
v -0.17 0.0296618 -0.235
v 0.0199999 0.0296618 -0.22
# 28 verticies
vn 0 1 0
vn 0.998274 0 0.058722
vn 0.485643 8.14122e-008 0.874157
vn 0.422918 1.14241e-007 0.906168
vn 0.357767 1.14241e-007 0.933811
vn 0.485643 0 0.874157
vn 0.291162 8.90972e-008 0.956674
vn 0.291162 0 0.956674
vn -0.911922 0 -0.410365
vn -0.942075 0 -0.335402
vn -0.966216 0 -0.257733
vn -0.98387 0 -0.178885
vn 0.0787025 0 -0.996898
vn 2.08313e-008 1 -2.24337e-008
vn 1.57536e-008 1 -3.86306e-008
vn 2.43974e-008 1 -2.62741e-008
vn 1.0676e-008 1 -5.48276e-008
vn 5.27164e-009 1 -6.67741e-008
vn 1.66728e-008 1 -3.07371e-008
vn 5.71094e-009 -1 5.18378e-008
vn 3.9275e-009 -1 4.78954e-008
vn 5.91205e-009 -1 4.83518e-008
vn 7.89661e-009 -1 4.88081e-008
vn 1.3137e-008 -1 4.31646e-008
vn 2.40012e-009 -1 4.92024e-008
# 25 normals
f  2//1 4//1 1//1
f  3//1 4//1 2//1
f  8//1 5//1 6//1
f  7//1 8//1 6//1
f  10//1 9//1 12//1
f  11//1 10//1 12//1
f  14//1 13//1 16//1
f  14//1 16//1 15//1
f  28//2 17//2 23//2
f  22//2 17//2 28//2
f  23//3 18//4 24//5
f  17//6 18//4 23//3
f  24//5 19//7 25//8
f  18//4 19//7 24//5
f  19//9 26//10 25//9
f  19//9 20//11 26//10
f  20//11 27//12 26//10
f  20//11 21//12 27//12
f  27//13 22//13 28//13
f  21//13 22//13 27//13
f  18//14 20//15 19//16
f  22//17 21//18 20//15
f  17//19 20//15 18//14
f  17//19 22//17 20//15
f  27//20 28//21 26//22
f  26//22 24//23 25//24
f  28//21 23//25 26//22
f  26//22 23//25 24//23
