# 
# Wavefront OBJ file
# Converted by the DEEP Exploration 3.5.10.1242
# Right Hemisphere, LTD
# http://www.righthemisphere.com/
# 
# object Object #0
g Object__0
v 2.4785 -0.0496619 -1.9985
v 2.48 -0.0496619 -1.9985
v 2.48 -0.0496619 -2
v 2.4785 -0.0496619 -2
v -2.48 -0.0496619 -1.9985
v -2.4785 -0.0496619 -1.9985
v -2.4785 -0.0496619 -2
v -2.48 -0.0496619 -2
v 2.4785 -0.0496617 1.9985
v 2.48 -0.0496617 1.9985
v 2.48 -0.0496617 2
v 2.4785 -0.0496617 2
v -2.48 -0.0496617 1.9985
v -2.4785 -0.0496617 1.9985
v -2.4785 -0.0496617 2
v -2.48 -0.0496617 2
v -0.21 0.0496618 -0.375
v -0.18 0.0496618 -0.325
v -0.18 0.0496618 -0.285
v -0.205 0.0496618 -0.135
v -0.275 0.0496618 -0.18
v -0.37 0.0496618 -0.21
v -0.425 0.0496618 -0.22
v -0.4 0.0496618 -0.285
v -0.395 0.0496618 -0.385
v -0.21 0.0296618 -0.375
v -0.18 0.0296618 -0.325
v -0.18 0.0296618 -0.285
v -0.205 0.0296618 -0.135
v -0.275 0.0296618 -0.18
v -0.37 0.0296618 -0.21
v -0.425 0.0296618 -0.22
v -0.4 0.0296618 -0.285
v -0.395 0.0296618 -0.385
# 34 verticies
vn 0 1 0
vn 0.0539752 0 -0.998542
vn 0.857493 0 -0.514495
vn 1 0 0
vn 0.998488 0 0.0549661
vn 0.993939 0 0.109932
vn 0.986394 0 0.164399
vn -0.540758 0 0.841179
vn -0.464512 0 0.885567
vn -0.384008 0 0.92333
vn -0.260843 0 0.965381
vn -0.220022 0 0.975495
vn -0.178886 0 0.98387
vn -0.933346 0 -0.358979
vn -0.965917 0 -0.258851
vn -0.987965 0 -0.154676
vn -0.998752 0 -0.0499376
vn 5.78365e-009 1 -4.82074e-008
vn 1.15673e-008 1 -2.50133e-008
vn 1.44205e-008 1 -2.24319e-008
vn -3.9918e-010 1 -4.22348e-008
vn -1.60659e-008 1 -7.53091e-008
vn -1.28208e-008 1 -5.03242e-008
vn -1.81972e-008 1 -3.38712e-008
vn -6.33056e-008 1 -2.43483e-008
vn 7.63379e-009 1 -5.11464e-008
vn -1.31415e-009 -1 5.20294e-008
vn -6.57073e-010 -1 5.00739e-008
vn -4.80683e-009 -1 4.88694e-008
vn -2.00824e-009 -1 3.71525e-008
vn -1.7675e-009 -1 3.76607e-008
vn -2.65487e-009 -1 4.50249e-008
vn -2.52026e-009 -1 5.28088e-008
vn -9.73932e-009 -1 5.35663e-008
vn -7.63381e-010 -1 4.23675e-008
# 35 normals
f  2//1 4//1 1//1
f  3//1 4//1 2//1
f  8//1 5//1 6//1
f  7//1 8//1 6//1
f  10//1 9//1 12//1
f  11//1 10//1 12//1
f  14//1 13//1 16//1
f  14//1 16//1 15//1
f  34//2 17//2 26//2
f  25//2 17//2 34//2
f  26//3 18//3 27//3
f  17//3 18//3 26//3
f  27//4 19//5 28//6
f  18//4 19//5 27//4
f  28//6 20//7 29//7
f  19//5 20//7 28//6
f  20//8 30//9 29//8
f  20//8 21//10 30//9
f  21//10 31//11 30//9
f  21//10 22//12 31//11
f  22//12 32//13 31//11
f  22//12 23//13 32//13
f  23//14 33//15 32//14
f  23//14 24//16 33//15
f  24//16 34//17 33//15
f  24//16 25//17 34//17
f  19//18 21//19 20//20
f  17//21 25//22 24//23
f  19//18 22//24 21//19
f  24//23 23//25 22//24
f  19//18 24//23 22//24
f  18//26 17//21 24//23
f  18//26 24//23 19//18
f  30//27 28//28 29//29
f  34//30 26//31 33//32
f  31//33 28//28 30//27
f  32//34 33//32 31//33
f  33//32 28//28 31//33
f  26//31 27//35 33//32
f  33//32 27//35 28//28
