# 
# Wavefront OBJ file
# Converted by the DEEP Exploration 3.5.10.1242
# Right Hemisphere, LTD
# http://www.righthemisphere.com/
# 
# object Object #0
g Object__0
v 2.4785 -0.0496619 -1.9985
v 2.48 -0.0496619 -1.9985
v 2.48 -0.0496619 -2
v 2.4785 -0.0496619 -2
v -2.48 -0.0496619 -1.9985
v -2.4785 -0.0496619 -1.9985
v -2.4785 -0.0496619 -2
v -2.48 -0.0496619 -2
v 2.4785 -0.0496617 1.9985
v 2.48 -0.0496617 1.9985
v 2.48 -0.0496617 2
v 2.4785 -0.0496617 2
v -2.48 -0.0496617 1.9985
v -2.4785 -0.0496617 1.9985
v -2.4785 -0.0496617 2
v -2.48 -0.0496617 2
v -0.325 0.0496618 0.335
v -0.375 0.0496618 0.285
v -0.375 0.0496618 0.25
v -0.455 0.0496618 0.14
v -0.455 0.0496618 0.09
v -0.475 0.0496618 0.06
v -0.42 0.0496618 0.045
v -0.37 0.0496618 0.04
v -0.37 0.0496618 0.11
v -0.275 0.0496618 0.195
v -0.25 0.0496618 0.205
v -0.325 0.0296618 0.335
v -0.375 0.0296618 0.285
v -0.375 0.0296618 0.25
v -0.455 0.0296618 0.14
v -0.455 0.0296618 0.09
v -0.475 0.0296618 0.06
v -0.42 0.0296618 0.045
v -0.37 0.0296618 0.04
v -0.37 0.0296618 0.11
v -0.275 0.0296618 0.195
v -0.25 0.0296618 0.205
# 38 verticies
vn 0 1 0
vn 0.866186 0 0.499722
vn -0.707107 0 0.707107
vn -1 0 0
vn -0.808736 0 0.588172
vn -0.832051 5.16604e-008 0.5547
vn -0.832051 0 0.5547
vn -0.832051 1.03321e-007 0.5547
vn -0.263117 -1.79701e-007 -0.964764
vn -0.209224 -1.82142e-007 -0.977868
vn -0.154518 -1.84027e-007 -0.98799
vn -0.0995038 -1.8534e-007 -0.995037
vn -0.0995038 -1.8534e-007 -0.995037
vn 1 0 0
vn 0.666795 0 -0.745241
vn 0.576115 0 -0.817369
vn 0.476297 0 -0.879284
vn 0.371391 0 -0.928477
vn 2.30613e-008 1 -1.77395e-008
vn 5.84359e-009 1 -2.48353e-008
vn 6.9184e-008 1 -5.32184e-008
vn 2.40442e-008 1 -4.65929e-008
vn 2.14472e-008 1 -6.34092e-008
vn -7.76633e-009 1 -3.87277e-008
vn 1.22344e-008 1 -4.97214e-008
vn -7.45058e-008 1 0
vn -1.53151e-008 1 -3.20789e-008
vn 1.86265e-008 1 -4.65661e-008
vn 1.4328e-008 -1 5.25361e-008
vn 9.98025e-009 -1 5.17169e-008
vn 1.2589e-008 -1 4.63951e-008
vn 5.32185e-009 -1 5.32184e-008
vn 9.28413e-009 -1 4.40652e-008
vn 1.37076e-008 -1 3.88381e-008
vn 1.45838e-009 -1 4.37672e-008
vn -2.14594e-009 -1 3.87839e-008
vn -1.59655e-008 -1 5.32184e-008
vn -8.59872e-009 -1 4.31784e-008
vn -1.39698e-008 -1 3.49246e-008
# 39 normals
f  2//1 4//1 1//1
f  3//1 4//1 2//1
f  8//1 5//1 6//1
f  7//1 8//1 6//1
f  10//1 9//1 12//1
f  11//1 10//1 12//1
f  14//1 13//1 16//1
f  14//1 16//1 15//1
f  38//2 17//2 28//2
f  27//2 17//2 38//2
f  17//3 29//3 28//3
f  17//3 18//3 29//3
f  18//4 30//4 29//4
f  18//4 19//4 30//4
f  19//5 31//5 30//5
f  19//5 20//5 31//5
f  20//4 32//4 31//4
f  20//4 21//4 32//4
f  21//6 33//6 32//7
f  21//6 22//8 33//6
f  22//9 34//10 33//9
f  22//9 23//11 34//10
f  23//11 35//12 34//10
f  23//11 24//13 35//12
f  35//14 25//14 36//14
f  24//14 25//14 35//14
f  36//15 26//16 37//17
f  25//15 26//16 36//15
f  37//17 27//18 38//18
f  26//16 27//18 37//17
f  23//19 22//1 21//20
f  24//21 23//19 25//22
f  23//19 21//20 25//22
f  25//22 21//20 20//23
f  25//22 20//23 19//24
f  26//25 25//22 19//24
f  19//24 18//26 17//27
f  26//25 19//24 17//27
f  27//28 26//25 17//27
f  33//29 34//30 32//31
f  34//30 35//32 36//33
f  32//31 34//30 36//33
f  32//31 36//33 31//34
f  31//34 36//33 30//35
f  36//33 37//36 30//35
f  29//37 30//35 28//38
f  37//36 38//39 28//38
f  30//35 37//36 28//38
