# 
# Wavefront OBJ file
# Converted by the DEEP Exploration 3.5.10.1242
# Right Hemisphere, LTD
# http://www.righthemisphere.com/
# 
# object Object #0
g Object__0
v 2.4785 -0.0496619 -1.9985
v 2.48 -0.0496619 -1.9985
v 2.48 -0.0496619 -2
v 2.4785 -0.0496619 -2
v -2.48 -0.0496619 -1.9985
v -2.4785 -0.0496619 -1.9985
v -2.4785 -0.0496619 -2
v -2.48 -0.0496619 -2
v 2.4785 -0.0496617 1.9985
v 2.48 -0.0496617 1.9985
v 2.48 -0.0496617 2
v 2.4785 -0.0496617 2
v -2.48 -0.0496617 1.9985
v -2.4785 -0.0496617 1.9985
v -2.4785 -0.0496617 2
v -2.48 -0.0496617 2
v 0.31 0.0496619 0.845
v 0.265 0.0496619 0.835
v 0.185 0.0496619 0.785
v 0.13 0.0496619 0.71
v 0.12 0.0496619 0.675
v 0.25 0.0496619 0.505
v 0.335 0.0496619 0.53
v 0.345 0.0496619 0.585
v 0.385 0.0496619 0.595
v 0.465 0.0496619 0.625
v 0.5 0.0496619 0.58
v 0.59 0.0496619 0.65
v 0.57 0.0496619 0.69
v 0.525 0.0496619 0.745
v 0.43 0.0496619 0.77
v 0.365 0.0496619 0.84
v 0.31 0.0296619 0.845
v 0.265 0.0296619 0.835
v 0.185 0.0296619 0.785
v 0.13 0.0296619 0.71
v 0.12 0.0296619 0.675
v 0.25 0.0296618 0.505
v 0.335 0.0296618 0.53
v 0.345 0.0296619 0.585
v 0.385 0.0296619 0.595
v 0.465 0.0296619 0.625
v 0.5 0.0296619 0.58
v 0.59 0.0296619 0.65
v 0.57 0.0296619 0.69
v 0.525 0.0296619 0.745
v 0.43 0.0296619 0.77
v 0.365 0.0296619 0.84
# 48 verticies
vn 0 1 0
vn 0.0905367 0 0.995893
vn -0.0639608 0 0.997952
vn -0.325452 0 0.945558
vn -0.431161 0 0.902275
vn -0.632208 0 0.774799
vn -0.725835 0 0.687869
vn -0.870217 0 0.492669
vn -0.922652 0 0.385633
vn -0.961524 0 0.274721
vn -0.794358 0 -0.60745
vn 0.282166 0 -0.959366
vn 0.98387 0 -0.178885
vn 0.242537 0 -0.970142
vn 0.279134 0 -0.960252
vn 0.315381 0 -0.948965
vn 0.351123 0 -0.936329
vn -0.789352 0 -0.61394
vn 0.613941 0 -0.789352
vn 0.894427 0 0.447213
vn 0.858971 0 0.512023
vn 0.818594 0 0.574373
vn 0.773957 0 0.633238
vn 0.254493 0 0.967075
vn 0.732794 0 0.680451
vn -2.57905e-008 1 -2.00593e-008
vn -9.07427e-009 1 -3.99644e-008
vn -2.64418e-008 1 -1.68029e-008
vn 2.10468e-008 1 -7.15592e-008
vn 9.82184e-009 1 -5.82296e-008
vn 6.833e-009 1 -3.9096e-008
vn 6.72779e-009 1 -2.45726e-008
vn -1.14055e-008 1 -3.88878e-008
vn -5.07858e-009 1 -5.95489e-008
vn 4.06895e-009 1 -4.89567e-008
vn 4.37295e-009 1 -4.40217e-008
vn 2.39933e-009 1 -4.54199e-008
vn 2.56766e-009 1 -4.39332e-008
vn -1.99568e-009 1 -4.7564e-008
vn -4.54734e-009 1 -4.26647e-008
vn 3.38013e-009 1 -2.39885e-008
vn -3.95609e-009 -1 3.73715e-008
vn -7.16401e-009 -1 3.58201e-008
vn -7.81529e-009 -1 3.90765e-008
vn -9.82184e-009 -1 5.82296e-008
vn -2.10468e-008 -1 7.15592e-008
vn -6.25157e-009 -1 4.60566e-008
vn 2.82425e-009 -1 4.84527e-008
vn -5.30376e-009 -1 3.72237e-008
vn -6.12418e-009 -1 3.41062e-008
vn -3.66184e-009 -1 4.0491e-008
vn -7.8313e-011 -1 4.29174e-008
vn -2.39933e-009 -1 4.54199e-008
vn -2.56766e-009 -1 4.39332e-008
vn 1.99568e-009 -1 4.7564e-008
vn -8.5163e-010 -1 3.83455e-008
vn -1.92655e-009 -1 4.13898e-008
# 57 normals
f  2//1 4//1 1//1
f  3//1 4//1 2//1
f  8//1 5//1 6//1
f  7//1 8//1 6//1
f  10//1 9//1 12//1
f  11//1 10//1 12//1
f  14//1 13//1 16//1
f  14//1 16//1 15//1
f  48//2 17//3 33//3
f  32//2 17//3 48//2
f  17//3 34//4 33//3
f  17//3 18//5 34//4
f  18//5 35//6 34//4
f  18//5 19//7 35//6
f  19//7 36//8 35//6
f  19//7 20//9 36//8
f  20//9 37//10 36//8
f  20//9 21//10 37//10
f  21//11 38//11 37//11
f  21//11 22//11 38//11
f  38//12 23//12 39//12
f  22//12 23//12 38//12
f  39//13 24//13 40//13
f  23//13 24//13 39//13
f  40//14 25//15 41//16
f  24//14 25//15 40//14
f  41//16 26//17 42//17
f  25//15 26//17 41//16
f  26//18 43//18 42//18
f  26//18 27//18 43//18
f  43//19 28//19 44//19
f  27//19 28//19 43//19
f  44//20 29//21 45//22
f  28//20 29//21 44//20
f  45//22 30//23 46//23
f  29//21 30//23 45//22
f  46//24 31//24 47//24
f  30//24 31//24 46//24
f  47//25 32//25 48//25
f  31//25 32//25 47//25
f  27//26 26//27 28//28
f  23//29 22//30 24//31
f  24//31 22//30 21//32
f  28//28 26//27 29//33
f  29//33 26//27 30//34
f  30//34 26//27 31//35
f  26//27 25//36 31//35
f  31//35 25//36 32//37
f  32//37 25//36 17//38
f  25//36 18//39 17//38
f  25//36 19//40 18//39
f  24//31 21//32 20//41
f  24//31 20//41 19//40
f  25//36 24//31 19//40
f  42//42 43//43 44//44
f  38//45 39//46 40//47
f  38//45 40//47 37//48
f  42//42 44//44 45//49
f  42//42 45//49 46//50
f  42//42 46//50 47//51
f  41//52 42//42 47//51
f  41//52 47//51 48//53
f  41//52 48//53 33//54
f  34//55 41//52 33//54
f  35//56 41//52 34//55
f  37//48 40//47 36//57
f  40//47 41//52 35//56
f  36//57 40//47 35//56
