# 
# Wavefront OBJ file
# Converted by the DEEP Exploration 3.5.10.1242
# Right Hemisphere, LTD
# http://www.righthemisphere.com/
# 
# object Object #0
g Object__0
v 2.4785 -0.0496619 -1.9985
v 2.48 -0.0496619 -1.9985
v 2.48 -0.0496619 -2
v 2.4785 -0.0496619 -2
v -2.48 -0.0496619 -1.9985
v -2.4785 -0.0496619 -1.9985
v -2.4785 -0.0496619 -2
v -2.48 -0.0496619 -2
v 2.4785 -0.0496617 1.9985
v 2.48 -0.0496617 1.9985
v 2.48 -0.0496617 2
v 2.4785 -0.0496617 2
v -2.48 -0.0496617 1.9985
v -2.4785 -0.0496617 1.9985
v -2.4785 -0.0496617 2
v -2.48 -0.0496617 2
v -0.71 0.0496618 0.27
v -0.71 0.0496618 0.35
v -0.67 0.0496618 0.39
v -0.61 0.0496618 0.39
v -0.55 0.0496618 0.42
v -0.44 0.0496618 0.46
v -0.45 0.0496619 0.49
v -0.51 0.0496619 0.54
v -0.58 0.0496619 0.57
v -0.62 0.0496619 0.64
v -0.71 0.0496619 0.63
v -0.78 0.0496619 0.6
v -0.81 0.0496619 0.57
v -0.93 0.0496619 0.49
v -0.9 0.0496618 0.45
v -0.71 0.0296618 0.27
v -0.71 0.0296618 0.35
v -0.67 0.0296618 0.39
v -0.61 0.0296618 0.39
v -0.55 0.0296618 0.42
v -0.44 0.0296618 0.46
v -0.45 0.0296618 0.49
v -0.51 0.0296619 0.54
v -0.58 0.0296619 0.57
v -0.62 0.0296619 0.64
v -0.71 0.0296619 0.63
v -0.78 0.0296619 0.6
v -0.81 0.0296619 0.57
v -0.93 0.0296618 0.49
v -0.9 0.0296618 0.45
# 46 verticies
vn 0 1 0
vn -0.727467 0 -0.686142
vn -0.687745 0 -0.725953
vn -0.765005 0 -0.644024
vn 1 0 0
vn 0.707107 0 -0.707107
vn 0 0 -1
vn 0.447214 0 -0.894427
vn 0.412662 0 -0.910884
vn 0.377453 0 -0.926029
vn 0.341743 0 -0.939793
vn 0.948683 0 0.316227
vn 0.640185 0 0.768221
vn 0.563342 0 0.826224
vn 0.480482 0 0.877005
vn 0.393919 0 0.919145
vn 0.868243 0 0.496139
vn -0.110431 0 0.993884
vn -0.206913 0 0.978359
vn -0.302324 0 0.953205
vn -0.506429 0 0.862282
vn -0.612525 0 0.790451
vn -0.659155 0 0.752007
vn -0.608132 0 0.793836
vn -0.5547 0 0.83205
vn -0.8 0 -0.6
vn 1.60046e-009 1 -4.96395e-008
vn -1.32705e-008 1 -4.56859e-008
vn -3.33608e-008 1 -7.22818e-008
vn 4.6168e-009 1 -6.55508e-008
vn 2.0696e-008 1 -7.76102e-008
vn 2.5452e-009 1 -5.29958e-008
vn -1.07461e-009 1 -5.00287e-008
vn 4.02734e-008 1 -1.10752e-007
vn 1.93824e-008 1 -5.5722e-008
vn 1.00136e-008 1 -6.75236e-008
vn 7.33924e-009 1 -3.34905e-008
vn 4.0317e-009 1 -3.63525e-008
vn 1.15239e-008 1 -2.83675e-008
vn -1.94026e-009 1 -4.09301e-008
vn -9.89533e-009 1 -5.52973e-008
vn -2.92849e-009 -1 4.72765e-008
vn 3.58029e-009 -1 4.32919e-008
vn -5.56013e-009 -1 5.00412e-008
vn 2.06961e-008 -1 1.5522e-008
vn 4.61681e-009 -1 2.75815e-008
vn 6.61975e-009 -1 3.91663e-008
vn -1.0746e-009 -1 4.31035e-008
vn 6.40801e-009 -1 3.44825e-008
vn 1.51025e-008 -1 5.03417e-009
vn -1.5595e-009 -1 2.88371e-008
vn -3.79623e-010 -1 4.66927e-008
vn 2.01585e-009 -1 4.39119e-008
vn 5.76197e-009 -1 4.79044e-008
vn 4.85063e-009 -1 4.61503e-008
vn 6.11182e-009 -1 4.51109e-008
# 56 normals
f  2//1 4//1 1//1
f  3//1 4//1 2//1
f  8//1 5//1 6//1
f  7//1 8//1 6//1
f  10//1 9//1 12//1
f  11//1 10//1 12//1
f  14//1 13//1 16//1
f  14//1 16//1 15//1
f  31//2 32//3 46//4
f  31//2 17//3 32//3
f  32//5 18//5 33//5
f  17//5 18//5 32//5
f  33//6 19//6 34//6
f  18//6 19//6 33//6
f  34//7 20//7 35//7
f  19//7 20//7 34//7
f  35//8 21//9 36//10
f  20//8 21//9 35//8
f  36//10 22//11 37//11
f  21//9 22//11 36//10
f  37//12 23//12 38//12
f  22//12 23//12 37//12
f  38//13 24//14 39//15
f  23//13 24//14 38//13
f  39//15 25//16 40//16
f  24//14 25//16 39//15
f  40//17 26//17 41//17
f  25//17 26//17 40//17
f  26//18 42//19 41//18
f  26//18 27//20 42//19
f  27//20 43//21 42//19
f  27//20 28//22 43//21
f  28//22 44//23 43//21
f  28//22 29//24 44//23
f  29//24 45//25 44//23
f  29//24 30//25 45//25
f  30//26 46//4 45//26
f  30//26 31//2 46//4
f  25//27 27//28 26//29
f  31//30 30//31 29//32
f  17//33 31//30 29//32
f  22//34 21//35 23//36
f  23//36 21//35 24//37
f  24//37 21//35 25//27
f  21//35 20//38 25//27
f  25//27 20//38 27//28
f  20//38 28//39 27//28
f  20//38 19//40 28//39
f  19//40 29//32 28//39
f  18//41 17//33 29//32
f  19//40 18//41 29//32
f  42//42 40//43 41//44
f  45//45 46//46 44//47
f  46//46 32//48 44//47
f  36//49 37//50 38//51
f  36//49 38//51 39//52
f  36//49 39//52 40//43
f  35//53 36//49 40//43
f  35//53 40//43 42//42
f  43//54 35//53 42//42
f  34//55 35//53 43//54
f  44//47 34//55 43//54
f  32//48 33//56 44//47
f  33//56 34//55 44//47
