# 
# Wavefront OBJ file
# Converted by the DEEP Exploration 3.5.10.1242
# Right Hemisphere, LTD
# http://www.righthemisphere.com/
# 
# object Object #0
g Object__0
v 2.4785 -0.0496619 -1.9985
v 2.48 -0.0496619 -1.9985
v 2.48 -0.0496619 -2
v 2.4785 -0.0496619 -2
v -2.48 -0.0496619 -1.9985
v -2.4785 -0.0496619 -1.9985
v -2.4785 -0.0496619 -2
v -2.48 -0.0496619 -2
v 2.4785 -0.0496617 1.9985
v 2.48 -0.0496617 1.9985
v 2.48 -0.0496617 2
v 2.4785 -0.0496617 2
v -2.48 -0.0496617 1.9985
v -2.4785 -0.0496617 1.9985
v -2.4785 -0.0496617 2
v -2.48 -0.0496617 2
v -0.67 0.0496619 1.09
v -0.62 0.0496619 1.16
v -0.57 0.0496619 1.26
v -0.5 0.0496619 1.3
v -0.42 0.0496619 1.35
v -0.31 0.0496619 1.36
v -0.25 0.0496619 1.3
v -0.15 0.0496619 1.23
v -0.0900001 0.0496619 1.16
v -0.0600001 0.0496619 1.16
v -1.19209e-007 0.0496619 1.25
v 0.0399999 0.0496619 1.3
v 0.0799999 0.0496619 1.41
v 0.13 0.0496619 1.46
v 0.18 0.0496619 1.54
v 0.27 0.0496619 1.67
v 0.31 0.0496619 1.73
v 0.22 0.0496619 1.74
v 0.17 0.0496619 1.63
v 0.12 0.0496619 1.59
v 0.0799999 0.0496619 1.58
v 0.0299999 0.0496619 1.61
v -0.0300001 0.0496619 1.62
v -0.16 0.0496619 1.72
v -0.24 0.0496619 1.78
v -0.35 0.0496619 1.81
v -0.48 0.0496619 1.82
v -0.57 0.0496619 1.76
v -0.63 0.0496619 1.72
v -0.69 0.0496619 1.68
v -0.73 0.0496619 1.64
v -0.67 0.0296619 1.09
v -0.62 0.0296619 1.16
v -0.57 0.0296619 1.26
v -0.5 0.0296619 1.3
v -0.42 0.0296619 1.35
v -0.31 0.0296619 1.36
v -0.25 0.0296619 1.3
v -0.15 0.0296619 1.23
v -0.0900001 0.0296619 1.16
v -0.0600001 0.0296619 1.16
v -1.19209e-007 0.0296619 1.25
v 0.0399999 0.0296619 1.3
v 0.0799999 0.0296619 1.41
v 0.13 0.0296619 1.46
v 0.18 0.0296619 1.54
v 0.27 0.0296619 1.67
v 0.31 0.0296619 1.73
v 0.22 0.0296619 1.74
v 0.17 0.0296619 1.63
v 0.12 0.0296619 1.59
v 0.0799999 0.0296619 1.58
v 0.0299999 0.0296619 1.61
v -0.0300001 0.0296619 1.62
v -0.16 0.0296619 1.72
v -0.24 0.0296619 1.78
v -0.35 0.0296619 1.81
v -0.48 0.0296619 1.82
v -0.57 0.0296619 1.76
v -0.63 0.0296619 1.72
v -0.69 0.0296619 1.68
v -0.73 0.0296619 1.64
# 78 verticies
vn 0 1 0
vn -0.994102 0 -0.108448
vn 0.813733 0 -0.581239
vn 0.842927 0 -0.538029
vn 0.869898 0 -0.493232
vn 0.894427 0 -0.447214
vn 0.496139 0 -0.868243
vn 0.507513 0 -0.861644
vn 0.518802 0 -0.854894
vn 0.529999 0 -0.847998
vn 0.0905357 0 -0.995893
vn -0.707107 0 -0.707106
vn -0.664811 0 -0.747012
vn -0.620111 0 -0.784514
vn -0.639881 0 -0.768474
vn -0.70225 0 -0.711931
vn -0.759257 0 -0.650791
vn 0 0 -1
vn 0.83205 0 -0.5547
vn 0.815672 0 -0.578515
vn 0.798597 0 -0.601867
vn 0.843776 0 -0.536696
vn 0.897382 0 -0.441255
vn 0.939793 0 -0.341743
vn 0.707107 0 -0.707106
vn 0.758399 0 -0.65179
vn 0.805632 0 -0.592416
vn 0.839602 0 -0.543203
vn 0.830998 0 -0.556276
vn 0.825507 0 -0.564393
vn 0.828793 0 -0.559556
vn 0.832051 0 -0.5547
vn 0.110431 0 0.993884
vn -0.910367 0 0.413803
vn -0.624695 0 0.780869
vn -0.507673 0 0.86155
vn -0.377632 0 0.925956
vn -0.242535 0 0.970143
vn 0.514495 0 0.857493
vn 0.404095 0 0.914717
vn 0.285548 0 0.958364
vn 0.164399 0 0.986394
vn 0.609711 0 0.792624
vn 0.606484 0 0.795096
vn 0.603247 0 0.797555
vn 0.49551 0 0.868602
vn 0.381419 0 0.924402
vn 0.201781 0 0.979431
vn 0.139393 0 0.990237
vn 0.0766973 0 0.997054
vn -0.554701 0 0.83205
vn -0.5547 0 0.83205
vn -0.5547 0 0.83205
vn -0.5547 0 0.83205
vn -0.554701 0 0.83205
vn -0.608133 0 0.793835
vn -0.659155 0 0.752007
vn -0.707106 0 0.707107
vn -1.62633e-008 1 -2.143e-008
vn -1.44872e-008 1 -1.0348e-008
vn -6.12646e-009 1 -3.4101e-008
vn 8.63481e-009 1 -4.59138e-008
vn 1.99258e-008 1 -5.01262e-008
vn 2.4398e-008 1 -5.20641e-008
vn 1.05295e-008 1 -4.79615e-008
vn -6.32305e-009 1 -4.52607e-008
vn -1.63874e-008 1 -4.13498e-008
vn -1.71455e-008 1 -4.72798e-008
vn -1.12394e-008 1 -3.68289e-008
vn -1.03079e-009 1 -2.94201e-008
vn -3.58352e-009 1 -3.48867e-008
vn 9.49692e-010 1 -4.65346e-008
vn -1.06004e-008 1 -1.36291e-008
vn -1.2034e-008 1 -3.39214e-008
vn 1.9931e-008 1 -2.40557e-008
vn -5.82812e-010 1 -4.6554e-008
vn 6.11021e-008 1 1.1828e-008
vn -6.57425e-009 1 -4.03117e-008
vn -1.52773e-008 1 -4.23061e-008
vn -4.44288e-009 1 -4.53574e-008
vn 1.00954e-008 1 -3.49629e-008
vn 2.29277e-009 1 -4.22759e-008
vn -5.14168e-009 1 -4.40338e-008
vn 4.63745e-008 1 -2.19556e-009
vn -1.98022e-009 1 -4.89176e-008
vn 2.11163e-009 -1 5.03862e-008
vn 6.4229e-009 -1 5.78062e-008
vn 2.17666e-009 -1 5.47732e-008
vn 1.23778e-009 -1 4.50556e-008
vn 3.6287e-009 -1 4.22678e-008
vn -5.46238e-010 -1 4.24547e-008
vn -4.00472e-009 -1 4.31256e-008
vn -9.35804e-009 -1 4.32757e-008
vn -5.31108e-009 -1 4.36015e-008
vn -1.42916e-009 -1 4.62088e-008
vn -1.61141e-010 -1 4.27347e-008
vn -2.14547e-009 -1 4.85083e-008
vn -2.14441e-009 -1 5.24669e-008
vn 7.92069e-010 -1 5.24761e-008
vn -8.56383e-009 -1 7.49338e-008
vn -3.69935e-009 -1 4.145e-008
vn 0 -1 5.32184e-008
vn -3.02869e-009 -1 4.93244e-008
vn -4.00595e-009 -1 4.77841e-008
vn -4.00595e-009 -1 5.48799e-008
vn 1.08189e-008 -1 5.63995e-008
vn -1.37616e-009 -1 4.27143e-008
vn 3.26885e-008 -1 6.99704e-008
vn -1.70399e-008 -1 3.87806e-008
vn 5.27162e-010 -1 4.28064e-008
vn 5.71246e-010 -1 4.05508e-008
vn 1.07404e-008 -1 4.37359e-008
vn 1.45266e-009 -1 3.93313e-008
vn -1.83721e-009 -1 3.65736e-008
vn 2.36917e-008 -1 6.1631e-008
vn 2.41338e-009 -1 4.36113e-008
# 116 normals
f  2//1 4//1 1//1
f  3//1 4//1 2//1
f  8//1 5//1 6//1
f  7//1 8//1 6//1
f  10//1 9//1 12//1
f  11//1 10//1 12//1
f  14//1 13//1 16//1
f  14//1 16//1 15//1
f  47//2 48//2 78//2
f  47//2 17//2 48//2
f  48//3 18//4 49//5
f  17//3 18//4 48//3
f  49//5 19//6 50//6
f  18//4 19//6 49//5
f  50//7 20//8 51//9
f  19//7 20//8 50//7
f  51//9 21//10 52//10
f  20//8 21//10 51//9
f  52//11 22//11 53//11
f  21//11 22//11 52//11
f  22//12 54//13 53//12
f  22//12 23//14 54//13
f  23//14 55//15 54//13
f  23//14 24//16 55//15
f  24//16 56//17 55//15
f  24//16 25//17 56//17
f  56//18 26//18 57//18
f  25//18 26//18 56//18
f  57//19 27//20 58//21
f  26//19 27//20 57//19
f  58//21 28//22 59//23
f  27//20 28//22 58//21
f  59//23 29//24 60//24
f  28//22 29//24 59//23
f  60//25 30//26 61//27
f  29//25 30//26 60//25
f  61//27 31//28 62//29
f  30//26 31//28 61//27
f  62//29 32//30 63//31
f  31//28 32//30 62//29
f  63//31 33//32 64//32
f  32//30 33//32 63//31
f  64//33 34//33 65//33
f  33//33 34//33 64//33
f  34//34 66//34 65//34
f  34//34 35//34 66//34
f  35//35 67//36 66//35
f  35//35 36//37 67//36
f  36//37 68//38 67//36
f  36//37 37//38 68//38
f  68//39 38//40 69//41
f  37//39 38//40 68//39
f  69//41 39//42 70//42
f  38//40 39//42 69//41
f  70//43 40//44 71//45
f  39//43 40//44 70//43
f  71//45 41//46 72//47
f  40//44 41//46 71//45
f  72//47 42//48 73//49
f  41//46 42//48 72//47
f  73//49 43//50 74//50
f  42//48 43//50 73//49
f  43//51 75//52 74//51
f  43//51 44//53 75//52
f  44//53 76//54 75//52
f  44//53 45//55 76//54
f  45//55 77//56 76//54
f  45//55 46//57 77//56
f  46//57 78//58 77//56
f  46//57 47//58 78//58
f  33//1 32//59 34//60
f  32//59 35//61 34//60
f  31//62 35//61 32//59
f  31//62 36//63 35//61
f  31//62 30//64 36//63
f  30//64 37//65 36//63
f  30//64 29//66 37//65
f  37//65 29//66 38//67
f  38//67 29//66 39//68
f  29//66 28//69 39//68
f  42//70 44//71 43//1
f  39//68 28//69 40//72
f  26//73 25//1 24//74
f  26//73 24//74 27//74
f  27//74 24//74 23//75
f  27//74 23//75 28//69
f  28//69 23//75 40//72
f  40//72 23//75 41//76
f  41//76 23//75 42//70
f  23//75 44//71 42//70
f  23//75 45//77 44//71
f  18//78 17//79 47//80
f  19//81 18//78 47//80
f  20//82 19//81 47//80
f  21//83 20//82 47//80
f  22//84 21//83 47//80
f  22//84 47//80 46//85
f  23//75 22//84 45//77
f  22//84 46//85 45//77
f  63//86 64//87 65//88
f  66//89 63//86 65//88
f  66//89 62//90 63//86
f  67//91 62//90 66//89
f  61//92 62//90 67//91
f  68//93 61//92 67//91
f  60//94 61//92 68//93
f  60//94 68//93 69//95
f  60//94 69//95 70//96
f  59//97 60//94 70//96
f  75//98 73//99 74//100
f  59//97 70//96 71//101
f  56//102 57//103 55//104
f  55//104 57//103 58//105
f  55//104 58//105 54//106
f  54//106 58//105 59//97
f  54//106 59//97 71//101
f  54//106 71//101 72//107
f  54//106 72//107 73//99
f  75//98 54//106 73//99
f  76//108 54//106 75//98
f  48//109 49//110 78//111
f  49//110 50//112 78//111
f  50//112 51//113 78//111
f  51//113 52//114 78//111
f  52//114 53//115 78//111
f  78//111 53//115 77//116
f  77//116 53//115 76//108
f  53//115 54//106 76//108
