# 
# Wavefront OBJ file
# Converted by the DEEP Exploration 3.5.10.1242
# Right Hemisphere, LTD
# http://www.righthemisphere.com/
# 
# object Object #0
g Object__0
v 2.4785 -0.0496619 -1.9985
v 2.48 -0.0496619 -1.9985
v 2.48 -0.0496619 -2
v 2.4785 -0.0496619 -2
v -2.48 -0.0496619 -1.9985
v -2.4785 -0.0496619 -1.9985
v -2.4785 -0.0496619 -2
v -2.48 -0.0496619 -2
v 2.4785 -0.0496617 1.9985
v 2.48 -0.0496617 1.9985
v 2.48 -0.0496617 2
v 2.4785 -0.0496617 2
v -2.48 -0.0496617 1.9985
v -2.4785 -0.0496617 1.9985
v -2.4785 -0.0496617 2
v -2.48 -0.0496617 2
v 2.12 0.0496618 -0.525
v 2.12 0.0496618 -0.495
v 2.045 0.0496618 -0.485
v 1.96 0.0496618 -0.455
v 1.885 0.0496618 -0.45
v 1.805 0.0496618 -0.445
v 1.755 0.0496618 -0.44
v 1.71 0.0496618 -0.44
v 1.69 0.0496618 -0.41
v 1.745 0.0496618 -0.39
v 1.74 0.0496618 -0.365
v 1.695 0.0496618 -0.365
v 1.635 0.0496618 -0.355
v 1.625 0.0496618 -0.33
v 1.545 0.0496618 -0.36
v 1.505 0.0496618 -0.345
v 1.475 0.0496618 -0.425
v 1.405 0.0496618 -0.445
v 1.38 0.0496618 -0.435
v 1.335 0.0496618 -0.435
v 1.295 0.0496618 -0.44
v 1.255 0.0496618 -0.455
v 1.24 0.0496618 -0.44
v 1.25 0.0496618 -0.415
v 1.24 0.0496618 -0.325
v 1.19 0.0496618 -0.22
v 1.16 0.0496618 -0.075
v 0.995 0.0496618 0.005
v 0.985 0.0496618 -0.075
v 0.99 0.0496618 -0.215
v 0.975 0.0496618 -0.305
v 0.97 0.0496618 -0.335
v 0.92 0.0496618 -0.455
v 0.9 0.0496618 -0.48
v 0.875 0.0496618 -0.57
v 0.81 0.0496618 -0.57
v 0.79 0.0496618 -0.59
v 1.12 0.0496618 -0.595
v 1.77 0.0496618 -0.58
v 2.12 0.0296618 -0.525
v 2.12 0.0296618 -0.495
v 2.045 0.0296618 -0.485
v 1.96 0.0296618 -0.455
v 1.885 0.0296618 -0.45
v 1.805 0.0296618 -0.445
v 1.755 0.0296618 -0.44
v 1.71 0.0296618 -0.44
v 1.69 0.0296618 -0.41
v 1.745 0.0296618 -0.39
v 1.74 0.0296618 -0.365
v 1.695 0.0296618 -0.365
v 1.635 0.0296618 -0.355
v 1.625 0.0296618 -0.33
v 1.545 0.0296618 -0.36
v 1.505 0.0296618 -0.345
v 1.475 0.0296618 -0.425
v 1.405 0.0296618 -0.445
v 1.38 0.0296618 -0.435
v 1.335 0.0296618 -0.435
v 1.295 0.0296618 -0.44
v 1.255 0.0296618 -0.455
v 1.24 0.0296618 -0.44
v 1.25 0.0296618 -0.415
v 1.24 0.0296618 -0.325
v 1.19 0.0296618 -0.22
v 1.16 0.0296618 -0.075
v 0.995 0.0296618 0.005
v 0.985 0.0296618 -0.075
v 0.99 0.0296618 -0.215
v 0.975 0.0296618 -0.305
v 0.97 0.0296618 -0.335
v 0.92 0.0296618 -0.455
v 0.9 0.0296618 -0.48
v 0.875 0.0296618 -0.57
v 0.81 0.0296618 -0.57
v 0.79 0.0296618 -0.59
v 1.12 0.0296618 -0.595
v 1.77 0.0296618 -0.58
# 94 verticies
vn 0 1 0
vn 0.1114 0 -0.993776
vn 0.155238 0 -0.987877
vn 0.0672582 0 -0.997736
vn 1 0 0
vn 0.132164 0 0.991228
vn 0.199998 0 0.979796
vn 0.267202 0 0.963641
vn 0.246082 0 0.969249
vn 0.156577 0 0.987666
vn 0.0651391 0 0.997876
vn 0.0637587 0 0.997965
vn 0.0747649 0 0.997201
vn 0.087142 0 0.996196
vn 0.0664091 0 0.997792
vn 0.0332045 0 0.999449
vn 0 0 1
vn 0.832051 0 0.5547
vn 0.341743 0 -0.939793
vn 0.980581 0 0.196116
vn 0.0549662 0 0.998488
vn 0.109932 0 0.993939
vn 0.164399 0 0.986394
vn 0.928477 0 0.371391
vn -0.351123 0 0.936329
vn 0.351124 0 0.936329
vn -0.936329 0 0.351123
vn -0.274721 0 0.961524
vn 0.371391 0 0.928477
vn 0.251625 0 0.967825
vn 0.125813 0 0.992054
vn -0.0621373 0 0.998068
vn -0.200956 0 0.9796
vn -0.277117 0 0.960836
vn -0.351124 0 0.936329
vn 0.707108 0 0.707106
vn 0.928477 0 -0.37139
vn 0.993884 0 0.110431
vn 0.975581 0 0.219642
vn 0.94486 0 0.327473
vn 0.934317 0 0.356443
vn 0.959948 0 0.280178
vn 0.97926 0 0.202606
vn 0.436274 2.09504e-008 0.899814
vn 0.436274 4.19009e-008 0.899814
vn 0.436274 0 0.899814
vn -0.992278 2.88791e-009 0.124035
vn -0.997477 1.93076e-009 0.0709945
vn -0.992278 5.77581e-009 0.124035
vn -0.999845 0 0.0176006
vn -0.999515 0 0.0311447
vn -0.995172 0 0.0981414
vn -0.986394 0 0.164399
vn -0.970969 0 0.239204
vn -0.949739 0 0.313042
vn -0.883349 0 0.468715
vn -0.835531 0 0.549443
vn -0.857211 0 0.514966
vn -0.919212 0 0.393762
vn -0.963518 0 0.267644
vn -0.707107 0 0.707107
vn -0.0151499 0 -0.999885
vn 0.00396118 0 -0.999992
vn -4.3042e-010 1 -5.04783e-008
vn 0 1 -4.98923e-008
vn 0 1 -4.65661e-008
vn -7.73923e-010 1 -4.86964e-008
vn -1.69975e-009 1 -4.32241e-008
vn 0 1 -1.49012e-007
vn 1.56855e-008 1 -1.17641e-007
vn 5.94147e-009 1 -1.0552e-007
vn 5.14253e-009 1 -5.87369e-008
vn 1.43538e-009 1 -3.04702e-008
vn -2.96391e-009 1 -3.92719e-008
vn -1.8553e-009 1 -4.17402e-008
vn 3.51789e-009 1 -5.00239e-008
vn -1.53094e-008 1 -4.08251e-008
vn -3.32721e-009 1 -4.84822e-008
vn -1.84392e-008 1 -2.19559e-008
vn -4.03538e-008 1 -1.81425e-008
vn -4.11067e-009 1 -7.70749e-009
vn 2.20378e-009 1 -3.25218e-008
vn -6.50632e-010 1 -5.22437e-008
vn 5.61232e-009 1 -6.81354e-008
vn -3.50119e-009 1 -5.4215e-008
vn -4.38691e-009 1 -5.40521e-008
vn -2.68974e-009 1 -5.35066e-008
vn -3.13086e-010 1 -3.6147e-008
vn -1.57377e-008 1 -3.38949e-008
vn 6.96712e-009 1 -3.31057e-008
vn 8.33147e-009 1 -1.7406e-008
vn -6.4624e-008 1 -2.82856e-008
vn -2.06079e-007 1 1.5852e-008
vn -7.76713e-009 1 -2.79892e-008
vn -7.77756e-008 1 1.21451e-008
vn 0 -1 4.324e-008
vn 3.22815e-010 -1 4.17393e-008
vn 0 -1 4.65661e-008
vn 6.66318e-010 -1 3.99573e-008
vn -3.75237e-010 -1 4.38962e-008
vn 9.8034e-009 -1 1.96068e-008
vn 0 -1 0
vn -1.36652e-009 -1 2.77466e-008
vn -2.39756e-009 -1 4.18751e-008
vn -4.49705e-010 -1 4.8822e-008
vn -3.5313e-009 -1 4.63425e-008
vn -3.51789e-009 -1 5.00239e-008
vn 1.8553e-009 -1 4.17402e-008
vn 1.53094e-008 -1 4.08251e-008
vn -9.09041e-009 -1 3.60646e-008
vn 2.1235e-008 -1 2.88122e-008
vn 6.6287e-010 -1 9.03151e-008
vn -1.58558e-008 -1 6.38785e-008
vn 0 -1 9.31323e-008
vn -1.11331e-008 -1 2.56917e-008
vn -2.48353e-008 -1 0
vn -3.99913e-009 -1 2.68261e-008
vn 2.71289e-011 -1 4.87184e-008
vn 6.48741e-009 -1 3.48426e-008
vn -8.40571e-009 -1 5.04199e-008
vn -7.06899e-009 -1 5.70222e-008
vn 2.68974e-009 -1 5.35066e-008
vn 3.13086e-010 -1 3.6147e-008
vn 8.04688e-009 -1 4.88677e-008
vn -3.11655e-009 -1 4.9853e-008
vn 2.11664e-009 -1 5.39744e-008
vn -2.58192e-008 -1 4.72211e-008
vn -7.92611e-008 -1 6.34091e-008
vn 2.51708e-009 -1 5.53759e-008
vn -9.14536e-009 -1 7.39633e-008
vn 4.27804e-008 -1 1.49479e-008
# 131 normals
f  2//1 4//1 1//1
f  3//1 4//1 2//1
f  8//1 5//1 6//1
f  7//1 8//1 6//1
f  10//1 9//1 12//1
f  11//1 10//1 12//1
f  14//1 13//1 16//1
f  14//1 16//1 15//1
f  94//2 17//3 56//3
f  55//4 17//3 94//2
f  56//5 18//5 57//5
f  17//5 18//5 56//5
f  57//6 19//7 58//8
f  18//6 19//7 57//6
f  58//8 20//9 59//10
f  19//7 20//9 58//8
f  59//10 21//11 60//12
f  20//9 21//11 59//10
f  60//12 22//13 61//14
f  21//11 22//13 60//12
f  61//14 23//15 62//16
f  22//13 23//15 61//14
f  62//16 24//17 63//17
f  23//15 24//17 62//16
f  63//18 25//18 64//18
f  24//18 25//18 63//18
f  64//19 26//19 65//19
f  25//19 26//19 64//19
f  65//20 27//20 66//20
f  26//20 27//20 65//20
f  66//17 28//21 67//22
f  27//17 28//21 66//17
f  67//22 29//23 68//23
f  28//21 29//23 67//22
f  68//24 30//24 69//24
f  29//24 30//24 68//24
f  30//25 70//25 69//25
f  30//25 31//25 70//25
f  70//26 32//26 71//26
f  31//26 32//26 70//26
f  32//27 72//27 71//27
f  32//27 33//27 72//27
f  33//28 73//28 72//28
f  33//28 34//28 73//28
f  73//29 35//30 74//31
f  34//29 35//30 73//29
f  74//31 36//32 75//32
f  35//30 36//32 74//31
f  36//32 76//33 75//32
f  36//32 37//34 76//33
f  37//34 77//35 76//33
f  37//34 38//35 77//35
f  77//36 39//36 78//36
f  38//36 39//36 77//36
f  78//37 40//37 79//37
f  39//37 40//37 78//37
f  79//38 41//39 80//40
f  40//38 41//39 79//38
f  80//40 42//41 81//42
f  41//39 42//41 80//40
f  81//42 43//43 82//43
f  42//41 43//43 81//42
f  82//44 44//44 83//45
f  43//46 44//44 82//44
f  44//47 84//48 83//49
f  44//47 45//50 84//48
f  45//50 85//51 84//48
f  45//50 46//52 85//51
f  46//52 86//53 85//51
f  46//52 47//53 86//53
f  47//53 87//54 86//53
f  47//53 48//55 87//54
f  48//55 88//56 87//54
f  48//55 49//57 88//56
f  49//57 89//58 88//56
f  49//57 50//59 89//58
f  50//59 90//60 89//58
f  50//59 51//60 90//60
f  90//17 52//17 91//17
f  51//17 52//17 90//17
f  52//61 92//61 91//61
f  52//61 53//61 92//61
f  53//62 93//63 92//62
f  53//62 54//63 93//63
f  93//63 55//4 94//2
f  54//63 55//4 93//63
f  43//64 45//65 44//66
f  43//64 46//67 45//65
f  42//68 46//67 43//64
f  27//69 26//70 28//71
f  26//70 25//72 28//71
f  42//68 47//73 46//67
f  41//74 47//73 42//68
f  31//75 33//76 32//77
f  28//71 25//72 29//78
f  29//78 31//75 30//1
f  41//74 40//79 47//73
f  25//72 31//75 29//78
f  25//72 33//76 31//75
f  51//80 53//1 52//1
f  18//1 17//81 19//82
f  17//81 55//83 19//82
f  19//82 55//83 20//84
f  20//84 55//83 21//85
f  21//85 55//83 22//86
f  22//86 55//83 23//87
f  23//87 55//83 24//88
f  55//83 54//89 24//88
f  24//88 33//76 25//72
f  24//88 54//89 33//76
f  35//1 34//90 36//1
f  40//79 48//91 47//73
f  40//79 49//92 48//91
f  51//80 50//93 49//92
f  51//80 49//92 40//79
f  34//90 37//1 36//1
f  34//90 38//94 37//1
f  54//89 53//1 51//80
f  54//89 51//80 40//79
f  54//89 34//90 33//76
f  54//89 38//94 34//90
f  38//94 54//89 39//95
f  39//95 54//89 40//79
f  84//96 82//97 83//98
f  85//99 82//97 84//96
f  85//99 81//100 82//97
f  65//101 66//102 67//103
f  64//104 65//101 67//103
f  86//105 81//100 85//99
f  86//105 80//106 81//100
f  72//107 70//108 71//109
f  64//104 67//103 68//110
f  70//108 68//110 69//102
f  79//111 80//106 86//105
f  70//108 64//104 68//110
f  72//107 64//104 70//108
f  92//112 90//113 91//114
f  56//115 57//116 58//117
f  94//118 56//115 58//117
f  94//118 58//117 59//119
f  94//118 59//119 60//120
f  94//118 60//120 61//121
f  94//118 61//121 62//122
f  94//118 62//122 63//123
f  93//124 94//118 63//123
f  72//107 63//123 64//104
f  93//124 63//123 72//107
f  73//125 74//102 75//102
f  87//126 79//111 86//105
f  88//127 79//111 87//126
f  89//128 90//113 88//127
f  88//127 90//113 79//111
f  76//129 73//125 75//102
f  77//130 73//125 76//129
f  92//112 93//124 90//113
f  90//113 93//124 79//111
f  73//125 93//124 72//107
f  77//130 93//124 73//125
f  93//124 78//131 79//111
f  93//124 77//130 78//131
