# 
# Wavefront OBJ file
# Converted by the DEEP Exploration 3.5.10.1242
# Right Hemisphere, LTD
# http://www.righthemisphere.com/
# 
# object Object #0
g Object__0
v 2.4785 -0.0496619 -1.9985
v 2.48 -0.0496619 -1.9985
v 2.48 -0.0496619 -2
v 2.4785 -0.0496619 -2
v -2.48 -0.0496619 -1.9985
v -2.4785 -0.0496619 -1.9985
v -2.4785 -0.0496619 -2
v -2.48 -0.0496619 -2
v 2.4785 -0.0496617 1.9985
v 2.48 -0.0496617 1.9985
v 2.48 -0.0496617 2
v 2.4785 -0.0496617 2
v -2.48 -0.0496617 1.9985
v -2.4785 -0.0496617 1.9985
v -2.4785 -0.0496617 2
v -2.48 -0.0496617 2
v 0.26 0.0496618 -0.275
v 0.28 0.0496618 -0.39
v 0.28 0.0496618 -0.49
v 0.46 0.0496618 -0.59
v 0.595 0.0496618 -0.565
v 0.755 0.0496618 -0.585
v 0.795 0.0496618 -0.55
v 0.86 0.0496618 -0.545
v 0.875 0.0496618 -0.49
v 0.58 0.0496618 -0.395
v 0.545 0.0496618 -0.365
v 0.41 0.0496618 -0.295
v 0.26 0.0296618 -0.275
v 0.28 0.0296618 -0.39
v 0.28 0.0296618 -0.49
v 0.46 0.0296618 -0.59
v 0.595 0.0296618 -0.565
v 0.755 0.0296618 -0.585
v 0.795 0.0296618 -0.55
v 0.86 0.0296618 -0.545
v 0.875 0.0296618 -0.49
v 0.58 0.0296618 -0.395
v 0.545 0.0296618 -0.365
v 0.41 0.0296618 -0.295
# 40 verticies
vn 0 1 0
vn 0.24479 0 0.969576
vn 0.132164 0 0.991228
vn 0.355642 0 0.934622
vn -0.985212 0 -0.171341
vn -0.993411 0 -0.114605
vn -0.998357 0 -0.0573024
vn -1 0 0
vn -0.485643 0 -0.874157
vn 0.182089 0 -0.983282
vn 0.0293736 0 -0.999569
vn 0.0293736 0 -0.999569
vn -0.124035 0 -0.992278
vn 0.658504 0 -0.752577
vn 0.0766964 0 -0.997055
vn 0.964764 0 -0.263117
vn 0.306531 0 0.951861
vn 0.428763 0 0.903417
vn 0.545554 0 0.838076
vn 0.590776 0 0.806836
vn 0.526909 0 0.849922
vn -8.2447e-009 1 -6.71449e-008
vn -9.01089e-009 1 -5.71809e-008
vn -8.84341e-009 1 -6.63257e-008
vn 5.41184e-008 1 2.59604e-009
vn -8.12262e-009 1 -4.23847e-008
vn 2.09409e-009 1 -5.04616e-008
vn 1.33995e-009 1 -5.55444e-008
vn 1.02047e-007 1 5.08345e-008
vn -7.91206e-009 1 -2.69975e-008
vn 4.41734e-009 1 -5.88979e-009
vn 1.07395e-007 1 6.61353e-008
vn -4.61401e-009 -1 4.32709e-008
vn -5.16381e-009 -1 4.62798e-008
vn -6.07986e-009 -1 4.75334e-008
vn 3.07565e-008 -1 7.2228e-008
vn -5.08336e-009 -1 4.05791e-008
vn -2.94342e-011 -1 4.14032e-008
vn -3.08403e-010 -1 3.71758e-008
vn 6.47986e-008 -1 1.06391e-007
vn 6.22474e-010 -1 5.84309e-008
vn -5.32184e-009 -1 6.91839e-008
vn -8.41374e-011 -1 6.22003e-008
vn 6.89198e-008 -1 1.1298e-007
# 44 normals
f  2//1 4//1 1//1
f  3//1 4//1 2//1
f  8//1 5//1 6//1
f  7//1 8//1 6//1
f  10//1 9//1 12//1
f  11//1 10//1 12//1
f  14//1 13//1 16//1
f  14//1 16//1 15//1
f  40//2 17//3 29//3
f  28//4 17//3 40//2
f  17//5 30//6 29//5
f  17//5 18//7 30//6
f  18//7 31//8 30//6
f  18//7 19//8 31//8
f  19//9 32//9 31//9
f  19//9 20//9 32//9
f  32//10 21//11 33//12
f  20//10 21//11 32//10
f  21//11 34//13 33//12
f  21//11 22//13 34//13
f  34//14 23//14 35//14
f  22//14 23//14 34//14
f  35//15 24//15 36//15
f  23//15 24//15 35//15
f  36//16 25//16 37//16
f  24//16 25//16 36//16
f  37//17 26//18 38//19
f  25//17 26//18 37//17
f  38//19 27//20 39//21
f  26//18 27//20 38//19
f  39//21 28//4 40//2
f  27//20 28//4 39//21
f  28//22 18//23 17//24
f  27//25 18//23 28//22
f  19//26 18//23 27//25
f  20//27 19//26 27//25
f  21//28 20//27 27//25
f  22//29 21//28 27//25
f  24//1 23//30 25//31
f  25//31 23//30 26//32
f  23//30 22//29 26//32
f  26//32 22//29 27//25
f  30//33 40//34 29//35
f  30//33 39//36 40//34
f  30//33 31//37 39//36
f  31//37 32//38 39//36
f  32//38 33//39 39//36
f  33//39 34//40 39//36
f  35//41 36//42 37//43
f  35//41 37//43 38//44
f  34//40 38//44 39//36
f  34//40 35//41 38//44
