# 
# Wavefront OBJ file
# Converted by the DEEP Exploration 3.5.10.1242
# Right Hemisphere, LTD
# http://www.righthemisphere.com/
# 
# object Object #0
g Object__0
v 2.4785 -0.0496619 -1.9985
v 2.48 -0.0496619 -1.9985
v 2.48 -0.0496619 -2
v 2.4785 -0.0496619 -2
v -2.48 -0.0496619 -1.9985
v -2.4785 -0.0496619 -1.9985
v -2.4785 -0.0496619 -2
v -2.48 -0.0496619 -2
v 2.4785 -0.0496617 1.9985
v 2.48 -0.0496617 1.9985
v 2.48 -0.0496617 2
v 2.4785 -0.0496617 2
v -2.48 -0.0496617 1.9985
v -2.4785 -0.0496617 1.9985
v -2.4785 -0.0496617 2
v -2.48 -0.0496617 2
v -0.525 0.0496618 -1.205
v -0.37 0.0496618 -1.24
v -0.255 0.0496618 -1.31
v -0.13 0.0496618 -1.24
v -0.14 0.0496618 -1.185
v -0.155 0.0496618 -1.16
v -0.185 0.0496618 -0.97
v -0.235 0.0496618 -0.935
v -0.295 0.0496618 -0.91
v -0.33 0.0496618 -0.915
v -0.42 0.0496618 -0.96
v -0.475 0.0496618 -0.985
v -0.51 0.0496618 -1.025
v -0.535 0.0496618 -1.05
v -0.55 0.0496618 -1.085
v -0.56 0.0496618 -1.155
v -0.525 0.0296618 -1.205
v -0.37 0.0296618 -1.24
v -0.255 0.0296618 -1.31
v -0.13 0.0296618 -1.24
v -0.14 0.0296618 -1.185
v -0.155 0.0296618 -1.16
v -0.185 0.0296618 -0.97
v -0.235 0.0296618 -0.935
v -0.295 0.0296618 -0.91
v -0.33 0.0296618 -0.915
v -0.42 0.0296618 -0.96
v -0.475 0.0296618 -0.985
v -0.51 0.0296618 -1.025
v -0.535 0.0296618 -1.05
v -0.55 0.0296618 -1.085
v -0.56 0.0296618 -1.155
# 48 verticies
vn 0 1 0
vn -0.819232 0 -0.573462
vn -0.220261 0 -0.975441
vn -0.32394 0 -0.946078
vn -0.425016 0 -0.905186
vn -0.519947 0 -0.854199
vn 0.488603 0 -0.872506
vn 0.98387 0 0.178885
vn 0.955497 0 0.295002
vn 0.912756 0 0.408506
vn 0.915846 0 0.40153
vn 0.959989 0 0.280039
vn 0.987763 0 0.155963
vn 0.573463 0 0.819232
vn 0.513169 0 0.858288
vn 0.449892 0 0.893083
vn 0.384615 0 0.923077
vn -0.141421 0 0.98995
vn -0.246175 0 0.969225
vn -0.349289 0 0.937015
vn -0.436143 0 0.899877
vn -0.425005 0 0.905191
vn -0.537477 0 0.843278
vn -0.652706 0 0.757611
vn -0.737783 0 0.675038
vn -0.722619 0 0.691247
vn -0.790451 0 0.612525
vn -0.862282 0 0.506429
vn -0.950034 0 0.312147
vn -0.973818 0 0.227331
vn -0.98995 0 0.141421
vn 5.95486e-009 1 -2.51302e-008
vn -2.64357e-008 1 -5.05385e-008
vn -2.2638e-008 1 -3.57603e-008
vn -6.31406e-008 1 -4.41984e-008
vn 2.73669e-008 1 -7.30344e-008
vn -4.62906e-008 1 -6.61294e-008
vn -3.34396e-008 1 -5.67192e-008
vn -3.5293e-008 1 -6.22192e-008
vn -9.1911e-009 1 -4.98505e-008
vn 1.69893e-008 1 -5.05373e-008
vn -1.12462e-007 1 9.84041e-008
vn -2.20373e-008 1 -8.46735e-009
vn 1.86263e-007 1 -1.86263e-007
vn 1.13595e-008 1 -3.75019e-008
vn -1.61969e-007 1 -9.71813e-008
vn -5.25433e-010 -1 4.91748e-008
vn 0 -1 5.32185e-008
vn -1.62795e-008 -1 3.94043e-008
vn 1.89423e-008 -1 5.05124e-008
vn 8.68299e-009 -1 4.83751e-008
vn 2.85416e-008 -1 2.4669e-008
vn -1.79036e-008 -1 3.92555e-008
vn -1.10215e-008 -1 3.74734e-008
vn -1.36092e-008 -1 3.65533e-008
vn -1.1055e-008 -1 3.85127e-008
vn -3.51444e-008 -1 7.73175e-008
vn 2.13866e-008 -1 2.27351e-008
vn -4.22596e-009 -1 5.43129e-008
vn 1.30384e-007 -1 -5.58788e-008
vn 3.89025e-009 -1 4.83946e-008
vn -9.71816e-008 -1 1.61969e-008
# 62 normals
f  2//1 4//1 1//1
f  3//1 4//1 2//1
f  8//1 5//1 6//1
f  7//1 8//1 6//1
f  10//1 9//1 12//1
f  11//1 10//1 12//1
f  14//1 13//1 16//1
f  14//1 16//1 15//1
f  32//2 33//2 48//2
f  32//2 17//2 33//2
f  17//3 34//4 33//3
f  17//3 18//5 34//4
f  18//5 35//6 34//4
f  18//5 19//6 35//6
f  35//7 20//7 36//7
f  19//7 20//7 35//7
f  36//8 21//9 37//10
f  20//8 21//9 36//8
f  37//10 22//11 38//12
f  21//9 22//11 37//10
f  38//12 23//13 39//13
f  22//11 23//13 38//12
f  39//14 24//15 40//16
f  23//14 24//15 39//14
f  40//16 25//17 41//17
f  24//15 25//17 40//16
f  25//18 42//19 41//18
f  25//18 26//20 42//19
f  26//20 43//21 42//19
f  26//20 27//22 43//21
f  27//22 44//23 43//21
f  27//22 28//24 44//23
f  28//24 45//25 44//23
f  28//24 29//26 45//25
f  29//26 46//27 45//25
f  29//26 30//28 46//27
f  30//28 47//29 46//27
f  30//28 31//30 47//29
f  31//30 48//31 47//29
f  31//30 32//31 48//31
f  19//1 18//32 20//33
f  17//34 32//35 31//36
f  18//32 17//34 31//36
f  20//33 18//32 31//36
f  23//37 22//38 24//39
f  24//39 22//38 25//40
f  29//41 28//42 27//43
f  31//36 30//44 29//41
f  20//33 31//36 29//41
f  20//33 29//41 27//43
f  22//38 26//45 25//40
f  22//38 27//43 26//45
f  21//46 20//33 22//38
f  22//38 20//33 27//43
f  34//47 35//48 36//49
f  48//50 33//51 47//52
f  33//51 34//47 47//52
f  34//47 36//49 47//52
f  38//53 39//54 40//55
f  38//53 40//55 41//56
f  44//57 45//58 43//59
f  46//60 47//52 45//58
f  47//52 36//49 45//58
f  45//58 36//49 43//59
f  42//61 38//53 41//56
f  43//59 38//53 42//61
f  36//49 38//53 43//59
f  36//49 37//62 38//53
