# 
# Wavefront OBJ file
# Converted by the DEEP Exploration 3.5.10.1242
# Right Hemisphere, LTD
# http://www.righthemisphere.com/
# 
# object Object #0
g Object__0
v 2.4785 -0.0496619 -1.9985
v 2.48 -0.0496619 -1.9985
v 2.48 -0.0496619 -2
v 2.4785 -0.0496619 -2
v -2.48 -0.0496619 -1.9985
v -2.4785 -0.0496619 -1.9985
v -2.4785 -0.0496619 -2
v -2.48 -0.0496619 -2
v 2.4785 -0.0496617 1.9985
v 2.48 -0.0496617 1.9985
v 2.48 -0.0496617 2
v 2.4785 -0.0496617 2
v -2.48 -0.0496617 1.9985
v -2.4785 -0.0496617 1.9985
v -2.4785 -0.0496617 2
v -2.48 -0.0496617 2
v -0.0700001 0.0496618 -1.815
v -0.0400001 0.0496618 -1.725
v -0.0350001 0.0496618 -1.68
v -0.0150001 0.0496618 -1.605
v -0.0100001 0.0496618 -1.53
v 0.0199999 0.0496618 -1.435
v 0.0449999 0.0496618 -1.315
v 0.0199999 0.0496618 -1.28
v -0.0300001 0.0496618 -1.285
v -0.0750001 0.0496618 -1.265
v -0.135 0.0496618 -1.265
v -0.25 0.0496618 -1.335
v -0.375 0.0496618 -1.26
v -0.535 0.0496618 -1.22
v -0.565 0.0496618 -1.265
v -0.53 0.0496618 -1.3
v -0.53 0.0496618 -1.375
v -0.56 0.0496618 -1.41
v -0.56 0.0496618 -1.45
v -0.605 0.0496618 -1.52
v -0.57 0.0496618 -1.545
v -0.535 0.0496618 -1.54
v -0.44 0.0496618 -1.585
v -0.405 0.0496618 -1.575
v -0.36 0.0496618 -1.53
v -0.27 0.0496618 -1.61
v -0.17 0.0496618 -1.765
v -0.11 0.0496618 -1.805
v -0.0700001 0.0296617 -1.815
v -0.0400001 0.0296618 -1.725
v -0.0350001 0.0296618 -1.68
v -0.0150001 0.0296618 -1.605
v -0.0100001 0.0296618 -1.53
v 0.0199999 0.0296618 -1.435
v 0.0449999 0.0296618 -1.315
v 0.0199999 0.0296618 -1.28
v -0.0300001 0.0296618 -1.285
v -0.0750001 0.0296618 -1.265
v -0.135 0.0296618 -1.265
v -0.25 0.0296618 -1.335
v -0.375 0.0296618 -1.26
v -0.535 0.0296618 -1.22
v -0.565 0.0296618 -1.265
v -0.53 0.0296618 -1.3
v -0.53 0.0296618 -1.375
v -0.56 0.0296618 -1.41
v -0.56 0.0296618 -1.45
v -0.605 0.0296618 -1.52
v -0.57 0.0296618 -1.545
v -0.535 0.0296618 -1.54
v -0.44 0.0296618 -1.585
v -0.405 0.0296618 -1.575
v -0.36 0.0296618 -1.53
v -0.27 0.0296618 -1.61
v -0.17 0.0296618 -1.765
v -0.11 0.0296617 -1.805
# 72 verticies
vn 0 1 0
vn -0.351168 0 -0.936312
vn -0.242538 0 -0.970142
vn -0.456596 0 -0.889674
vn 0.948683 0 -0.316228
vn 0.96854 0 -0.24886
vn 0.983681 0 -0.17992
vn 0.987132 0 -0.159908
vn 0.977893 0 -0.209108
vn 0.980851 0 -0.194762
vn 0.991411 0 -0.13078
vn 0.989336 0 -0.145648
vn 0.974508 0 -0.224353
vn 0.963129 0 -0.269041
vn 0.971604 0 -0.236612
vn 0.97898 0 -0.203954
vn 0.813734 0 0.581237
vn -0.0995036 0 0.995037
vn 0.406138 0 0.913812
vn 0.207591 0 0.978216
vn 0 0 1
vn -0.519947 0 0.854198
vn 0.514496 0 0.857493
vn 0.427983 0 0.903787
vn 0.336444 0 0.941703
vn 0.242535 0 0.970143
vn -0.83205 0 0.5547
vn -0.707106 0 -0.707107
vn -1 0 0
vn -0.759256 0 0.650792
vn -0.841178 0 0.540758
vn -0.581238 0 -0.813734
vn 0.141421 0 -0.98995
vn -0.428087 0 -0.903738
vn 0.274721 0 -0.961524
vn 0.707108 0 -0.707106
vn -0.664364 0 -0.747409
vn -0.728953 0 -0.684564
vn -0.788079 0 -0.615574
vn -0.7592 0 -0.650858
vn -0.662199 0 -0.749328
vn -8.34201e-009 1 -4.83894e-008
vn -4.96705e-008 1 -4.96706e-008
vn -1.89221e-008 1 -4.77488e-008
vn 1.01252e-008 1 -4.52053e-008
vn -1.01817e-008 1 -3.81419e-008
vn -2.6051e-008 1 -3.64714e-008
vn -2.35361e-008 1 -3.25575e-008
vn -9.55212e-009 1 -3.82081e-008
vn -1.45795e-008 1 -3.38091e-008
vn -6.34593e-009 1 -3.12139e-008
vn -1.5588e-008 1 -4.24713e-008
vn 9.71445e-010 1 -4.14462e-008
vn -1.14625e-008 1 -2.86561e-008
vn -3.91183e-009 1 -3.59235e-008
vn -3.40778e-009 1 -5.08065e-008
vn 1.41325e-008 1 -3.74665e-008
vn -1.88362e-008 1 -3.82641e-008
vn -6.82138e-009 1 -3.68447e-008
vn -2.9629e-008 1 -1.42901e-009
vn -1.24176e-007 1 0
vn 5.59979e-009 1 -4.65585e-008
vn 8.16175e-009 1 -2.58183e-008
vn 9.77128e-010 1 -4.98336e-008
vn -4.78117e-008 1 1.26258e-008
vn 0 1 -5.32184e-008
vn -5.60194e-009 1 -3.92136e-008
vn -1.49011e-007 1 1.49011e-007
vn -7.09579e-009 -1 4.61227e-008
vn -4.95939e-010 -1 3.91747e-008
vn -3.5479e-009 -1 4.63444e-008
vn 2.70513e-009 -1 3.34719e-008
vn 2.6051e-008 -1 3.64714e-008
vn 1.01817e-008 -1 3.81419e-008
vn 6.90952e-009 -1 4.22687e-008
vn -1.4328e-008 -1 5.91031e-008
vn -2.86559e-008 -1 7.16401e-008
vn -5.42352e-009 -1 4.92294e-008
vn 1.34975e-009 -1 4.21795e-008
vn 8.99646e-010 -1 4.08642e-008
vn -3.43486e-009 -1 4.2202e-008
vn -5.34909e-009 -1 4.87153e-008
vn -4.96704e-009 -1 4.96704e-008
vn -1.09203e-008 -1 4.60305e-008
vn -2.84371e-009 -1 4.06022e-008
vn 4.51959e-009 -1 3.83987e-008
vn -1.65579e-009 -1 3.64286e-008
vn -5.08775e-009 -1 4.94962e-008
vn 7.76118e-009 -1 4.6566e-008
vn -5.59979e-009 -1 4.65585e-008
vn 1.88639e-009 -1 3.29421e-008
vn -7.32365e-010 -1 3.73507e-008
vn -8.82096e-009 -1 5.24875e-008
vn 0 -1 2.66092e-008
vn 2.80097e-009 -1 1.96068e-008
vn -1.65568e-008 -1 5.79488e-008
# 96 normals
f  2//1 4//1 1//1
f  3//1 4//1 2//1
f  8//1 5//1 6//1
f  7//1 8//1 6//1
f  10//1 9//1 12//1
f  11//1 10//1 12//1
f  14//1 13//1 16//1
f  14//1 16//1 15//1
f  44//2 45//3 72//4
f  44//2 17//3 45//3
f  45//5 18//6 46//7
f  17//5 18//6 45//5
f  46//7 19//8 47//9
f  18//6 19//8 46//7
f  47//9 20//10 48//11
f  19//8 20//10 47//9
f  48//11 21//12 49//13
f  20//10 21//12 48//11
f  49//13 22//14 50//15
f  21//12 22//14 49//13
f  50//15 23//16 51//16
f  22//14 23//16 50//15
f  51//17 24//17 52//17
f  23//17 24//17 51//17
f  24//18 53//18 52//18
f  24//18 25//18 53//18
f  53//19 26//20 54//20
f  25//19 26//20 53//19
f  26//20 55//21 54//20
f  26//20 27//21 55//21
f  27//22 56//22 55//22
f  27//22 28//22 56//22
f  56//23 29//24 57//25
f  28//23 29//24 56//23
f  57//25 30//26 58//26
f  29//24 30//26 57//25
f  30//27 59//27 58//27
f  30//27 31//27 59//27
f  31//28 60//28 59//28
f  31//28 32//28 60//28
f  32//29 61//29 60//29
f  32//29 33//29 61//29
f  33//30 62//30 61//30
f  33//30 34//30 62//30
f  34//29 63//29 62//29
f  34//29 35//29 63//29
f  35//31 64//31 63//31
f  35//31 36//31 64//31
f  36//32 65//32 64//32
f  36//32 37//32 65//32
f  65//33 38//33 66//33
f  37//33 38//33 65//33
f  38//34 67//34 66//34
f  38//34 39//34 67//34
f  67//35 40//35 68//35
f  39//35 40//35 67//35
f  68//36 41//36 69//36
f  40//36 41//36 68//36
f  41//37 70//38 69//37
f  41//37 42//39 70//38
f  42//39 71//40 70//38
f  42//39 43//41 71//40
f  43//41 72//4 71//40
f  43//41 44//2 72//4
f  32//42 31//43 30//44
f  29//45 32//42 30//44
f  37//46 36//47 35//48
f  17//49 44//50 18//51
f  44//50 43//52 18//51
f  18//51 43//52 42//53
f  23//54 25//55 24//1
f  23//54 22//56 25//55
f  38//57 37//46 35//48
f  33//58 32//42 29//45
f  28//59 33//58 29//45
f  39//60 38//57 35//48
f  35//48 34//61 33//58
f  39//60 35//48 33//58
f  39//60 33//58 28//59
f  22//56 21//62 25//55
f  19//63 18//51 42//53
f  19//63 42//53 20//64
f  20//64 42//53 21//62
f  21//62 42//53 25//55
f  42//53 41//65 25//55
f  28//59 27//66 26//67
f  25//55 28//59 26//67
f  41//65 28//59 25//55
f  41//65 39//60 28//59
f  40//68 39//60 41//65
f  59//69 60//70 58//71
f  60//70 57//72 58//71
f  64//73 65//74 63//75
f  72//76 45//77 46//78
f  71//79 72//76 46//78
f  71//79 46//78 70//80
f  53//81 51//82 52//83
f  50//84 51//82 53//81
f  65//74 66//85 63//75
f  60//70 61//86 57//72
f  61//86 56//87 57//72
f  66//85 67//88 63//75
f  62//89 63//75 61//86
f  63//75 67//88 61//86
f  61//86 67//88 56//87
f  49//90 50//84 53//81
f  46//78 47//91 70//80
f  70//80 47//91 48//92
f  70//80 48//92 49//90
f  70//80 49//90 53//81
f  69//93 70//80 53//81
f  55//94 56//87 54//95
f  56//87 53//81 54//95
f  67//88 68//96 69//93
f  67//88 69//93 56//87
f  56//87 69//93 53//81
