# 
# Wavefront OBJ file
# Converted by the DEEP Exploration 3.5.10.1242
# Right Hemisphere, LTD
# http://www.righthemisphere.com/
# 
# object Object #0
g Object__0
v 2.4785 -0.0496619 -1.9985
v 2.48 -0.0496619 -1.9985
v 2.48 -0.0496619 -2
v 2.4785 -0.0496619 -2
v -2.48 -0.0496619 -1.9985
v -2.4785 -0.0496619 -1.9985
v -2.4785 -0.0496619 -2
v -2.48 -0.0496619 -2
v 2.4785 -0.0496617 1.9985
v 2.48 -0.0496617 1.9985
v 2.48 -0.0496617 2
v 2.4785 -0.0496617 2
v -2.48 -0.0496617 1.9985
v -2.4785 -0.0496617 1.9985
v -2.4785 -0.0496617 2
v -2.48 -0.0496617 2
v -0.4 0.0496618 -0.57
v -0.46 0.0496618 -0.575
v -0.545 0.0496618 -0.765
v -0.635 0.0496618 -0.8
v -0.605 0.0496618 -0.83
v -0.605 0.0496618 -0.85
v -0.645 0.0496618 -0.875
v -0.61 0.0496618 -0.92
v -0.62 0.0496618 -0.955
v -0.605 0.0496618 -1.01
v -0.555 0.0496618 -0.99
v -0.54 0.0496618 -1.03
v -0.485 0.0496618 -0.965
v -0.42 0.0496618 -0.93
v -0.34 0.0496618 -0.89
v -0.285 0.0496618 -0.885
v -0.325 0.0496618 -0.815
v -0.38 0.0496618 -0.755
v -0.4 0.0296618 -0.57
v -0.46 0.0296618 -0.575
v -0.545 0.0296618 -0.765
v -0.635 0.0296618 -0.8
v -0.605 0.0296618 -0.83
v -0.605 0.0296618 -0.85
v -0.645 0.0296618 -0.875
v -0.61 0.0296618 -0.92
v -0.62 0.0296618 -0.955
v -0.605 0.0296618 -1.01
v -0.555 0.0296618 -0.99
v -0.54 0.0296618 -1.03
v -0.485 0.0296618 -0.965
v -0.42 0.0296618 -0.93
v -0.34 0.0296618 -0.89
v -0.285 0.0296618 -0.885
v -0.325 0.0296618 -0.815
v -0.38 0.0296618 -0.755
# 52 verticies
vn 0 1 0
vn 0.994207 0 0.107482
vn -0.0830454 0 0.996546
vn -0.912818 0 0.408366
vn -0.362447 0 0.932005
vn -0.707107 0 -0.707107
vn -1 0 0
vn -0.529999 0 0.847998
vn -0.789353 0 -0.61394
vn -0.961524 0 0.274721
vn -0.964764 0 -0.263117
vn 0.37139 0 -0.928477
vn -0.936329 0 -0.351123
vn 0.763386 0 -0.645942
vn 0.677479 0 -0.735542
vn 0.579529 0 -0.814952
vn 0.465185 0 -0.885213
vn 0.456222 0 -0.889866
vn 0.333456 0 -0.942766
vn 0.212704 0 -0.977117
vn 0.0905356 0 -0.995893
vn 0.868243 0 0.496139
vn 0.829114 0 0.55908
vn 0.785175 0 0.619274
vn 0.737154 0 0.675725
vn -4.69328e-008 1 -1.75998e-008
vn 1.12663e-010 1 -4.17677e-008
vn -2.02896e-008 1 -4.11084e-008
vn -1.36594e-008 1 -4.47035e-008
vn 3.47694e-008 1 -8.9407e-008
vn -5.52526e-009 1 -4.38748e-008
vn 2.44281e-008 1 -6.10703e-008
vn 3.70493e-008 1 -3.7631e-008
vn 9.7732e-009 1 -4.89975e-008
vn 3.48158e-008 1 -5.57053e-008
vn -5.07286e-009 1 -3.61749e-008
vn -5.2673e-009 1 -3.32418e-008
vn 9.02027e-009 1 -1.57238e-008
vn 2.78007e-008 1 -5.56014e-009
vn 6.1959e-009 1 -3.60185e-008
vn 2.88448e-009 1 -4.01101e-008
vn 3.32615e-009 1 -3.99138e-008
vn -9.44053e-009 -1 3.47928e-008
vn -1.46665e-008 -1 4.10662e-008
vn -4.08532e-009 -1 4.12556e-008
vn 1.49012e-008 -1 1.49012e-008
vn -2.74739e-008 -1 5.40166e-008
vn -1.51941e-008 -1 5.10505e-008
vn 9.16058e-009 -1 7.02309e-008
vn -7.83734e-009 -1 3.86633e-008
vn 1.39264e-008 -1 5.22237e-008
vn -3.54477e-009 -1 3.3255e-008
vn -9.08702e-009 -1 5.62088e-008
vn 7.59286e-010 -1 4.5083e-008
vn 4.77816e-009 -1 4.63282e-008
vn -4.59912e-009 -1 5.05904e-008
vn 6.04064e-009 -1 4.84624e-008
vn 1.22946e-009 -1 4.62315e-008
vn -3.6056e-009 -1 5.01377e-008
vn -4.15769e-009 -1 4.98923e-008
# 60 normals
f  2//1 4//1 1//1
f  3//1 4//1 2//1
f  8//1 5//1 6//1
f  7//1 8//1 6//1
f  10//1 9//1 12//1
f  11//1 10//1 12//1
f  14//1 13//1 16//1
f  14//1 16//1 15//1
f  52//2 17//2 35//2
f  34//2 17//2 52//2
f  17//3 36//3 35//3
f  17//3 18//3 36//3
f  18//4 37//4 36//4
f  18//4 19//4 37//4
f  19//5 38//5 37//5
f  19//5 20//5 38//5
f  20//6 39//6 38//6
f  20//6 21//6 39//6
f  21//7 40//7 39//7
f  21//7 22//7 40//7
f  22//8 41//8 40//8
f  22//8 23//8 41//8
f  23//9 42//9 41//9
f  23//9 24//9 42//9
f  24//10 43//10 42//10
f  24//10 25//10 43//10
f  25//11 44//11 43//11
f  25//11 26//11 44//11
f  44//12 27//12 45//12
f  26//12 27//12 44//12
f  27//13 46//13 45//13
f  27//13 28//13 46//13
f  46//14 29//15 47//16
f  28//14 29//15 46//14
f  47//16 30//17 48//18
f  29//15 30//17 47//16
f  48//18 31//19 49//20
f  30//17 31//19 48//18
f  49//20 32//21 50//21
f  31//19 32//21 49//20
f  50//22 33//23 51//24
f  32//22 33//23 50//22
f  51//24 34//25 52//25
f  33//23 34//25 51//24
f  28//26 27//27 29//28
f  21//29 20//30 19//31
f  27//27 26//32 25//33
f  24//34 23//35 22//36
f  27//27 25//33 24//34
f  29//28 27//27 24//34
f  29//28 24//34 22//36
f  30//37 29//28 22//36
f  32//1 31//38 33//39
f  33//39 31//38 34//40
f  31//38 30//37 34//40
f  30//37 22//36 34//40
f  34//40 18//41 17//42
f  34//40 19//31 18//41
f  22//36 21//29 19//31
f  22//36 19//31 34//40
f  45//43 46//44 47//45
f  38//46 39//47 37//48
f  44//49 45//43 43//50
f  41//51 42//52 40//53
f  43//50 45//43 42//52
f  45//43 47//45 42//52
f  42//52 47//45 40//53
f  47//45 48//54 40//53
f  49//55 50//56 51//57
f  49//55 51//57 52//58
f  48//54 49//55 52//58
f  40//53 48//54 52//58
f  36//59 52//58 35//60
f  37//48 52//58 36//59
f  37//48 40//53 52//58
f  39//47 40//53 37//48
