# 
# Wavefront OBJ file
# Converted by the DEEP Exploration 3.5.10.1242
# Right Hemisphere, LTD
# http://www.righthemisphere.com/
# 
# object Object #0
g Object__0
v 2.4785 -0.0496619 -1.9985
v 2.48 -0.0496619 -1.9985
v 2.48 -0.0496619 -2
v 2.4785 -0.0496619 -2
v -2.48 -0.0496619 -1.9985
v -2.4785 -0.0496619 -1.9985
v -2.4785 -0.0496619 -2
v -2.48 -0.0496619 -2
v 2.4785 -0.0496617 1.9985
v 2.48 -0.0496617 1.9985
v 2.48 -0.0496617 2
v 2.4785 -0.0496617 2
v -2.48 -0.0496617 1.9985
v -2.4785 -0.0496617 1.9985
v -2.4785 -0.0496617 2
v -2.48 -0.0496617 2
v 0.755 0.0496618 -0.605
v 0.595 0.0496618 -0.58
v 0.455 0.0496618 -0.61
v 0.295 0.0496618 -0.52
v 0.255 0.0496618 -0.54
v 0.225 0.0496618 -0.6
v 0.21 0.0496618 -0.78
v 0.225 0.0496618 -0.805
v 0.26 0.0496618 -0.8
v 0.295 0.0496618 -0.875
v 0.37 0.0496618 -0.955
v 0.395 0.0496618 -1.015
v 0.415 0.0496618 -1.04
v 0.455 0.0496618 -1.04
v 0.525 0.0496618 -0.995
v 0.565 0.0496618 -0.99
v 0.665 0.0496618 -0.97
v 0.745 0.0496618 -0.97
v 0.83 0.0496618 -0.86
v 0.9 0.0496618 -0.795
v 0.845 0.0496618 -0.715
v 0.76 0.0496618 -0.67
v 0.755 0.0296618 -0.605
v 0.595 0.0296618 -0.58
v 0.455 0.0296618 -0.61
v 0.295 0.0296618 -0.52
v 0.255 0.0296618 -0.54
v 0.225 0.0296618 -0.6
v 0.21 0.0296618 -0.78
v 0.225 0.0296618 -0.805
v 0.26 0.0296618 -0.8
v 0.295 0.0296618 -0.875
v 0.37 0.0296618 -0.955
v 0.395 0.0296618 -1.015
v 0.415 0.0296618 -1.04
v 0.455 0.0296618 -1.04
v 0.525 0.0296618 -0.995
v 0.565 0.0296618 -0.99
v 0.665 0.0296618 -0.97
v 0.745 0.0296618 -0.97
v 0.83 0.0296618 -0.86
v 0.9 0.0296618 -0.795
v 0.845 0.0296618 -0.715
v 0.76 0.0296618 -0.67
# 60 verticies
vn 0 1 0
vn 0.997055 0 0.0766964
vn 0.154377 0 0.988012
vn -0.0280446 0 0.999607
vn -0.209529 0 0.977802
vn 0.490261 0 0.871576
vn -0.447214 0 0.894427
vn -0.894427 0 0.447214
vn -0.943585 0 0.33113
vn -0.978179 0 0.207764
vn -0.996546 0 0.0830455
vn -0.857493 0 -0.514495
vn 0.141421 0 -0.98995
vn -0.906183 0 -0.422885
vn -0.856813 0 -0.515628
vn -0.79727 0 -0.603624
vn -0.805503 0 -0.592592
vn -0.870947 0 -0.491377
vn -0.88335 0 -0.468715
vn -0.835531 0 -0.549443
vn -0.780869 0 -0.624695
vn 0 0 -1
vn 0.540757 0 -0.841179
vn 0.124035 0 -0.992278
vn 0.148149 0 -0.988965
vn 0.172191 0 -0.985064
vn 0.0985375 0 -0.995133
vn 0.791285 0 -0.611447
vn 0.756615 0 -0.653861
vn 0.719558 0 -0.694432
vn 0.680451 0 -0.732794
vn 0.824042 0 0.566528
vn 0.467887 0 0.883788
vn -6.09041e-009 1 -5.07533e-008
vn -9.06498e-009 1 -4.56519e-008
vn -1.59404e-008 1 -4.97343e-008
vn -6.99267e-009 1 -4.53937e-008
vn 3.1274e-009 1 -3.8882e-008
vn -9.06398e-009 1 -5.80094e-008
vn 2.32624e-010 1 -4.3557e-008
vn 2.9922e-009 1 -1.94493e-008
vn 7.90331e-009 1 -3.69433e-008
vn 1.24144e-008 1 -4.50263e-008
vn 1.29269e-009 1 -3.95327e-008
vn -2.63405e-009 1 -4.32892e-008
vn -8.0114e-009 1 -2.00284e-008
vn 5.44673e-009 1 -5.13098e-008
vn 4.13922e-008 1 -8.27843e-008
vn 1.97209e-008 1 -6.38219e-008
vn 1.22081e-008 1 -3.86893e-008
vn -6.58529e-009 1 -6.93915e-008
vn -9.64717e-009 1 -6.68099e-008
vn -4.76898e-010 -1 4.04091e-008
vn -1.01506e-008 -1 3.95875e-008
vn -5.79174e-009 -1 3.91366e-008
vn 4.72071e-009 -1 4.5764e-008
vn 8.16007e-010 -1 4.35086e-008
vn 9.06398e-009 -1 5.80094e-008
vn 5.51114e-010 -1 4.70425e-008
vn 0 -1 0
vn 5.23215e-009 -1 1.25572e-008
vn 4.9842e-009 -1 2.96909e-008
vn 3.15796e-009 -1 3.86501e-008
vn -1.71892e-009 -1 3.99053e-008
vn -7.95278e-010 -1 4.47844e-008
vn -9.80338e-009 -1 6.86237e-008
vn -2.95339e-009 -1 4.6011e-008
vn -1.49159e-008 -1 5.58424e-008
vn 6.33856e-009 -1 3.6298e-008
vn 4.13921e-008 -1 1.0348e-008
vn 2.16713e-008 -1 2.76038e-008
vn 2.45984e-009 -1 3.57588e-008
vn -5.00961e-009 -1 3.11718e-008
vn -2.96836e-009 -1 3.67553e-008
# 74 normals
f  2//1 4//1 1//1
f  3//1 4//1 2//1
f  8//1 5//1 6//1
f  7//1 8//1 6//1
f  10//1 9//1 12//1
f  11//1 10//1 12//1
f  14//1 13//1 16//1
f  14//1 16//1 15//1
f  60//2 17//2 39//2
f  38//2 17//2 60//2
f  39//3 18//4 40//4
f  17//3 18//4 39//3
f  18//4 41//5 40//4
f  18//4 19//5 41//5
f  41//6 20//6 42//6
f  19//6 20//6 41//6
f  20//7 43//7 42//7
f  20//7 21//7 43//7
f  21//8 44//9 43//8
f  21//8 22//10 44//9
f  22//10 45//11 44//9
f  22//10 23//11 45//11
f  23//12 46//12 45//12
f  23//12 24//12 46//12
f  46//13 25//13 47//13
f  24//13 25//13 46//13
f  25//14 48//15 47//14
f  25//14 26//16 48//15
f  26//16 49//17 48//15
f  26//16 27//18 49//17
f  27//18 50//19 49//17
f  27//18 28//20 50//19
f  28//20 51//21 50//19
f  28//20 29//21 51//21
f  29//22 52//22 51//22
f  29//22 30//22 52//22
f  52//23 31//23 53//23
f  30//23 31//23 52//23
f  53//24 32//25 54//26
f  31//24 32//25 53//24
f  54//26 33//27 55//27
f  32//25 33//27 54//26
f  33//27 56//22 55//27
f  33//27 34//22 56//22
f  56//28 35//29 57//30
f  34//28 35//29 56//28
f  57//30 36//31 58//31
f  35//29 36//31 57//30
f  58//32 37//32 59//32
f  36//32 37//32 58//32
f  59//33 38//33 60//33
f  37//33 38//33 59//33
f  36//34 35//35 37//36
f  37//36 35//35 38//37
f  35//35 34//38 38//37
f  17//39 38//37 18//40
f  38//37 34//38 18//40
f  30//1 29//1 28//41
f  30//1 28//41 31//42
f  31//42 28//41 27//43
f  34//38 19//44 18//40
f  25//45 24//1 23//46
f  25//45 23//46 22//47
f  22//47 21//48 20//49
f  19//44 22//47 20//49
f  19//44 25//45 22//47
f  34//38 25//45 19//44
f  31//42 27//43 26//50
f  31//42 26//50 25//45
f  32//51 31//42 25//45
f  33//52 32//51 25//45
f  34//38 33//52 25//45
f  57//53 58//54 59//55
f  57//53 59//55 60//56
f  56//57 57//53 60//56
f  60//56 39//58 40//59
f  56//57 60//56 40//59
f  51//60 52//61 50//62
f  50//62 52//61 53//63
f  50//62 53//63 49//64
f  41//65 56//57 40//59
f  46//66 47//67 45//68
f  45//68 47//67 44//69
f  43//70 44//69 42//71
f  44//69 41//65 42//71
f  47//67 41//65 44//69
f  47//67 56//57 41//65
f  49//64 53//63 48//72
f  48//72 53//63 47//67
f  53//63 54//73 47//67
f  55//74 56//57 47//67
f  54//73 55//74 47//67
