# 
# Wavefront OBJ file
# Converted by the DEEP Exploration 3.5.10.1242
# Right Hemisphere, LTD
# http://www.righthemisphere.com/
# 
# object Object #0
g Object__0
v 2.4785 -0.0496619 -1.9985
v 2.48 -0.0496619 -1.9985
v 2.48 -0.0496619 -2
v 2.4785 -0.0496619 -2
v -2.48 -0.0496619 -1.9985
v -2.4785 -0.0496619 -1.9985
v -2.4785 -0.0496619 -2
v -2.48 -0.0496619 -2
v 2.4785 -0.0496617 1.9985
v 2.48 -0.0496617 1.9985
v 2.48 -0.0496617 2
v 2.4785 -0.0496617 2
v -2.48 -0.0496617 1.9985
v -2.4785 -0.0496617 1.9985
v -2.4785 -0.0496617 2
v -2.48 -0.0496617 2
v -1.61 0.0496619 0.74
v -1.58 0.0496619 0.73
v -1.49 0.0496619 0.69
v -1.43 0.0496619 0.64
v -1.37 0.0496619 0.57
v -1.28 0.0496619 0.65
v -1.21 0.0496619 0.79
v -1.11 0.0496619 0.84
v -1.08 0.0496619 0.82
v -1.05 0.0496619 0.85
v -0.99 0.0496619 0.87
v -0.98 0.0496619 0.91
v -1.04 0.0496619 0.94
v -1 0.0496619 0.97
v -1.02 0.0496619 1.01
v -1.1 0.0496619 1.03
v -1.13 0.0496619 1.05
v -1.22 0.0496619 1.03
v -1.25 0.0496619 1.06
v -1.29 0.0496619 1
v -1.27 0.0496619 0.98
v -1.26 0.0496619 0.95
v -1.27 0.0496619 0.91
v -1.5 0.0496619 0.86
v -1.6 0.0496619 0.87
v -1.59 0.0496619 0.82
v -1.61 0.0296619 0.74
v -1.58 0.0296619 0.73
v -1.49 0.0296619 0.69
v -1.43 0.0296619 0.64
v -1.37 0.0296619 0.57
v -1.28 0.0296619 0.65
v -1.21 0.0296619 0.79
v -1.11 0.0296619 0.84
v -1.08 0.0296619 0.82
v -1.05 0.0296619 0.85
v -0.99 0.0296619 0.87
v -0.98 0.0296619 0.91
v -1.04 0.0296619 0.94
v -1 0.0296619 0.97
v -1.02 0.0296619 1.01
v -1.1 0.0296619 1.03
v -1.13 0.0296619 1.05
v -1.22 0.0296619 1.03
v -1.25 0.0296619 1.06
v -1.29 0.0296619 1
v -1.27 0.0296619 0.98
v -1.26 0.0296619 0.95
v -1.27 0.0296619 0.91
v -1.5 0.0296619 0.86
v -1.6 0.0296619 0.87
v -1.59 0.0296619 0.82
# 68 verticies
vn 0 1 0
vn -0.970143 0 0.242535
vn -0.316228 0 -0.948683
vn -0.346556 0 -0.938029
vn -0.376558 0 -0.926393
vn -0.488293 0 -0.87268
vn -0.566975 0 -0.823735
vn -0.681998 0 -0.731354
vn -0.721812 0 -0.692089
vn -0.759257 0 -0.650791
vn 0.664364 0 -0.74741
vn 0.753118 0 -0.657885
vn 0.831055 0 -0.55619
vn 0.894427 0 -0.447213
vn 0.447213 0 -0.894427
vn -0.5547 0 -0.83205
vn 0.707106 0 -0.707108
vn 0.316228 0 -0.948683
vn 0.970143 0 -0.242535
vn 0.447214 0 0.894427
vn 0.600001 0 -0.799999
vn 0.894427 0 0.447214
vn 0.242535 0 0.970143
vn 0.351166 0 0.936313
vn 0.456595 0 0.889675
vn 0.5547 0 0.83205
vn -0.21693 0 0.976187
vn 0.707107 0 0.707107
vn -0.83205 0 0.5547
vn -0.707107 0 -0.707107
vn -0.948684 0 -0.316227
vn -0.970143 0 0.242536
vn -0.21243 0 0.977176
vn -0.0571649 0 0.998365
vn -0.0571649 0 0.998365
vn 0.0995036 0 0.995037
vn -0.980581 0 -0.196116
vn 2.91037e-009 1 -5.03497e-008
vn 2.79397e-008 1 -6.51926e-008
vn 5.07995e-008 1 -6.77326e-008
vn 3.56257e-009 1 -5.41196e-008
vn 1.9191e-008 1 -5.87016e-008
vn 8.36185e-009 1 -3.15405e-008
vn 1.06758e-009 1 -2.74761e-008
vn -8.16331e-009 1 -3.87653e-008
vn 3.35612e-009 1 -5.03418e-008
vn -1.374e-009 1 -2.96815e-008
vn 2.59562e-009 1 -3.89343e-008
vn -4.13921e-008 1 -8.27842e-008
vn -1.3532e-008 1 -6.28842e-008
vn -2.01637e-009 1 -2.99515e-008
vn 7.11897e-009 1 -2.83857e-008
vn 1.07848e-008 1 -3.37583e-008
vn 8.56816e-009 1 -4.16439e-008
vn -1.4328e-008 1 -4.29841e-008
vn 3.53231e-009 1 -3.90547e-008
vn 2.79083e-008 1 -4.10785e-008
vn -1.42109e-014 1 -7.45059e-008
vn 5.04835e-009 1 -3.16465e-008
vn -8.31547e-010 1 -3.61719e-008
vn 9.31323e-009 -1 4.03573e-008
vn 2.9104e-009 -1 4.43349e-008
vn 0 -1 6.20882e-008
vn -1.73337e-009 -1 4.55485e-008
vn 8.46652e-009 -1 5.07994e-008
vn 1.04421e-008 -1 5.0235e-008
vn 6.77356e-009 -1 4.08776e-008
vn 8.32865e-010 -1 4.17865e-008
vn 3.80131e-009 -1 3.80132e-008
vn 2.2329e-011 -1 4.75967e-008
vn -7.89912e-010 -1 4.9412e-008
vn -3.35612e-009 -1 5.03418e-008
vn -3.51317e-009 -1 5.26977e-008
vn -1.06134e-008 -1 4.56375e-008
vn -6.89872e-009 -1 4.82908e-008
vn -1.12582e-008 -1 5.3221e-008
vn -5.87052e-009 -1 4.88296e-008
vn -1.24177e-008 -1 7.45058e-008
vn 5.53929e-009 -1 4.1643e-008
vn 1.4328e-008 -1 4.29841e-008
vn 5.08976e-009 -1 4.2791e-008
vn 2.38032e-009 -1 4.12863e-008
vn 8.93696e-009 -1 3.9981e-008
vn 4.17444e-014 -1 3.72529e-008
vn 1.08816e-009 -1 4.9538e-008
vn -8.31549e-010 -1 5.69604e-008
# 86 normals
f  2//1 4//1 1//1
f  3//1 4//1 2//1
f  8//1 5//1 6//1
f  7//1 8//1 6//1
f  10//1 9//1 12//1
f  11//1 10//1 12//1
f  14//1 13//1 16//1
f  14//1 16//1 15//1
f  42//2 43//2 68//2
f  42//2 17//2 43//2
f  17//3 44//4 43//3
f  17//3 18//5 44//4
f  18//5 45//6 44//4
f  18//5 19//7 45//6
f  19//7 46//8 45//6
f  19//7 20//9 46//8
f  20//9 47//10 46//8
f  20//9 21//10 47//10
f  47//11 22//12 48//13
f  21//11 22//12 47//11
f  48//13 23//14 49//14
f  22//12 23//14 48//13
f  49//15 24//15 50//15
f  23//15 24//15 49//15
f  24//16 51//16 50//16
f  24//16 25//16 51//16
f  51//17 26//17 52//17
f  25//17 26//17 51//17
f  52//18 27//18 53//18
f  26//18 27//18 52//18
f  53//19 28//19 54//19
f  27//19 28//19 53//19
f  54//20 29//20 55//20
f  28//20 29//20 54//20
f  55//21 30//21 56//21
f  29//21 30//21 55//21
f  56//22 31//22 57//22
f  30//22 31//22 56//22
f  57//23 32//24 58//25
f  31//23 32//24 57//23
f  58//25 33//26 59//26
f  32//24 33//26 58//25
f  33//27 60//27 59//27
f  33//27 34//27 60//27
f  60//28 35//28 61//28
f  34//28 35//28 60//28
f  35//29 62//29 61//29
f  35//29 36//29 62//29
f  36//30 63//30 62//30
f  36//30 37//30 63//30
f  37//31 64//31 63//31
f  37//31 38//31 64//31
f  38//32 65//32 64//32
f  38//32 39//32 65//32
f  39//33 66//34 65//33
f  39//33 40//35 66//34
f  66//34 41//36 67//36
f  40//35 41//36 66//34
f  41//37 68//37 67//37
f  41//37 42//37 68//37
f  34//38 36//39 35//1
f  30//40 29//41 31//42
f  40//43 42//44 41//1
f  31//42 29//41 32//45
f  21//46 20//47 22//48
f  28//49 27//50 29//41
f  25//1 24//51 26//52
f  27//50 26//52 29//41
f  26//52 24//51 29//41
f  29//41 24//51 32//45
f  22//48 20//47 23//53
f  18//54 17//55 42//44
f  18//54 42//44 40//43
f  19//56 18//54 40//43
f  19//56 40//43 39//57
f  24//51 23//53 32//45
f  37//58 36//39 34//38
f  38//59 37//58 34//38
f  38//59 34//38 33//60
f  20//47 19//56 23//53
f  23//53 19//56 39//57
f  32//45 38//59 33//60
f  23//53 38//59 32//45
f  23//53 39//57 38//59
f  62//61 60//62 61//63
f  55//64 56//65 57//66
f  68//67 66//68 67//69
f  55//64 57//66 58//70
f  46//71 47//72 48//73
f  53//74 54//75 55//64
f  52//76 53//74 55//64
f  50//77 51//78 52//76
f  50//77 52//76 55//64
f  50//77 55//64 58//70
f  46//71 48//73 49//79
f  43//80 44//81 68//67
f  68//67 44//81 66//68
f  44//81 45//82 66//68
f  66//68 45//82 65//83
f  49//79 50//77 58//70
f  62//61 63//84 60//62
f  63//84 64//85 60//62
f  60//62 64//85 59//86
f  45//82 46//71 49//79
f  45//82 49//79 65//83
f  64//85 58//70 59//86
f  65//83 49//79 64//85
f  64//85 49//79 58//70
