# 
# Wavefront OBJ file
# Converted by the DEEP Exploration 3.5.10.1242
# Right Hemisphere, LTD
# http://www.righthemisphere.com/
# 
# object Object #0
g Object__0
v 2.4785 -0.0496619 -1.9985
v 2.48 -0.0496619 -1.9985
v 2.48 -0.0496619 -2
v 2.4785 -0.0496619 -2
v -2.48 -0.0496619 -1.9985
v -2.4785 -0.0496619 -1.9985
v -2.4785 -0.0496619 -2
v -2.48 -0.0496619 -2
v 2.4785 -0.0496617 1.9985
v 2.48 -0.0496617 1.9985
v 2.48 -0.0496617 2
v 2.4785 -0.0496617 2
v -2.48 -0.0496617 1.9985
v -2.4785 -0.0496617 1.9985
v -2.4785 -0.0496617 2
v -2.48 -0.0496617 2
v -1.11 0.0496619 0.81
v -1.18 0.0496619 0.78
v -1.26 0.0496619 0.63
v -1.21 0.0496619 0.56
v -1.21 0.0496618 0.43
v -1.19 0.0496618 0.42
v -1.17 0.0496618 0.39
v -1.16 0.0496618 0.33
v -1.12 0.0496618 0.3
v -1.05 0.0496618 0.28
v -1 0.0496618 0.28
v -0.89 0.0496618 0.31
v -0.83 0.0496618 0.27
v -0.78 0.0496618 0.28
v -0.75 0.0496618 0.28
v -0.92 0.0496618 0.44
v -0.95 0.0496619 0.48
v -0.99 0.0496619 0.51
v -1.01 0.0496619 0.6
v -1.04 0.0496619 0.63
v -1.08 0.0496619 0.76
v -1.08 0.0496619 0.79
v -1.11 0.0296619 0.81
v -1.18 0.0296619 0.78
v -1.26 0.0296619 0.63
v -1.21 0.0296619 0.56
v -1.21 0.0296618 0.43
v -1.19 0.0296618 0.42
v -1.17 0.0296618 0.39
v -1.16 0.0296618 0.33
v -1.12 0.0296618 0.3
v -1.05 0.0296618 0.28
v -1 0.0296618 0.28
v -0.89 0.0296618 0.31
v -0.83 0.0296618 0.27
v -0.78 0.0296618 0.28
v -0.75 0.0296618 0.28
v -0.92 0.0296618 0.44
v -0.95 0.0296618 0.48
v -0.99 0.0296618 0.51
v -1.01 0.0296619 0.6
v -1.04 0.0296619 0.63
v -1.08 0.0296619 0.76
v -1.08 0.0296619 0.79
# 60 verticies
vn 0 1 0
vn 0.5547 0 0.83205
vn -0.39392 0 0.919145
vn -0.882353 0 0.470588
vn -0.813734 0 -0.581238
vn -1 0 0
vn -0.447215 0 -0.894427
vn -0.832049 0 -0.554702
vn -0.901315 0 -0.433164
vn -0.953801 0 -0.300439
vn -0.986394 0 -0.164399
vn -0.6 0 -0.8
vn -0.49894 0 -0.866636
vn -0.388889 0 -0.921285
vn -0.138701 0 -0.990334
vn 0.0884007 0 -0.996085
vn 0.176801 0 -0.984247
vn 0.263117 0 -0.964764
vn -0.5547 0 -0.83205
vn 0.196116 0 -0.980581
vn 0.131312 0 -0.991341
vn 0.0656559 0 -0.997842
vn 0 0 -1
vn 0.685365 0 0.7282
vn 0.725966 0 0.68773
vn 0.764304 0 0.644856
vn 0.73994 0 0.672673
vn 0.672673 0 0.73994
vn 0.6 0 0.8
vn 0.976187 0 0.21693
vn 0.707107 0 0.707107
vn 0.955779 0 0.294086
vn 0.980199 0 0.198013
vn 0.995087 0 0.0990066
vn 1 0 0
vn 1.24176e-007 1 0
vn 2.45667e-008 1 -4.67152e-008
vn 5.36217e-008 1 -4.23328e-008
vn -1.29549e-008 1 -6.47743e-008
vn -2.9922e-009 1 -3.40651e-008
vn 8.65603e-010 1 -3.36903e-008
vn 1.17996e-008 1 -2.86561e-008
vn -1.09197e-009 1 -3.75362e-008
vn 1.40429e-008 1 -4.68156e-008
vn 1.4328e-008 1 -7.16402e-008
vn 9.19444e-009 1 -5.14353e-008
vn -2.00831e-009 1 -4.25079e-008
vn -5.32185e-008 1 -7.09579e-008
vn -1.56126e-009 1 -4.41015e-008
vn 2.46009e-008 1 -4.08952e-008
vn -1.09387e-008 1 -3.09578e-008
vn -6.57237e-009 1 -2.84921e-008
vn -5.41466e-009 1 -7.61007e-008
vn -4.13673e-009 1 -5.29948e-008
vn 6.06826e-009 1 -3.11638e-008
vn 0 1 -4.65661e-008
vn 1.41478e-008 -1 4.52668e-008
vn 4.13921e-008 -1 6.20881e-008
vn 2.49293e-008 -1 5.22105e-008
vn 7.59951e-009 -1 3.79975e-008
vn 2.24415e-009 -1 4.32883e-008
vn -1.04405e-009 -1 4.82211e-008
vn 2.10706e-009 -1 4.81013e-008
vn -1.30033e-009 -1 4.01455e-008
vn 2.14921e-008 -1 7.88042e-008
vn 1.13341e-008 -1 5.32e-008
vn 6.60227e-009 -1 4.78078e-008
vn -2.66092e-008 -1 2.66092e-008
vn -6.27577e-009 -1 3.79056e-008
vn -4.08792e-009 -1 3.92333e-008
vn 7.02885e-009 -1 4.15341e-008
vn -3.32476e-009 -1 4.77384e-008
vn -1.03026e-009 -1 4.93993e-008
vn -3.2488e-009 -1 2.88454e-008
vn -2.68328e-009 -1 5.1206e-008
vn 9.11114e-010 -1 3.80143e-008
vn 0 -1 3.49246e-008
vn -2.19135e-009 -1 2.95832e-008
# 78 normals
f  2//1 4//1 1//1
f  3//1 4//1 2//1
f  8//1 5//1 6//1
f  7//1 8//1 6//1
f  10//1 9//1 12//1
f  11//1 10//1 12//1
f  14//1 13//1 16//1
f  14//1 16//1 15//1
f  60//2 17//2 39//2
f  38//2 17//2 60//2
f  17//3 40//3 39//3
f  17//3 18//3 40//3
f  18//4 41//4 40//4
f  18//4 19//4 41//4
f  19//5 42//5 41//5
f  19//5 20//5 42//5
f  20//6 43//6 42//6
f  20//6 21//6 43//6
f  21//7 44//7 43//7
f  21//7 22//7 44//7
f  22//8 45//9 44//8
f  22//8 23//10 45//9
f  23//10 46//11 45//9
f  23//10 24//11 46//11
f  24//12 47//13 46//12
f  24//12 25//14 47//13
f  25//14 48//15 47//13
f  25//14 26//15 48//15
f  48//15 27//16 49//17
f  26//15 27//16 48//15
f  49//17 28//18 50//18
f  27//16 28//18 49//17
f  28//19 51//19 50//19
f  28//19 29//19 51//19
f  51//20 30//21 52//22
f  29//20 30//21 51//20
f  52//22 31//23 53//23
f  30//21 31//23 52//22
f  53//24 32//25 54//26
f  31//24 32//25 53//24
f  54//26 33//27 55//28
f  32//25 33//27 54//26
f  55//28 34//29 56//29
f  33//27 34//29 55//28
f  56//30 35//30 57//30
f  34//30 35//30 56//30
f  57//31 36//31 58//31
f  35//31 36//31 57//31
f  58//32 37//33 59//34
f  36//32 37//33 58//32
f  59//34 38//35 60//35
f  37//33 38//35 59//34
f  38//36 37//37 17//38
f  37//37 18//39 17//38
f  37//37 19//40 18//39
f  36//41 19//40 37//37
f  20//42 19//40 36//41
f  21//43 20//42 36//41
f  30//44 29//45 28//46
f  25//47 24//48 23//49
f  26//50 25//47 23//49
f  35//51 21//43 36//41
f  34//52 21//43 35//51
f  27//53 26//50 23//49
f  28//46 27//53 23//49
f  33//54 21//43 34//52
f  32//55 21//43 33//54
f  31//56 30//44 32//55
f  30//44 28//46 32//55
f  28//46 23//49 32//55
f  22//1 21//43 32//55
f  23//49 22//1 32//55
f  59//57 60//58 39//59
f  40//60 59//57 39//59
f  41//61 59//57 40//60
f  41//61 58//62 59//57
f  41//61 42//63 58//62
f  42//63 43//64 58//62
f  51//65 52//66 50//67
f  46//68 47//69 45//70
f  47//69 48//71 45//70
f  43//64 57//72 58//62
f  43//64 56//73 57//72
f  48//71 49//74 45//70
f  49//74 50//67 45//70
f  43//64 55//75 56//73
f  43//64 54//76 55//75
f  52//66 53//77 54//76
f  50//67 52//66 54//76
f  45//70 50//67 54//76
f  44//78 45//70 54//76
f  43//64 44//78 54//76
