# 
# Wavefront OBJ file
# Converted by the DEEP Exploration 3.5.10.1242
# Right Hemisphere, LTD
# http://www.righthemisphere.com/
# 
# object Object #0
g Object__0
v 2.4785 -0.0496619 -1.9985
v 2.48 -0.0496619 -1.9985
v 2.48 -0.0496619 -2
v 2.4785 -0.0496619 -2
v -2.48 -0.0496619 -1.9985
v -2.4785 -0.0496619 -1.9985
v -2.4785 -0.0496619 -2
v -2.48 -0.0496619 -2
v 2.4785 -0.0496617 1.9985
v 2.48 -0.0496617 1.9985
v 2.48 -0.0496617 2
v 2.4785 -0.0496617 2
v -2.48 -0.0496617 1.9985
v -2.4785 -0.0496617 1.9985
v -2.4785 -0.0496617 2
v -2.48 -0.0496617 2
v -0.0400001 0.0496619 1.17
v -0.0200001 0.0496619 1.15
v 0.0399999 0.0496619 1.23
v 0.11 0.0496619 1.3
v 0.2 0.0496619 1.3
v 0.3 0.0496619 1.25
v 0.38 0.0496619 1.18
v 0.43 0.0496619 1.11
v 0.43 0.0496619 1.06
v 0.42 0.0496619 0.99
v 0.48 0.0496619 0.97
v 0.56 0.0496619 0.91
v 0.61 0.0496619 0.94
v 0.69 0.0496619 1.01
v 0.72 0.0496619 0.95
v 0.76 0.0496619 0.96
v 0.8 0.0496619 1.02
v 0.85 0.0496619 0.99
v 0.93 0.0496619 0.95
v 0.93 0.0496619 0.92
v 0.91 0.0496619 0.86
v 0.94 0.0496619 0.78
v 1.02 0.0496619 0.8
v 1.11 0.0496619 0.86
v 1.12 0.0496619 0.91
v 1.13 0.0496619 0.94
v 1.2 0.0496619 0.93
v 1.28 0.0496619 0.96
v 1.36 0.0496619 1.03
v 1.44 0.0496619 1.03
v 1.51 0.0496619 1.07
v 1.6 0.0496619 1.15
v 1.41 0.0496619 1.32
v 1.35 0.0496619 1.39
v 1.34 0.0496619 1.43
v 1.25 0.0496619 1.51
v 1.16 0.0496619 1.55
v 1.24 0.0496619 1.64
v 1.2 0.0496619 1.65
v 1.15 0.0496619 1.74
v 1.08 0.0496619 1.7
v 1.06 0.0496619 1.63
v 1.03 0.0496619 1.61
v 0.96 0.0496619 1.74
v 0.85 0.0496619 1.86
v 0.83 0.0496619 1.95
v 0.74 0.0496619 1.93
v 0.65 0.0496619 1.89
v 0.55 0.0496619 1.79
v 0.48 0.0496619 1.75
v 0.39 0.0496619 1.68
v 0.33 0.0496619 1.72
v 0.2 0.0496619 1.53
v 0.15 0.0496619 1.45
v 0.0899999 0.0496619 1.39
v 0.0599999 0.0496619 1.29
v 0.00999988 0.0496619 1.23
v -0.0400001 0.0296619 1.17
v -0.0200001 0.0296619 1.15
v 0.0399999 0.0296619 1.23
v 0.11 0.0296619 1.3
v 0.2 0.0296619 1.3
v 0.3 0.0296619 1.25
v 0.38 0.0296619 1.18
v 0.43 0.0296619 1.11
v 0.43 0.0296619 1.06
v 0.42 0.0296619 0.99
v 0.48 0.0296619 0.97
v 0.56 0.0296619 0.91
v 0.61 0.0296619 0.94
v 0.69 0.0296619 1.01
v 0.72 0.0296619 0.95
v 0.76 0.0296619 0.96
v 0.8 0.0296619 1.02
v 0.85 0.0296619 0.99
v 0.93 0.0296619 0.95
v 0.93 0.0296619 0.92
v 0.91 0.0296619 0.86
v 0.94 0.0296619 0.78
v 1.02 0.0296619 0.8
v 1.11 0.0296619 0.86
v 1.12 0.0296619 0.91
v 1.13 0.0296619 0.94
v 1.2 0.0296619 0.93
v 1.28 0.0296619 0.96
v 1.36 0.0296619 1.03
v 1.44 0.0296619 1.03
v 1.51 0.0296619 1.07
v 1.6 0.0296619 1.15
v 1.41 0.0296619 1.32
v 1.35 0.0296619 1.39
v 1.34 0.0296619 1.43
v 1.25 0.0296619 1.51
v 1.16 0.0296619 1.55
v 1.24 0.0296619 1.64
v 1.2 0.0296619 1.65
v 1.15 0.0296619 1.74
v 1.08 0.0296619 1.7
v 1.06 0.0296619 1.63
v 1.03 0.0296619 1.61
v 0.96 0.0296619 1.74
v 0.85 0.0296619 1.86
v 0.83 0.0296619 1.95
v 0.74 0.0296619 1.93
v 0.65 0.0296619 1.89
v 0.55 0.0296619 1.79
v 0.48 0.0296619 1.75
v 0.39 0.0296619 1.68
v 0.33 0.0296619 1.72
v 0.2 0.0296619 1.53
v 0.15 0.0296619 1.45
v 0.0899999 0.0296619 1.39
v 0.0599999 0.0296619 1.29
v 0.00999988 0.0296619 1.23
# 130 verticies
vn 0 1 0
vn -0.768221 0 0.640184
vn -0.768222 0 0.640184
vn -0.768221 0 0.640185
vn -0.707106 0 -0.707107
vn 0.8 0 -0.6
vn 0.770759 0 -0.637127
vn 0.739725 0 -0.672909
vn 0.707106 0 -0.707107
vn 0 0 -1
vn -0.447213 0 -0.894427
vn -0.52141 0 -0.853307
vn -0.592353 0 -0.805679
vn -0.714504 0 -0.699631
vn -0.766557 0 -0.642177
vn -0.813733 0 -0.581239
vn -1 0 0
vn -0.998883 0 0.0472462
vn -0.995526 0 0.0944925
vn -0.989949 0 0.141422
vn -0.316227 0 -0.948683
vn -0.415585 0 -0.909554
vn -0.511273 0 -0.859418
vn -0.6 0 -0.8
vn 0.514495 0 -0.857493
vn 0.564493 0 -0.825438
vn 0.612666 0 -0.790342
vn 0.658505 0 -0.752577
vn -0.894427 0 -0.447214
vn 0.242536 0 -0.970143
vn 0.83205 0 -0.5547
vn -0.514495 0 -0.857493
vn -0.492391 0 -0.870374
vn -0.469949 0 -0.882694
vn -0.447214 0 -0.894427
vn -0.994299 0 0.106632
vn -0.976995 0 0.213264
vn -0.948683 0 0.316227
vn -0.936329 0 -0.351123
vn 0.242536 0 -0.970142
vn 0.351167 0 -0.936313
vn 0.456595 0 -0.889674
vn 0.5547 0 -0.83205
vn 0.980581 0 -0.196116
vn 0.971617 0 -0.236559
vn 0.960966 0 -0.276666
vn 0.948683 0 -0.316228
vn -0.141421 0 -0.98995
vn 0.351123 0 -0.936329
vn 0.460189 0 -0.887821
vn 0.564141 0 -0.825678
vn 0.658504 0 -0.752577
vn 0.49614 0 -0.868243
vn 0.554866 0 -0.83194
vn 0.611209 0 -0.791469
vn 0.664363 0 -0.74741
vn 0.666795 0 0.745241
vn 0.698974 0 0.715147
vn 0.729854 0 0.683603
vn 0.759257 0 0.650791
vn 0.970143 0 0.242536
vn 0.664364 0 0.747409
vn 0.584449 0 0.81143
vn 0.497457 0 0.867489
vn 0.406138 0 0.913812
vn 0.747409 0 -0.664364
vn 0.242536 0 0.970143
vn 0.874157 0 0.485643
vn -0.496139 0 0.868243
vn -0.961524 0 0.274722
vn -0.5547 0 0.83205
vn 0.880471 0 0.4741
vn 0.838419 0 0.545026
vn 0.790318 0 0.612696
vn 0.737154 0 0.675724
vn 0.976187 0 0.216931
vn -0.216932 0 0.976187
vn -0.281243 0 0.959636
vn -0.344592 0 0.938752
vn -0.514134 0 0.85771
vn -0.615977 0 0.787764
vn -0.64183 0 0.766847
vn -0.57095 0 0.820985
vn -0.536606 0 0.843833
vn -0.575961 0 0.817477
vn -0.613941 0 0.789352
vn 0.554701 0 0.83205
vn -0.825307 0 0.564684
vn -0.83303 0 0.553228
vn -0.840595 0 0.541664
vn -0.805632 0 0.592416
vn -0.758399 0 0.65179
vn -0.707107 0 0.707106
vn -0.957826 0 0.287348
vn -0.911013 0 0.412378
vn -0.846653 0 0.532145
vn 5.76428e-009 1 -4.00695e-008
vn 1.29397e-008 1 -4.34506e-008
vn 1.79532e-008 1 -3.14181e-008
vn 1.01679e-008 1 -4.01311e-008
vn 3.5479e-009 1 -5.55837e-008
vn 1.06437e-008 1 -4.25747e-008
vn 5.32185e-009 1 -5.23314e-008
vn 1.95425e-008 1 -2.19853e-008
vn -4.95664e-009 1 -3.1785e-008
vn 1.08657e-009 1 -3.57759e-008
vn 9.90295e-009 1 -6.06417e-008
vn 1.37974e-008 1 -5.51895e-008
vn -2.32067e-009 1 -5.41574e-008
vn -9.70127e-010 1 -4.94765e-008
vn -1.94025e-009 1 -6.79089e-008
vn -1.20836e-009 1 -5.04988e-008
vn -8.39654e-010 1 -5.45379e-008
vn 8.76543e-009 1 -3.94442e-008
vn 1.01589e-008 1 -2.42305e-008
vn 5.9266e-008 1 -8.46659e-009
vn 1.20086e-008 1 -4.31052e-008
vn -4.85908e-009 1 -2.1056e-008
vn -8.46657e-009 1 -3.38663e-008
vn 9.82194e-010 1 -3.64347e-008
vn -7.6519e-009 1 -5.10127e-008
vn 3.07975e-009 1 -4.05999e-008
vn 3.84468e-009 1 -4.29795e-008
vn -7.56349e-009 1 -4.08306e-008
vn -5.1888e-009 1 -4.13704e-008
vn -1.79532e-008 1 -2.69298e-008
vn 5.07995e-008 1 -6.56159e-008
vn 1.01599e-007 1 -8.46657e-008
vn 3.38663e-008 1 -6.444e-008
vn 4.43487e-009 1 -5.83925e-008
vn 7.07692e-009 1 -5.60807e-008
vn 7.07692e-009 1 -4.9182e-008
vn -4.62357e-010 1 -4.45992e-008
vn -5.30663e-009 1 -4.61124e-008
vn -3.03695e-009 1 -5.06828e-008
vn -1.47279e-008 1 -4.00611e-008
vn 1.38569e-009 1 -4.04021e-008
vn -1.2935e-009 1 -2.45766e-008
vn -6.14218e-009 1 -4.20318e-008
vn -3.58674e-010 1 -5.02667e-008
vn 7.2217e-009 1 -3.5512e-008
vn -5.68806e-009 1 -5.44448e-008
vn -2.20829e-009 1 -4.85663e-008
vn -1.39957e-009 1 -2.86504e-008
vn -1.13973e-008 1 -6.68859e-008
vn 9.70891e-010 1 -2.11707e-008
vn 3.75198e-009 1 -3.14654e-008
vn 4.32846e-009 1 -4.27614e-008
vn -5.32186e-008 1 -1.06437e-007
vn -1.95578e-008 1 -6.54841e-008
vn -4.62173e-010 1 -4.20828e-008
vn 4.0944e-009 -1 4.70794e-008
vn -3.94996e-009 -1 5.38782e-008
vn 2.24418e-009 -1 4.26389e-008
vn -1.78137e-009 -1 4.35137e-008
vn 1.06437e-008 -1 5.05575e-008
vn 6.02435e-009 -1 4.97539e-008
vn 1.24859e-008 -1 5.39348e-008
vn 1.04387e-009 -1 4.5121e-008
vn 1.22143e-009 -1 4.51921e-008
vn -1.48332e-009 -1 4.53864e-008
vn 2.75948e-008 -1 7.58856e-008
vn 1.22953e-008 -1 5.44662e-008
vn 3.48291e-009 -1 4.83402e-008
vn -2.53376e-009 -1 3.43773e-008
vn -7.32985e-009 -1 4.00986e-008
vn 8.08953e-009 -1 3.93214e-008
vn 5.57921e-009 -1 3.96937e-008
vn 1.09567e-008 -1 4.38269e-008
vn 1.69331e-008 -1 5.07995e-008
vn 4.05117e-009 -1 5.24611e-008
vn 5.94145e-009 -1 4.33132e-008
vn 2.05597e-014 -1 6.20882e-008
vn -8.0983e-010 -1 5.85788e-008
vn -9.88103e-009 -1 4.73859e-008
vn -2.9633e-008 -1 6.77326e-008
vn 5.04072e-009 -1 3.36048e-008
vn -7.96273e-010 -1 4.21776e-008
vn 1.01337e-009 -1 4.55626e-008
vn 1.26487e-009 -1 4.08338e-008
vn 3.97347e-010 -1 4.19594e-008
vn -3.36619e-009 -1 4.15168e-008
vn 3.38662e-008 -1 3.38663e-008
vn 1.69331e-008 -1 4.02162e-008
vn 1.12887e-008 -1 3.71588e-008
vn 1.10872e-008 -1 3.25224e-008
vn 2.03344e-008 -1 3.28526e-008
vn 2.03344e-008 -1 3.6302e-008
vn 7.69497e-009 -1 4.15499e-008
vn -2.32254e-009 -1 4.08699e-008
vn 2.5308e-009 -1 3.80965e-008
vn 4.33152e-010 -1 4.50052e-008
vn -8.35632e-009 -1 4.57988e-008
vn -4.83697e-009 -1 3.32918e-008
vn -8.80132e-010 -1 4.35015e-008
vn -4.78966e-009 -1 3.94581e-008
vn -5.53858e-009 -1 4.00003e-008
vn 3.20563e-009 -1 4.50984e-008
vn 7.45518e-009 -1 4.58453e-008
vn -1.27855e-009 -1 4.44217e-008
vn 4.2333e-009 -1 4.82595e-008
vn 4.62201e-009 -1 4.8172e-008
vn 6.42291e-009 -1 4.49605e-008
vn -5.53344e-010 -1 4.03279e-008
vn 1.66568e-009 -1 4.22785e-008
vn 2.66093e-008 -1 5.32185e-008
vn 1.13707e-008 -1 4.5137e-008
vn -7.62622e-009 -1 4.1378e-008
# 208 normals
f  2//1 4//1 1//1
f  3//1 4//1 2//1
f  8//1 5//1 6//1
f  7//1 8//1 6//1
f  10//1 9//1 12//1
f  11//1 10//1 12//1
f  14//1 13//1 16//1
f  14//1 16//1 15//1
f  73//2 74//3 130//4
f  73//2 17//3 74//3
f  17//5 75//5 74//5
f  17//5 18//5 75//5
f  75//6 19//7 76//8
f  18//6 19//7 75//6
f  76//8 20//9 77//9
f  19//7 20//9 76//8
f  20//10 78//10 77//10
f  20//10 21//10 78//10
f  21//11 79//12 78//11
f  21//11 22//13 79//12
f  22//13 80//14 79//12
f  22//13 23//15 80//14
f  23//15 81//16 80//14
f  23//15 24//16 81//16
f  24//17 82//18 81//17
f  24//17 25//19 82//18
f  25//19 83//20 82//18
f  25//19 26//20 83//20
f  26//21 84//22 83//21
f  26//21 27//23 84//22
f  27//23 85//24 84//22
f  27//23 28//24 85//24
f  85//25 29//26 86//27
f  28//25 29//26 85//25
f  86//27 30//28 87//28
f  29//26 30//28 86//27
f  30//29 88//29 87//29
f  30//29 31//29 88//29
f  88//30 32//30 89//30
f  31//30 32//30 88//30
f  89//31 33//31 90//31
f  32//31 33//31 89//31
f  33//32 91//33 90//32
f  33//32 34//34 91//33
f  34//34 92//35 91//33
f  34//34 35//35 92//35
f  35//17 93//36 92//17
f  35//17 36//37 93//36
f  36//37 94//38 93//36
f  36//37 37//38 94//38
f  37//39 95//39 94//39
f  37//39 38//39 95//39
f  95//40 39//41 96//42
f  38//40 39//41 95//40
f  96//42 40//43 97//43
f  39//41 40//43 96//42
f  97//44 41//45 98//46
f  40//44 41//45 97//44
f  98//46 42//47 99//47
f  41//45 42//47 98//46
f  42//48 100//48 99//48
f  42//48 43//48 100//48
f  100//49 44//50 101//51
f  43//49 44//50 100//49
f  101//51 45//52 102//52
f  44//50 45//52 101//51
f  45//10 103//10 102//10
f  45//10 46//10 103//10
f  103//53 47//54 104//55
f  46//53 47//54 103//53
f  104//55 48//56 105//56
f  47//54 48//56 104//55
f  105//57 49//58 106//59
f  48//57 49//58 105//57
f  106//59 50//60 107//60
f  49//58 50//60 106//59
f  107//61 51//61 108//61
f  50//61 51//61 107//61
f  108//62 52//63 109//64
f  51//62 52//63 108//62
f  109//64 53//65 110//65
f  52//63 53//65 109//64
f  110//66 54//66 111//66
f  53//66 54//66 110//66
f  111//67 55//67 112//67
f  54//67 55//67 111//67
f  112//68 56//68 113//68
f  55//68 56//68 112//68
f  56//69 114//69 113//69
f  56//69 57//69 114//69
f  57//70 115//70 114//70
f  57//70 58//70 115//70
f  58//71 116//71 115//71
f  58//71 59//71 116//71
f  116//72 60//73 117//74
f  59//72 60//73 116//72
f  117//74 61//75 118//75
f  60//73 61//75 117//74
f  118//76 62//76 119//76
f  61//76 62//76 118//76
f  62//77 120//78 119//77
f  62//77 63//79 120//78
f  63//79 121//80 120//78
f  63//79 64//81 121//80
f  64//81 122//82 121//80
f  64//81 65//83 122//82
f  65//83 123//84 122//82
f  65//83 66//85 123//84
f  66//85 124//86 123//84
f  66//85 67//86 124//86
f  124//87 68//87 125//87
f  67//87 68//87 124//87
f  68//88 126//89 125//88
f  68//88 69//90 126//89
f  69//90 127//91 126//89
f  69//90 70//92 127//91
f  70//92 128//93 127//91
f  70//92 71//93 128//93
f  71//94 129//95 128//94
f  71//94 72//96 129//95
f  72//96 130//4 129//95
f  72//96 73//2 130//4
f  55//97 57//98 56//99
f  55//97 58//100 57//98
f  39//101 38//102 37//103
f  48//104 47//105 49//106
f  32//107 31//108 30//109
f  39//101 37//103 36//110
f  40//111 39//101 36//110
f  61//112 63//113 62//114
f  27//115 26//116 25//117
f  29//118 28//1 27//115
f  54//119 53//120 55//97
f  29//118 27//115 30//109
f  30//109 27//115 25//117
f  61//112 64//121 63//113
f  61//112 65//122 64//121
f  60//123 65//122 61//112
f  67//124 69//125 68//126
f  18//127 17//128 73//129
f  19//130 18//127 73//129
f  19//130 73//129 72//131
f  19//130 72//131 20//132
f  20//132 72//131 71//133
f  21//134 20//132 71//133
f  21//134 71//133 70//135
f  21//134 70//135 69//125
f  21//134 69//125 67//124
f  47//105 46//136 49//106
f  46//136 45//137 49//106
f  41//138 40//111 36//110
f  22//139 21//134 67//124
f  32//107 30//109 33//140
f  53//120 58//100 55//97
f  60//123 59//141 65//122
f  53//120 59//141 58//100
f  49//106 45//137 50//142
f  23//143 22//139 67//124
f  45//137 44//144 50//142
f  30//109 25//117 24//145
f  43//1 42//146 44//144
f  44//144 42//146 50//142
f  41//138 36//110 35//147
f  42//146 41//138 35//147
f  42//146 35//147 50//142
f  23//143 67//124 66//148
f  51//149 50//142 52//150
f  50//142 35//147 52//150
f  52//150 35//147 53//120
f  53//120 35//147 59//141
f  59//141 35//147 65//122
f  30//109 24//145 23//143
f  30//109 23//143 66//148
f  33//140 30//109 66//148
f  33//140 66//148 65//122
f  34//151 33//140 65//122
f  35//147 34//151 65//122
f  114//152 112//153 113//154
f  115//155 112//153 114//152
f  95//156 96//157 94//158
f  104//159 105//160 106//161
f  88//162 89//163 87//164
f  94//158 96//157 93//165
f  96//157 97//166 93//165
f  120//167 118//168 119//169
f  83//170 84//171 82//172
f  85//173 86//174 84//171
f  110//175 111//176 112//153
f  84//171 86//174 87//164
f  84//171 87//164 82//172
f  121//177 118//168 120//167
f  122//178 118//168 121//177
f  122//178 117//179 118//168
f  126//180 124//181 125//182
f  74//183 75//184 130//185
f  75//184 76//186 130//185
f  130//185 76//186 129//187
f  129//187 76//186 77//188
f  129//187 77//188 128//189
f  77//188 78//190 128//189
f  128//189 78//190 127//191
f  127//191 78//190 126//180
f  126//180 78//190 124//181
f  103//192 104//159 106//161
f  102//193 103//192 106//161
f  97//166 98//194 93//165
f  78//190 79//195 124//181
f  87//164 89//163 90//196
f  115//155 110//175 112//153
f  116//197 117//179 122//178
f  116//197 110//175 115//155
f  102//193 106//161 107//198
f  79//195 80//199 124//181
f  101//200 102//193 107//198
f  82//172 87//164 81//201
f  99//202 100//203 101//200
f  99//202 101//200 107//198
f  93//165 98//194 92//204
f  98//194 99//202 92//204
f  92//204 99//202 107//198
f  124//181 80//199 123//205
f  107//198 108//206 109//207
f  92//204 107//198 109//207
f  92//204 109//207 110//175
f  92//204 110//175 116//197
f  92//204 116//197 122//178
f  81//201 87//164 80//199
f  80//199 87//164 123//205
f  87//164 90//196 123//205
f  123//205 90//196 122//178
f  91//208 92//204 122//178
f  90//196 91//208 122//178
