# 
# Wavefront OBJ file
# Converted by the DEEP Exploration 3.5.10.1242
# Right Hemisphere, LTD
# http://www.righthemisphere.com/
# 
# object Object #0
g Object__0
v 2.4785 -0.0496619 -1.9985
v 2.48 -0.0496619 -1.9985
v 2.48 -0.0496619 -2
v 2.4785 -0.0496619 -2
v -2.48 -0.0496619 -1.9985
v -2.4785 -0.0496619 -1.9985
v -2.4785 -0.0496619 -2
v -2.48 -0.0496619 -2
v 2.4785 -0.0496617 1.9985
v 2.48 -0.0496617 1.9985
v 2.48 -0.0496617 2
v 2.4785 -0.0496617 2
v -2.48 -0.0496617 1.9985
v -2.4785 -0.0496617 1.9985
v -2.4785 -0.0496617 2
v -2.48 -0.0496617 2
v 1.81 0.0496619 0.88
v 1.65 0.0496619 0.75
v 1.46 0.0496619 0.61
v 1.11 0.0496619 0.49
v 1.09 0.0496619 0.47
v 1.14 0.0496618 0.41
v 1.24 0.0496618 0.33
v 1.34 0.0496618 0.25
v 1.37 0.0496618 0.21
v 1.42 0.0496618 0.08
v 1.45 0.0496618 0.03
v 1.48 0.0496618 0.06
v 1.54 0.0496618 0.13
v 1.59 0.0496618 0.12
v 1.7 0.0496618 0.11
v 1.84 0.0496618 0.14
v 1.99 0.0496618 0.16
v 2.04 0.0496618 0.13
v 2.11 0.0496618 0.11
v 2.16 0.0496618 0.13
v 2.26 0.0496618 0.1
v 2.35 0.0496618 0.18
v 2.36 0.0496618 0.25
v 2.37 0.0496618 0.3
v 2.37 0.0496618 0.39
v 2.33 0.0496618 0.45
v 2.28 0.0496619 0.48
v 2.27 0.0496619 0.55
v 2.21 0.0496619 0.59
v 2.16 0.0496619 0.55
v 2.12 0.0496619 0.54
v 2 0.0496619 0.51
v 1.98 0.0496619 0.59
v 1.94 0.0496619 0.7
v 1.89 0.0496619 0.8
v 1.81 0.0296619 0.88
v 1.65 0.0296619 0.75
v 1.46 0.0296619 0.61
v 1.11 0.0296618 0.49
v 1.09 0.0296618 0.47
v 1.14 0.0296618 0.41
v 1.24 0.0296618 0.33
v 1.34 0.0296618 0.25
v 1.37 0.0296618 0.21
v 1.42 0.0296618 0.08
v 1.45 0.0296618 0.03
v 1.48 0.0296618 0.06
v 1.54 0.0296618 0.13
v 1.59 0.0296618 0.12
v 1.7 0.0296618 0.11
v 1.84 0.0296618 0.14
v 1.99 0.0296618 0.16
v 2.04 0.0296618 0.13
v 2.11 0.0296618 0.11
v 2.16 0.0296618 0.13
v 2.26 0.0296618 0.1
v 2.35 0.0296618 0.18
v 2.36 0.0296618 0.25
v 2.37 0.0296618 0.3
v 2.37 0.0296618 0.39
v 2.33 0.0296618 0.45
v 2.28 0.0296618 0.48
v 2.27 0.0296619 0.55
v 2.21 0.0296619 0.59
v 2.16 0.0296619 0.55
v 2.12 0.0296619 0.54
v 2 0.0296618 0.51
v 1.98 0.0296619 0.59
v 1.94 0.0296619 0.7
v 1.89 0.0296619 0.8
# 86 verticies
vn 0 1 0
vn 0.778475 0 0.627675
vn 0.707107 0 0.707107
vn 0.84164 0 0.540039
vn -0.630593 0 0.776114
vn -0.618282 0 0.785956
vn -0.605814 0 0.795606
vn -0.50881 0 0.860879
vn -0.418254 0 0.90833
vn -0.324324 0 0.945946
vn -0.707107 0 0.707106
vn -0.768222 0 -0.640184
vn -0.723634 0 -0.690184
vn -0.675576 0 -0.73729
vn -0.624695 0 -0.780869
vn -0.624695 0 -0.780869
vn -0.687997 0 -0.725713
vn -0.746849 0 -0.664994
vn -0.851659 0 -0.524096
vn -0.896487 0 -0.44307
vn -0.911097 0 -0.412192
vn -0.885728 0 -0.464204
vn -0.857492 0 -0.514497
vn 0.707107 -6.58544e-008 -0.707107
vn 0.724965 -8.43646e-008 -0.688786
vn 0.74236 -8.43646e-008 -0.670002
vn 0.707107 0 -0.707107
vn 0.759257 -6.06096e-008 -0.650791
vn 0.759257 0 -0.650791
vn -0.196116 0 -0.980581
vn -0.161126 0 -0.986934
vn -0.125888 0 -0.992044
vn 0.0601804 0 -0.998188
vn 0.183867 0 -0.982951
vn 0.158061 0 -0.987429
vn 0.132164 0 -0.991228
vn -0.514495 0 -0.857493
vn -0.437908 0 -0.89902
vn -0.35737 0 -0.933963
vn -0.274722 0 -0.961524
vn 0.371389 0 -0.928477
vn -0.287348 0 -0.957826
vn 0.664363 0 -0.74741
vn 0.98995 0 -0.141418
vn 0.987164 0 -0.159707
vn 0.98404 0 -0.177947
vn 0.991341 0 -0.131315
vn 0.997842 0 -0.0656574
vn 1 0 0
vn 0.832051 0 0.5547
vn 0.514494 0 0.857494
vn 0.98995 0 0.141418
vn 0.5547 0 0.83205
vn -0.624693 0 0.78087
vn -0.507672 0 0.86155
vn -0.377631 0 0.925956
vn -0.242536 0 0.970143
vn -0.242536 0 0.970142
vn -0.242536 0 0.970142
vn 0.970143 0 0.242535
vn 0.961176 0 0.275935
vn 0.951048 0 0.309043
vn 0.926029 0 0.377453
vn 0.910884 0 0.412662
vn 0 1 -4.65662e-008
vn -5.64822e-009 1 -4.37026e-008
vn 0 1 -9.31323e-008
vn 7.52875e-009 1 -3.6138e-008
vn 6.01059e-009 1 -4.3177e-008
vn 8.02864e-009 1 -3.85375e-008
vn -2.24207e-008 1 -6.72622e-008
vn -3.10441e-008 1 -9.31323e-008
vn -2.04356e-008 1 -5.65045e-008
vn -9.43306e-009 1 -7.20542e-008
vn -4.20989e-008 1 -8.94602e-008
vn 1.74079e-008 1 -6.61501e-008
vn 7.98995e-009 1 -8.4689e-008
vn 1.59799e-008 1 -6.07236e-008
vn 1.39206e-009 1 -4.19661e-008
vn 1.229e-008 1 -2.14498e-008
vn 2.84509e-009 1 -4.56815e-008
vn 3.96362e-009 1 -4.36201e-008
vn 1.39499e-008 1 -4.03818e-008
vn 3.38663e-008 1 -3.38663e-008
vn 1.92909e-008 1 -3.9332e-008
vn 3.2678e-009 1 -4.24814e-008
vn -1.17424e-008 1 -5.75509e-008
vn 0 1 -1.86265e-007
vn -2.38801e-009 1 -7.64162e-008
vn -6.20883e-008 1 -4.13921e-008
vn -4.66799e-009 1 -4.34554e-008
vn 4.43466e-009 1 -2.36527e-008
vn -1.57514e-009 1 -4.0862e-008
vn 3.07993e-011 1 -4.10103e-008
vn -8.59618e-009 1 -2.96351e-008
vn -1.30578e-008 1 -2.86815e-008
vn 2.06372e-008 1 -6.81039e-008
vn 1.70779e-008 1 -6.27477e-008
vn 1.61969e-008 1 -6.47877e-008
vn -3.54508e-009 -1 4.72211e-008
vn 0 -1 4.98923e-008
vn 0 -1 4.65662e-008
vn -2.69815e-009 -1 5.21125e-008
vn -2.56008e-009 -1 4.95413e-008
vn -1.60573e-009 -1 4.49604e-008
vn -2.32831e-008 -1 2.3283e-008
vn -1.68155e-008 -1 4.26856e-008
vn -1.18964e-008 -1 4.25212e-008
vn -1.23094e-009 -1 4.6302e-008
vn -1.02909e-009 -1 4.43793e-008
vn -1.96179e-009 -1 3.77228e-008
vn -3.48158e-009 -1 5.04829e-008
vn -3.92358e-009 -1 5.21625e-008
vn -5.13457e-010 -1 4.7062e-008
vn 8.57982e-009 -1 4.96241e-008
vn -4.87307e-010 -1 4.19091e-008
vn -1.72231e-009 -1 4.83919e-008
vn -1.69332e-008 -1 1.69331e-008
vn -4.37587e-009 -1 2.845e-008
vn -4.92991e-009 -1 2.14343e-008
vn -3.2678e-009 -1 4.24814e-008
vn -1.61555e-010 -1 4.2885e-008
vn 0 -1 0
vn -1.194e-009 -1 3.42281e-008
vn -1.11878e-009 -1 4.35318e-008
vn -3.10441e-008 -1 4.13921e-008
vn 2.21735e-009 -1 5.02618e-008
vn 1.57514e-009 -1 4.0862e-008
vn 8.06938e-010 -1 4.41551e-008
vn -2.29561e-009 -1 4.72221e-008
vn -4.08791e-009 -1 4.66066e-008
vn 2.2489e-010 -1 4.3784e-008
vn 2.86141e-009 -1 4.07703e-008
vn -4.85908e-009 -1 5.04804e-008
# 134 normals
f  2//1 4//1 1//1
f  3//1 4//1 2//1
f  8//1 5//1 6//1
f  7//1 8//1 6//1
f  10//1 9//1 12//1
f  11//1 10//1 12//1
f  14//1 13//1 16//1
f  14//1 16//1 15//1
f  86//2 17//3 52//3
f  51//4 17//3 86//2
f  17//5 53//6 52//5
f  17//5 18//7 53//6
f  18//7 54//8 53//6
f  18//7 19//9 54//8
f  19//9 55//10 54//8
f  19//9 20//10 55//10
f  20//11 56//11 55//11
f  20//11 21//11 56//11
f  21//12 57//13 56//12
f  21//12 22//14 57//13
f  22//14 58//15 57//13
f  22//14 23//16 58//15
f  23//16 59//17 58//15
f  23//16 24//18 59//17
f  24//18 60//19 59//17
f  24//18 25//20 60//19
f  25//20 61//21 60//19
f  25//20 26//22 61//21
f  26//22 62//23 61//21
f  26//22 27//23 62//23
f  62//24 28//25 63//26
f  27//27 28//25 62//24
f  63//26 29//28 64//29
f  28//25 29//28 63//26
f  29//30 65//31 64//30
f  29//30 30//32 65//31
f  30//32 66//33 65//31
f  30//32 31//33 66//33
f  66//33 32//34 67//35
f  31//33 32//34 66//33
f  67//35 33//36 68//36
f  32//34 33//36 67//35
f  33//37 69//38 68//37
f  33//37 34//39 69//38
f  34//39 70//40 69//38
f  34//39 35//40 70//40
f  70//41 36//41 71//41
f  35//41 36//41 70//41
f  36//42 72//42 71//42
f  36//42 37//42 72//42
f  72//43 38//43 73//43
f  37//43 38//43 72//43
f  73//44 39//45 74//46
f  38//44 39//45 73//44
f  74//46 40//47 75//48
f  39//45 40//47 74//46
f  75//48 41//49 76//49
f  40//47 41//49 75//48
f  76//50 42//50 77//50
f  41//50 42//50 76//50
f  77//51 43//51 78//51
f  42//51 43//51 77//51
f  78//52 44//52 79//52
f  43//52 44//52 78//52
f  79//53 45//53 80//53
f  44//53 45//53 79//53
f  45//54 81//55 80//54
f  45//54 46//56 81//55
f  46//56 82//57 81//55
f  46//56 47//58 82//57
f  47//58 83//59 82//57
f  47//58 48//59 83//59
f  83//60 49//61 84//62
f  48//60 49//61 83//60
f  84//62 50//63 85//64
f  49//61 50//63 84//62
f  85//64 51//4 86//2
f  50//63 51//4 85//64
f  44//65 46//66 45//67
f  51//68 18//69 17//70
f  28//71 27//72 26//73
f  28//71 26//73 29//74
f  29//74 26//73 25//75
f  37//76 36//77 38//78
f  50//79 18//69 51//68
f  44//65 43//80 46//66
f  50//79 19//81 18//69
f  38//78 36//77 39//82
f  22//83 21//84 20//85
f  22//83 20//85 19//81
f  23//86 22//83 19//81
f  24//87 23//86 19//81
f  24//87 19//81 50//79
f  36//77 35//88 34//89
f  41//90 40//91 42//92
f  42//92 40//91 43//80
f  43//80 40//91 46//66
f  36//77 34//89 39//82
f  49//93 24//87 50//79
f  34//89 33//94 39//82
f  39//82 33//94 40//91
f  40//91 33//94 46//66
f  33//94 32//95 46//66
f  32//95 31//96 46//66
f  31//96 30//97 46//66
f  48//98 24//87 49//93
f  29//74 25//75 24//87
f  29//74 24//87 48//98
f  30//97 29//74 48//98
f  30//97 47//99 46//66
f  30//97 48//98 47//99
f  81//100 79//101 80//102
f  53//103 86//104 52//105
f  62//106 63//107 61//108
f  61//108 63//107 64//109
f  61//108 64//109 60//110
f  71//111 72//112 73//113
f  53//103 85//114 86//104
f  78//115 79//101 81//100
f  54//116 85//114 53//103
f  71//111 73//113 74//117
f  56//118 57//119 55//120
f  55//120 57//119 54//116
f  57//119 58//121 54//116
f  58//121 59//122 54//116
f  54//116 59//122 85//114
f  70//123 71//111 69//124
f  75//125 76//126 77//127
f  75//125 77//127 78//115
f  75//125 78//115 81//100
f  69//124 71//111 74//117
f  59//122 84//128 85//114
f  68//129 69//124 74//117
f  68//129 74//117 75//125
f  68//129 75//125 81//100
f  67//130 68//129 81//100
f  66//131 67//130 81//100
f  65//132 66//131 81//100
f  59//122 83//133 84//128
f  60//110 64//109 59//122
f  59//122 64//109 83//133
f  64//109 65//132 83//133
f  83//133 65//132 82//134
f  82//134 65//132 81//100
