# 
# Wavefront OBJ file
# Converted by the DEEP Exploration 3.5.10.1242
# Right Hemisphere, LTD
# http://www.righthemisphere.com/
# 
# object Object #0
g Object__0
v 2.4785 -0.0496619 -1.9985
v 2.48 -0.0496619 -1.9985
v 2.48 -0.0496619 -2
v 2.4785 -0.0496619 -2
v -2.48 -0.0496619 -1.9985
v -2.4785 -0.0496619 -1.9985
v -2.4785 -0.0496619 -2
v -2.48 -0.0496619 -2
v 2.4785 -0.0496617 1.9985
v 2.48 -0.0496617 1.9985
v 2.48 -0.0496617 2
v 2.4785 -0.0496617 2
v -2.48 -0.0496617 1.9985
v -2.4785 -0.0496617 1.9985
v -2.4785 -0.0496617 2
v -2.48 -0.0496617 2
v 0.0549999 0.0496619 1.015
v 0.00999988 0.0496619 1.12
v 0.0299999 0.0496619 1.195
v 0.12 0.0496619 1.27
v 0.195 0.0496619 1.26
v 0.29 0.0496619 1.215
v 0.36 0.0496619 1.15
v 0.405 0.0496619 1.09
v 0.385 0.0496619 1.025
v 0.195 0.0496619 1
v 0.21 0.0496619 0.93
v 0.285 0.0496619 0.98
v 0.295 0.0496619 0.96
v 0.31 0.0496619 0.865
v 0.285 0.0496619 0.86
v 0.23 0.0496619 0.83
v 0.17 0.0496619 0.785
v 0.11 0.0496619 0.7
v 0.11 0.0496619 0.67
v 0.14 0.0496619 0.63
v 0.18 0.0496619 0.575
v 0.235 0.0496619 0.5
v 0.11 0.0496618 0.415
v 0.0449999 0.0496619 0.485
v -0.0400001 0.0496619 0.58
v -0.0850001 0.0496619 0.69
v -0.1 0.0496619 0.74
v 0.0549999 0.0296619 1.015
v 0.00999988 0.0296619 1.12
v 0.0299999 0.0296619 1.195
v 0.12 0.0296619 1.27
v 0.195 0.0296619 1.26
v 0.29 0.0296619 1.215
v 0.36 0.0296619 1.15
v 0.405 0.0296619 1.09
v 0.385 0.0296619 1.025
v 0.195 0.0296619 1
v 0.21 0.0296619 0.93
v 0.285 0.0296619 0.98
v 0.295 0.0296619 0.96
v 0.31 0.0296619 0.865
v 0.285 0.0296619 0.86
v 0.23 0.0296619 0.83
v 0.17 0.0296619 0.785
v 0.11 0.0296619 0.7
v 0.11 0.0296619 0.67
v 0.14 0.0296619 0.63
v 0.18 0.0296619 0.575
v 0.235 0.0296618 0.5
v 0.11 0.0296618 0.415
v 0.0449999 0.0296618 0.485
v -0.0400001 0.0296619 0.58
v -0.0850001 0.0296619 0.69
v -0.1 0.0296619 0.74
# 70 verticies
vn 0 1 0
vn -0.871152 0 0.491013
vn -0.919145 0 -0.393919
vn -0.966235 0 0.257663
vn -0.640184 0 0.768222
vn 0.233286 0 0.972408
vn 0.132164 0 0.991228
vn 0.332987 0 0.942931
vn 0.517579 0 0.855636
vn 0.602583 0 0.798057
vn 0.72287 0 0.690984
vn 0.762861 0 0.646562
vn 0.8 0 0.6
vn 0.955779 0 -0.294086
vn 0.130454 0 -0.991454
vn 0.977802 0 0.209529
vn -0.5547 0 0.83205
vn 0.935311 0 0.353826
vn 0.894428 0 0.447213
vn 0.966752 0 0.255718
vn 0.987763 0 0.155963
vn 0.293325 0 -0.956013
vn 0.196116 0 -0.980581
vn 0.388533 0 -0.921435
vn 0.520436 0 -0.853901
vn 0.560912 0 -0.827876
vn 0.679684 0 -0.733505
vn 0.752798 0 -0.658251
vn 0.816968 0 -0.576683
vn 1 0 0
vn 0.802931 0 0.596071
vn 0.8 0 0.6
vn 0.805843 0 0.592129
vn 0.80796 0 0.589237
vn 0.807183 0 0.590301
vn 0.806405 0 0.591364
vn 0.56231 0 -0.826927
vn -0.736971 0 -0.675925
vn -0.732794 0 -0.680451
vn -0.74112 0 -0.671372
vn -0.815886 0 -0.578213
vn -0.876775 0 -0.480901
vn -0.937284 0 -0.348568
vn -0.948055 0 -0.318108
vn -0.957826 0 -0.287348
vn 2.65146e-009 1 -4.77261e-008
vn 3.76055e-009 1 -4.82114e-008
vn 5.27499e-009 1 -3.11392e-008
vn 1.97997e-009 1 -4.43621e-008
vn -8.43313e-010 1 -3.71058e-008
vn 2.63569e-009 1 -3.87031e-008
vn -5.4186e-008 1 -4.06395e-008
vn -2.51826e-008 1 -3.48388e-008
vn -1.18155e-008 1 -3.69745e-008
vn 7.6731e-010 1 -4.22225e-008
vn 1.68857e-008 1 -4.2115e-008
vn 6.56075e-009 1 -4.29841e-008
vn -5.66659e-009 1 -4.29662e-008
vn -7.95115e-009 1 -4.4936e-008
vn -7.14229e-009 1 -4.20551e-008
vn -2.82833e-009 1 -4.43492e-008
vn -2.15622e-009 1 -3.79515e-008
vn 5.58829e-009 1 -5.45748e-008
vn 7.60263e-009 1 -3.80132e-008
vn 1.45474e-008 1 -3.87077e-008
vn 1.0344e-008 1 -2.8053e-008
vn 1.35963e-009 1 -3.91302e-008
vn -4.14645e-009 1 -4.89073e-008
vn 4.01378e-009 1 -4.10158e-008
vn -5.17401e-009 1 -5.04466e-008
vn 5.09622e-009 1 -4.29774e-008
vn 7.35215e-009 -1 3.1708e-008
vn 8.61722e-009 -1 3.11546e-008
vn 2.359e-009 -1 4.45945e-008
vn -5.95326e-010 -1 4.22851e-008
vn -7.52343e-009 -1 4.14984e-008
vn 1.53219e-009 -1 3.88766e-008
vn 1.4328e-008 -1 4.75691e-008
vn 2.48352e-008 -1 4.96705e-008
vn 8.38191e-009 -1 4.95567e-008
vn -8.58127e-010 -1 4.40732e-008
vn 3.18655e-010 -1 5.184e-008
vn 5.41699e-009 -1 5.01481e-008
vn 3.81005e-009 -1 4.93492e-008
vn 1.3252e-009 -1 4.88814e-008
vn -4.12198e-009 -1 4.02114e-008
vn -6.38594e-009 -1 3.40309e-008
vn 4.70995e-011 -1 4.03898e-008
vn -6.46174e-010 -1 4.48177e-008
vn -3.91099e-009 -1 5.62705e-008
vn -1.14039e-008 -1 5.70198e-008
vn 3.21284e-009 -1 4.45357e-008
vn -1.2731e-009 -1 5.52665e-008
vn 1.86265e-008 -1 9.3132e-009
vn -3.88451e-009 -1 5.0002e-008
vn -7.80456e-010 -1 2.69467e-008
vn 2.587e-009 -1 2.52233e-008
vn 8.65577e-009 -1 6.35032e-008
# 98 normals
f  2//1 4//1 1//1
f  3//1 4//1 2//1
f  8//1 5//1 6//1
f  7//1 8//1 6//1
f  10//1 9//1 12//1
f  11//1 10//1 12//1
f  14//1 13//1 16//1
f  14//1 16//1 15//1
f  17//2 70//2 44//2
f  17//2 43//2 70//2
f  18//3 44//3 45//3
f  18//3 17//3 44//3
f  19//4 45//4 46//4
f  19//4 18//4 45//4
f  20//5 46//5 47//5
f  20//5 19//5 46//5
f  48//6 20//7 47//7
f  21//8 20//7 48//6
f  49//9 21//8 48//6
f  22//10 21//8 49//9
f  50//11 22//10 49//9
f  23//12 22//10 50//11
f  51//13 23//12 50//11
f  24//13 23//12 51//13
f  52//14 24//14 51//14
f  25//14 24//14 52//14
f  53//15 25//15 52//15
f  26//15 25//15 53//15
f  54//16 26//16 53//16
f  27//16 26//16 54//16
f  28//17 54//17 55//17
f  28//17 27//17 54//17
f  56//18 28//19 55//19
f  29//20 28//19 56//18
f  57//21 29//20 56//18
f  30//21 29//20 57//21
f  58//22 30//23 57//23
f  31//24 30//23 58//22
f  59//25 31//24 58//22
f  32//26 31//24 59//25
f  60//27 32//26 59//25
f  33//28 32//26 60//27
f  61//29 33//28 60//27
f  34//29 33//28 61//29
f  62//30 34//30 61//30
f  35//30 34//30 62//30
f  63//31 35//32 62//32
f  36//33 35//32 63//31
f  64//34 36//33 63//31
f  37//35 36//33 64//34
f  65//36 37//35 64//34
f  38//36 37//35 65//36
f  66//37 38//37 65//37
f  39//37 38//37 66//37
f  40//38 66//39 67//40
f  40//38 39//39 66//39
f  41//41 67//40 68//42
f  41//41 40//38 67//40
f  42//43 68//42 69//44
f  42//43 41//41 68//42
f  43//45 69//44 70//45
f  43//45 42//43 69//44
f  38//46 39//47 37//48
f  39//47 40//49 37//48
f  37//48 40//49 41//50
f  37//48 41//50 42//51
f  24//52 25//53 23//54
f  25//53 26//55 23//54
f  23//54 26//55 22//56
f  22//56 26//55 21//57
f  21//57 26//55 20//58
f  26//55 19//59 20//58
f  26//55 18//60 19//59
f  26//55 17//61 18//60
f  26//55 27//62 17//61
f  27//62 43//63 17//61
f  30//64 31//65 29//66
f  31//65 32//67 29//66
f  29//66 27//62 28//1
f  32//67 27//62 29//66
f  32//67 33//68 27//62
f  33//68 43//63 27//62
f  34//69 43//63 33//68
f  34//69 42//51 43//63
f  35//70 42//51 34//69
f  35//70 36//71 42//51
f  36//71 37//48 42//51
f  66//72 65//73 64//74
f  67//75 66//72 64//74
f  67//75 64//74 68//76
f  68//76 64//74 69//77
f  52//78 51//79 50//80
f  53//81 52//78 50//80
f  53//81 50//80 49//82
f  53//81 49//82 48//83
f  53//81 48//83 47//84
f  46//85 53//81 47//84
f  45//86 53//81 46//85
f  44//87 53//81 45//86
f  54//88 53//81 44//87
f  70//89 54//88 44//87
f  58//90 57//91 56//92
f  59//93 58//90 56//92
f  54//88 56//92 55//94
f  54//88 59//93 56//92
f  60//95 59//93 54//88
f  70//89 60//95 54//88
f  70//89 61//96 60//95
f  69//77 61//96 70//89
f  69//77 62//97 61//96
f  64//74 63//98 69//77
f  63//98 62//97 69//77
