# 
# Wavefront OBJ file
# Converted by the DEEP Exploration 3.5.10.1242
# Right Hemisphere, LTD
# http://www.righthemisphere.com/
# 
# object Object #0
g Object__0
v 2.4785 -0.0496619 -1.9985
v 2.48 -0.0496619 -1.9985
v 2.48 -0.0496619 -2
v 2.4785 -0.0496619 -2
v -2.48 -0.0496619 -1.9985
v -2.4785 -0.0496619 -1.9985
v -2.4785 -0.0496619 -2
v -2.48 -0.0496619 -2
v 2.4785 -0.0496617 1.9985
v 2.48 -0.0496617 1.9985
v 2.48 -0.0496617 2
v 2.4785 -0.0496617 2
v -2.48 -0.0496617 1.9985
v -2.4785 -0.0496617 1.9985
v -2.4785 -0.0496617 2
v -2.48 -0.0496617 2
v 0.125 0.0496618 -0.03
v 0.175 0.0496618 -0.015
v 0.245 0.0496618 0.01
v 0.25 0.0496618 0.04
v 0.18 0.0496618 0.155
v 0.175 0.0496618 0.22
v 0.155 0.0496618 0.245
v 0.14 0.0496618 0.285
v 0.105 0.0496618 0.39
v 0.0449999 0.0496618 0.455
v 0.0249999 0.0496618 0.395
v -0.0200001 0.0496618 0.36
v -0.0750001 0.0496618 0.33
v -0.13 0.0496618 0.295
v -0.15 0.0496618 0.23
v -0.12 0.0496618 0.245
v -0.0400001 0.0496618 0.23
v 0.00999988 0.0496618 0.155
v 0.11 0.0496618 0.155
v 0.125 0.0296618 -0.03
v 0.175 0.0296618 -0.015
v 0.245 0.0296618 0.01
v 0.25 0.0296618 0.04
v 0.18 0.0296618 0.155
v 0.175 0.0296618 0.22
v 0.155 0.0296618 0.245
v 0.14 0.0296618 0.285
v 0.105 0.0296618 0.39
v 0.0449999 0.0296618 0.455
v 0.0249999 0.0296618 0.395
v -0.0200001 0.0296618 0.36
v -0.0750001 0.0296618 0.33
v -0.13 0.0296618 0.295
v -0.15 0.0296618 0.23
v -0.12 0.0296618 0.245
v -0.0400001 0.0296618 0.23
v 0.00999988 0.0296618 0.155
v 0.11 0.0296618 0.155
# 54 verticies
vn 0 1 0
vn -0.996729 0 -0.0808159
vn 0.287348 -2.23011e-008 -0.957826
vn 0.303767 -2.94939e-008 -0.952746
vn 0.320101 -4.4116e-008 -0.947383
vn 0.287348 0 -0.957826
vn 0.336336 -4.38533e-008 -0.941742
vn 0.986394 -1.91385e-008 -0.164399
vn 0.986394 -3.06217e-008 -0.164399
vn 0.986394 -7.65542e-009 -0.164399
vn 0.854199 4.84238e-008 0.519947
vn 0.854199 0 0.519947
vn 0.854199 9.68477e-008 0.519947
vn 0.997055 0 0.0766967
vn 0.780869 0 0.624695
vn 0.842003 0 0.539472
vn 0.894403 0 0.447262
vn 0.94059 0 0.339543
vn 0.944709 0 0.32791
vn 0.895154 0 0.445758
vn 0.822417 0 0.568885
vn 0.734804 0 0.67828
vn -0.948683 0 0.316228
vn -0.613941 0 0.789352
vn -0.570567 0 0.821251
vn -0.525407 0 0.850851
vn -0.498445 0 0.866921
vn -0.517796 0 0.855504
vn -0.536876 0 0.843661
vn -0.955779 0 0.294086
vn 0.447214 0 -0.894427
vn -0.184289 0 -0.982872
vn -0.83205 0 -0.5547
vn 0 0 -1
vn -2.25203e-008 1 -1.72955e-008
vn -3.00427e-008 1 -6.00853e-009
vn -1.68328e-008 1 -2.77225e-008
vn 4.8359e-009 1 -3.77445e-008
vn 4.77628e-009 1 -4.43089e-008
vn -2.26463e-009 1 -3.62338e-008
vn -7.04408e-009 1 -5.25193e-008
vn -1.48871e-008 1 -5.15012e-008
vn 1.18772e-009 1 -3.61526e-008
vn 0 1 -4.96705e-008
vn 1.27835e-008 1 -3.89391e-008
vn 1.17951e-008 1 -3.9317e-008
vn 3.02909e-008 1 -2.31814e-008
vn -3.95727e-008 1 -2.16058e-008
vn -1.592e-008 1 -4.13921e-008
vn 0 1 -6.10499e-008
vn 2.3405e-008 1 -3.62947e-008
vn 3.95106e-008 -1 4.5155e-008
vn 1.16061e-008 -1 4.50977e-008
vn 2.42617e-008 -1 4.21053e-008
vn -1.00953e-008 -1 4.56865e-008
vn -7.71811e-009 -1 4.11318e-008
vn -2.97252e-010 -1 4.30917e-008
vn 4.78915e-009 -1 4.65333e-008
vn 3.03298e-009 -1 4.85274e-008
vn 3.80134e-009 -1 6.08211e-008
vn 3.08245e-009 -1 4.1085e-008
vn 0 -1 2.48353e-008
vn 2.32244e-010 -1 4.34578e-008
vn 2.16244e-008 -1 5.20951e-008
vn 3.92626e-009 -1 4.53282e-008
vn -2.0099e-009 -1 4.9512e-008
vn -1.56926e-008 -1 4.92384e-008
vn -1.2736e-008 -1 4.13921e-008
vn 0 -1 3.86234e-008
vn 4.87604e-009 -1 5.45268e-008
# 70 normals
f  2//1 4//1 1//1
f  3//1 4//1 2//1
f  8//1 5//1 6//1
f  7//1 8//1 6//1
f  10//1 9//1 12//1
f  11//1 10//1 12//1
f  14//1 13//1 16//1
f  14//1 16//1 15//1
f  35//2 36//2 54//2
f  35//2 17//2 36//2
f  36//3 18//4 37//5
f  17//6 18//4 36//3
f  37//5 19//7 38//7
f  18//4 19//7 37//5
f  38//8 20//8 39//9
f  19//10 20//8 38//8
f  39//11 21//11 40//12
f  20//13 21//11 39//11
f  40//14 22//14 41//14
f  21//14 22//14 40//14
f  41//15 23//16 42//17
f  22//15 23//16 41//15
f  42//17 24//18 43//19
f  23//16 24//18 42//17
f  43//19 25//20 44//21
f  24//18 25//20 43//19
f  44//21 26//22 45//22
f  25//20 26//22 44//21
f  26//23 46//23 45//23
f  26//23 27//23 46//23
f  27//24 47//25 46//24
f  27//24 28//26 47//25
f  28//26 48//27 47//25
f  28//26 29//28 48//27
f  29//28 49//29 48//27
f  29//28 30//29 49//29
f  30//30 50//30 49//30
f  30//30 31//30 50//30
f  50//31 32//31 51//31
f  31//31 32//31 50//31
f  32//32 52//32 51//32
f  32//32 33//32 52//32
f  33//33 53//33 52//33
f  33//33 34//33 53//33
f  34//34 54//34 53//34
f  34//34 35//34 54//34
f  32//35 31//1 30//36
f  32//35 30//36 29//37
f  33//38 32//35 29//37
f  33//38 29//37 28//39
f  25//40 27//41 26//1
f  25//40 24//42 27//41
f  35//43 34//44 33//38
f  35//43 33//38 28//39
f  24//42 28//39 27//41
f  24//42 35//43 28//39
f  18//45 17//46 35//43
f  19//47 18//45 35//43
f  23//48 35//43 24//42
f  22//49 35//43 23//48
f  21//50 35//43 22//49
f  20//51 19//47 35//43
f  21//50 20//51 35//43
f  50//52 51//53 49//54
f  49//54 51//53 48//55
f  51//53 52//56 48//55
f  48//55 52//56 47//57
f  46//58 44//59 45//60
f  43//61 44//59 46//58
f  53//62 54//63 52//56
f  52//56 54//63 47//57
f  47//57 43//61 46//58
f  54//63 43//61 47//57
f  36//64 37//65 54//63
f  37//65 38//66 54//63
f  54//63 42//67 43//61
f  54//63 41//68 42//67
f  54//63 40//69 41//68
f  39//70 40//69 54//63
f  38//66 39//70 54//63
