# 
# Wavefront OBJ file
# Converted by the DEEP Exploration 3.5.10.1242
# Right Hemisphere, LTD
# http://www.righthemisphere.com/
# 
# object Object #0
g Object__0
v 2.4785 -0.0496619 -1.9985
v 2.48 -0.0496619 -1.9985
v 2.48 -0.0496619 -2
v 2.4785 -0.0496619 -2
v -2.48 -0.0496619 -1.9985
v -2.4785 -0.0496619 -1.9985
v -2.4785 -0.0496619 -2
v -2.48 -0.0496619 -2
v 2.4785 -0.0496617 1.9985
v 2.48 -0.0496617 1.9985
v 2.48 -0.0496617 2
v 2.4785 -0.0496617 2
v -2.48 -0.0496617 1.9985
v -2.4785 -0.0496617 1.9985
v -2.4785 -0.0496617 2
v -2.48 -0.0496617 2
v -0.175 0.0496618 -0.025
v -0.12 0.0496618 -0.045
v -0.0600001 0.0496618 -0.075
v 0.0299999 0.0496618 -0.125
v 0.115 0.0496618 -0.18
v 0.0949999 0.0496618 0.135
v -1.19209e-007 0.0496618 0.135
v -0.0350001 0.0496618 0.195
v -0.17 0.0496618 0.185
v -0.175 0.0296618 -0.025
v -0.12 0.0296618 -0.045
v -0.0600001 0.0296618 -0.075
v 0.0299999 0.0296618 -0.125
v 0.115 0.0296618 -0.18
v 0.0949999 0.0296618 0.135
v -1.19209e-007 0.0296618 0.135
v -0.0350001 0.0296618 0.195
v -0.17 0.0296618 0.185
# 34 verticies
vn 0 1 0
vn -0.999717 0 0.0238028
vn -0.341743 -8.75251e-008 -0.939793
vn -0.377453 -1.14051e-007 -0.926029
vn -0.341743 0 -0.939793
vn -0.412662 -1.14051e-007 -0.910884
vn -0.46012 -5.5545e-008 -0.887857
vn -0.472932 0 -0.881099
vn -0.505099 0 -0.863061
vn -0.524312 0 -0.851526
vn -0.543251 0 -0.83957
vn 0.99799 0 0.0633645
vn 0 0 1
vn 0.863779 0 0.503871
vn -0.0738716 0 0.997268
vn 3.73696e-009 1 -4.60188e-008
vn 2.63271e-009 1 -3.55416e-008
vn -1.25667e-008 1 -2.58693e-008
vn 1.37839e-008 1 -4.64301e-008
vn -3.59196e-009 1 -4.20861e-008
vn -2.39464e-009 1 -4.57969e-008
vn -1.47503e-008 1 -4.58422e-008
vn -3.67623e-009 1 -5.05748e-008
vn 6.53062e-009 1 -6.64419e-008
vn 1.05309e-008 -1 4.4098e-008
vn 4.46341e-009 -1 4.47009e-008
vn 6.37735e-010 -1 5.03936e-008
vn 3.937e-009 -1 4.19999e-008
vn 5.0783e-009 -1 4.17145e-008
vn 2.62467e-009 -1 4.27828e-008
vn -1.6551e-009 -1 4.44e-008
vn -1.22541e-009 -1 4.52299e-008
vn 2.17687e-009 -1 3.99409e-008
# 33 normals
f  2//1 4//1 1//1
f  3//1 4//1 2//1
f  8//1 5//1 6//1
f  7//1 8//1 6//1
f  10//1 9//1 12//1
f  11//1 10//1 12//1
f  14//1 13//1 16//1
f  14//1 16//1 15//1
f  25//2 26//2 34//2
f  25//2 17//2 26//2
f  17//3 27//4 26//5
f  17//3 18//6 27//4
f  18//6 28//7 27//4
f  18//6 19//8 28//7
f  19//8 29//9 28//7
f  19//8 20//10 29//9
f  20//10 30//11 29//9
f  20//10 21//11 30//11
f  30//12 22//12 31//12
f  21//12 22//12 30//12
f  31//13 23//13 32//13
f  22//13 23//13 31//13
f  32//14 24//14 33//14
f  23//14 24//14 32//14
f  24//15 34//15 33//15
f  24//15 25//15 34//15
f  17//16 25//17 24//18
f  21//19 20//20 22//21
f  20//20 19//22 22//21
f  22//21 19//22 23//23
f  23//23 17//16 24//18
f  18//24 17//16 23//23
f  19//22 18//24 23//23
f  34//25 26//26 33//27
f  29//28 30//29 31//30
f  28//31 29//28 31//30
f  28//31 31//30 32//32
f  26//26 32//32 33//27
f  26//26 27//33 32//32
f  27//33 28//31 32//32
