# 
# Wavefront OBJ file
# Converted by the DEEP Exploration 3.5.10.1242
# Right Hemisphere, LTD
# http://www.righthemisphere.com/
# 
# object Object #0
g Object__0
v 2.4785 -0.0496619 -1.9985
v 2.48 -0.0496619 -1.9985
v 2.48 -0.0496619 -2
v 2.4785 -0.0496619 -2
v -2.48 -0.0496619 -1.9985
v -2.4785 -0.0496619 -1.9985
v -2.4785 -0.0496619 -2
v -2.48 -0.0496619 -2
v 2.4785 -0.0496617 1.9985
v 2.48 -0.0496617 1.9985
v 2.48 -0.0496617 2
v 2.4785 -0.0496617 2
v -2.48 -0.0496617 1.9985
v -2.4785 -0.0496617 1.9985
v -2.4785 -0.0496617 2
v -2.48 -0.0496617 2
v -1.32 0.0496618 -0.55
v -1.07 0.0496618 -0.42
v -0.94 0.0496618 -0.3
v -0.91 0.0496618 -0.23
v -0.85 0.0496618 -0.14
v -0.69 0.0496618 -0.06
v -0.67 0.0496618 -0.02
v -0.68 0.0496618 0.03
v -0.71 0.0496618 0.08
v -0.71 0.0496618 0.11
v -0.69 0.0496618 0.17
v -0.7 0.0496618 0.24
v -0.75 0.0496618 0.26
v -0.78 0.0496618 0.26
v -0.83 0.0496618 0.25
v -0.89 0.0496618 0.29
v -1 0.0496618 0.26
v -1.05 0.0496618 0.26
v -1.12 0.0496618 0.28
v -1.17 0.0496618 0.32
v -1.19 0.0496618 0.38
v -1.47 0.0496618 0.34
v -1.46 0.0496618 0.32
v -1.47 0.0496618 0.29
v -1.49 0.0496618 0.26
v -1.52 0.0496618 0.2
v -1.53 0.0496618 0.12
v -1.56 0.0496618 0.02
v -1.53 0.0496618 -0.13
v -1.4 0.0496618 -0.22
v -1.4 0.0496618 -0.5
v -1.37 0.0496618 -0.55
v -1.32 0.0296618 -0.55
v -1.07 0.0296618 -0.42
v -0.94 0.0296618 -0.3
v -0.91 0.0296618 -0.23
v -0.85 0.0296618 -0.14
v -0.69 0.0296618 -0.06
v -0.67 0.0296618 -0.02
v -0.68 0.0296618 0.03
v -0.71 0.0296618 0.08
v -0.71 0.0296618 0.11
v -0.69 0.0296618 0.17
v -0.7 0.0296618 0.24
v -0.75 0.0296618 0.26
v -0.78 0.0296618 0.26
v -0.83 0.0296618 0.25
v -0.89 0.0296618 0.29
v -1 0.0296618 0.26
v -1.05 0.0296618 0.26
v -1.12 0.0296618 0.28
v -1.17 0.0296618 0.32
v -1.19 0.0296618 0.38
v -1.47 0.0296618 0.34
v -1.46 0.0296618 0.32
v -1.47 0.0296618 0.29
v -1.49 0.0296618 0.26
v -1.52 0.0296618 0.2
v -1.53 0.0296618 0.12
v -1.56 0.0296618 0.02
v -1.53 0.0296618 -0.13
v -1.4 0.0296618 -0.22
v -1.4 0.0296618 -0.5
v -1.37 0.0296618 -0.55
# 80 verticies
vn 0 1 0
vn 0 0 -1
vn 0.461353 0 -0.887217
vn 0.537879 0 -0.843022
vn 0.610759 0 -0.791816
vn 0.773693 0 -0.633561
vn 0.855582 0 -0.517667
vn 0.893439 0 -0.449185
vn 0.864299 0 -0.502979
vn 0.83205 0 -0.5547
vn 0.447214 -8.33e-008 -0.894427
vn 0.447214 -1.666e-007 -0.894427
vn 0.447214 0 -0.894427
vn 0.894427 -4.165e-008 -0.447213
vn 0.894427 0 -0.447213
vn 0.894427 -8.33e-008 -0.447213
vn 0.980581 0 0.196116
vn 0.951957 0 0.306233
vn 0.910386 0 0.413761
vn 0.857493 0 0.514495
vn 1 0 0
vn 0.994299 0 -0.106632
vn 0.976995 0 -0.213264
vn 0.948683 0 -0.316227
vn 0.98995 0 0.141421
vn 0.371391 0 0.928477
vn 0.189107 0 0.981956
vn -0.0656559 0 0.997842
vn -0.131312 0 0.991341
vn -0.196116 0 0.980581
vn 0.5547 0 0.83205
vn -0.263117 0 0.964764
vn -0.176801 0 0.984247
vn -0.0884007 0 0.996085
vn 0.138701 0 0.990334
vn 0.398304 0 0.917253
vn 0.517027 0 0.855969
vn 0.624695 0 0.780869
vn 0.948683 0 0.316229
vn -0.141421 0 0.98995
vn -0.894427 0 -0.447213
vn -0.948683 0 0.316227
vn -0.917015 0 0.398854
vn -0.877829 0 0.478974
vn -0.85431 0 0.519764
vn -0.875138 0 0.483873
vn -0.939017 0 0.343871
vn -0.972055 0 0.234754
vn -0.983844 0 0.179027
vn -0.972325 0 0.233634
vn -0.957826 0 0.287348
vn -0.980581 0 -0.196116
vn -0.56921 0 -0.822192
vn -1 0 0
vn -0.857493 0 -0.514495
vn -2.25775e-008 1 -5.64438e-008
vn -2.16368e-008 1 -5.58166e-008
vn -1.44245e-008 1 -5.37679e-008
vn 2.15699e-009 1 -4.12669e-008
vn 1.92978e-009 1 -3.38249e-008
vn 5.59874e-009 1 -2.43591e-008
vn -1.49837e-009 1 -4.27465e-008
vn -6.65231e-009 1 -5.1001e-008
vn -8.29991e-010 1 -4.53562e-008
vn -4.06691e-009 1 -6.50705e-009
vn -3.24883e-009 1 -1.76426e-008
vn -2.49166e-009 1 -2.88109e-008
vn -7.05719e-010 1 -4.42979e-008
vn -1.33046e-007 1 -2.66092e-008
vn -6.78927e-008 1 -3.38485e-008
vn -3.88704e-008 1 -4.35661e-008
vn 4.20621e-009 1 -4.91494e-008
vn 8.5946e-009 1 -3.90761e-008
vn -3.38663e-009 1 -5.07994e-008
vn 1.62276e-009 1 -3.1926e-008
vn 4.54303e-009 1 -4.75505e-008
vn -1.41589e-008 1 -4.3871e-008
vn -4.13922e-008 1 -4.13921e-008
vn -7.2807e-009 1 -3.97442e-008
vn 3.38462e-010 1 -5.46957e-008
vn -1.21645e-009 1 -4.70557e-008
vn 0 1 -2.06961e-008
vn -1.17147e-009 1 -4.10016e-008
vn 4.06355e-009 1 -5.85921e-008
vn 6.11474e-009 -1 4.54686e-008
vn 2.25775e-008 -1 5.64438e-008
vn 4.07649e-009 -1 4.273e-008
vn -3.68845e-010 -1 4.19881e-008
vn 4.58066e-009 -1 4.91465e-008
vn -4.45917e-010 -1 4.23928e-008
vn 3.00426e-009 -1 5.10725e-008
vn -3.32615e-009 -1 3.65877e-008
vn -1.21323e-009 -1 4.18768e-008
vn 6.36964e-010 -1 4.27417e-008
vn 0 -1 3.72529e-008
vn 8.13383e-010 -1 3.85543e-008
vn 5.42255e-010 -1 4.12249e-008
vn 5.42255e-010 -1 4.43293e-008
vn 1.93739e-009 -1 4.58108e-008
vn 8.0219e-009 -1 4.05008e-008
vn 1.33046e-008 -1 3.99138e-008
vn 6.71753e-009 -1 4.02399e-008
vn 1.70225e-009 -1 4.11407e-008
vn 3.42878e-009 -1 4.53606e-008
vn -1.05831e-010 -1 2.65462e-008
vn 2.75164e-009 -1 4.12745e-008
vn 2.11664e-009 -1 3.17496e-008
vn -3.40727e-009 -1 3.56628e-008
vn -1.24173e-008 -1 4.87512e-008
vn -4.13921e-008 -1 5.17401e-008
vn -5.28303e-009 -1 4.71182e-008
vn 5.69912e-010 -1 5.32179e-008
vn 3.42253e-009 -1 4.58656e-008
vn 7.39144e-010 -1 6.20882e-008
vn 1.57126e-009 -1 7.56903e-008
vn -2.03178e-009 -1 2.9296e-008
# 116 normals
f  2//1 4//1 1//1
f  3//1 4//1 2//1
f  8//1 5//1 6//1
f  7//1 8//1 6//1
f  10//1 9//1 12//1
f  11//1 10//1 12//1
f  14//1 13//1 16//1
f  14//1 16//1 15//1
f  80//2 17//2 49//2
f  48//2 17//2 80//2
f  49//3 18//4 50//5
f  17//3 18//4 49//3
f  50//5 19//6 51//7
f  18//4 19//6 50//5
f  51//7 20//8 52//9
f  19//6 20//8 51//7
f  52//9 21//10 53//10
f  20//8 21//10 52//9
f  53//11 22//11 54//12
f  21//13 22//11 53//11
f  54//14 23//14 55//15
f  22//16 23//14 54//14
f  55//17 24//18 56//19
f  23//17 24//18 55//17
f  56//19 25//20 57//20
f  24//18 25//20 56//19
f  57//21 26//22 58//23
f  25//21 26//22 57//21
f  58//23 27//24 59//24
f  26//22 27//24 58//23
f  59//25 28//25 60//25
f  27//25 28//25 59//25
f  60//26 29//27 61//27
f  28//26 29//27 60//26
f  29//27 62//28 61//27
f  29//27 30//29 62//28
f  30//29 63//30 62//28
f  30//29 31//30 63//30
f  63//31 32//31 64//31
f  31//31 32//31 63//31
f  32//32 65//33 64//32
f  32//32 33//34 65//33
f  33//34 66//35 65//33
f  33//34 34//35 66//35
f  66//35 35//36 67//37
f  34//35 35//36 66//35
f  67//37 36//38 68//38
f  35//36 36//38 67//37
f  68//39 37//39 69//39
f  36//39 37//39 68//39
f  37//40 70//40 69//40
f  37//40 38//40 70//40
f  38//41 71//41 70//41
f  38//41 39//41 71//41
f  39//42 72//43 71//42
f  39//42 40//44 72//43
f  40//44 73//45 72//43
f  40//44 41//46 73//45
f  41//46 74//47 73//45
f  41//46 42//48 74//47
f  42//48 75//49 74//47
f  42//48 43//50 75//49
f  43//50 76//51 75//49
f  43//50 44//51 76//51
f  44//52 77//52 76//52
f  44//52 45//52 77//52
f  45//53 78//53 77//53
f  45//53 46//53 78//53
f  46//54 79//54 78//54
f  46//54 47//54 79//54
f  47//55 80//55 79//55
f  47//55 48//55 80//55
f  28//56 27//57 29//58
f  27//57 26//59 29//58
f  31//60 33//61 32//1
f  46//62 45//63 44//64
f  17//65 48//1 47//66
f  17//65 47//66 18//67
f  18//67 47//66 46//62
f  19//68 18//67 46//62
f  19//68 46//62 44//64
f  23//69 22//70 24//71
f  22//70 21//72 24//71
f  24//71 21//72 25//73
f  36//74 38//75 37//1
f  26//59 30//76 29//58
f  26//59 31//60 30//76
f  31//60 26//59 33//61
f  19//68 44//64 43//77
f  43//77 42//78 41//79
f  19//68 43//77 41//79
f  36//74 35//80 38//75
f  20//81 19//68 41//79
f  21//72 20//81 41//79
f  25//73 21//72 41//79
f  26//59 25//73 33//61
f  25//73 34//82 33//61
f  25//73 41//79 34//82
f  34//82 41//79 40//83
f  35//80 39//84 38//75
f  35//80 34//82 40//83
f  35//80 40//83 39//84
f  59//85 60//86 61//87
f  58//88 59//85 61//87
f  65//89 63//90 64//91
f  77//92 78//93 76//94
f  80//95 49//96 79//97
f  79//97 49//96 50//98
f  79//97 50//98 78//93
f  50//98 51//99 78//93
f  78//93 51//99 76//94
f  54//100 55//101 56//102
f  53//103 54//100 56//102
f  53//103 56//102 57//104
f  70//105 68//106 69//107
f  62//108 58//88 61//87
f  63//90 58//88 62//108
f  58//88 63//90 65//89
f  76//94 51//99 75//109
f  74//110 75//109 73//111
f  75//109 51//99 73//111
f  67//112 68//106 70//105
f  51//99 52//113 73//111
f  52//113 53//103 73//111
f  53//103 57//104 73//111
f  57//104 58//88 65//89
f  66//114 57//104 65//89
f  73//111 57//104 66//114
f  73//111 66//114 72//115
f  71//116 67//112 70//105
f  72//115 67//112 71//116
f  66//114 67//112 72//115
