# 
# Wavefront OBJ file
# Converted by the DEEP Exploration 3.5.10.1242
# Right Hemisphere, LTD
# http://www.righthemisphere.com/
# 
# object Object #0
g Object__0
v 2.4785 -0.0496619 -1.9985
v 2.48 -0.0496619 -1.9985
v 2.48 -0.0496619 -2
v 2.4785 -0.0496619 -2
v -2.48 -0.0496619 -1.9985
v -2.4785 -0.0496619 -1.9985
v -2.4785 -0.0496619 -2
v -2.48 -0.0496619 -2
v 2.4785 -0.0496617 1.9985
v 2.48 -0.0496617 1.9985
v 2.48 -0.0496617 2
v 2.4785 -0.0496617 2
v -2.48 -0.0496617 1.9985
v -2.4785 -0.0496617 1.9985
v -2.4785 -0.0496617 2
v -2.48 -0.0496617 2
v 0.00999988 0.0496618 -0.985
v 0.0549999 0.0496618 -1.005
v 0.0899999 0.0496618 -1
v 0.13 0.0496618 -0.935
v 0.16 0.0496618 -0.825
v 0.19 0.0496618 -0.775
v 0.205 0.0496618 -0.67
v 0.17 0.0496618 -0.665
v 0.0899999 0.0496618 -0.68
v 0.0299999 0.0496618 -0.665
v -0.115 0.0496618 -0.66
v -0.0800001 0.0496618 -0.715
v -0.0450001 0.0496618 -0.75
v -0.0550001 0.0496618 -0.77
v -0.0250001 0.0496618 -0.89
v -0.0300001 0.0496618 -0.935
v 0.00999988 0.0296618 -0.985
v 0.0549999 0.0296618 -1.005
v 0.0899999 0.0296618 -1
v 0.13 0.0296618 -0.935
v 0.16 0.0296618 -0.825
v 0.19 0.0296618 -0.775
v 0.205 0.0296618 -0.67
v 0.17 0.0296618 -0.665
v 0.0899999 0.0296618 -0.68
v 0.0299999 0.0296618 -0.665
v -0.115 0.0296618 -0.66
v -0.0800001 0.0296618 -0.715
v -0.0450001 0.0296618 -0.75
v -0.0550001 0.0296618 -0.77
v -0.0250001 0.0296618 -0.89
v -0.0300001 0.0296618 -0.935
# 48 verticies
vn 0 1 0
vn -0.780869 0 -0.624695
vn -0.406138 0 -0.913812
vn 0.141421 0 -0.98995
vn 0.851658 0 -0.524097
vn 0.897464 0 -0.441087
vn 0.93551 0 -0.353301
vn 0.936815 0 -0.349826
vn 0.900757 0 -0.434323
vn 0.917769 0 -0.397114
vn 0.962711 0 -0.270532
vn 0.98995 0 -0.141421
vn 0.141421 0 0.98995
vn -0.0217237 0 0.999764
vn -0.0217237 0 0.999764
vn 0.0298109 0 0.999556
vn 0.174034 0 0.98474
vn 0.104333 0 0.994542
vn 0.0344622 0 0.999406
vn -0.843661 0 -0.536876
vn -0.802401 0 -0.596786
vn -0.75664 0 -0.653832
vn -0.707107 0 -0.707107
vn -0.894427 0 0.447214
vn -0.970143 0 -0.242536
vn -0.991947 0 -0.126654
vn -0.999973 0 -0.00732683
vn -0.993884 0 0.110431
vn 8.09496e-009 1 -3.63606e-008
vn 1.66307e-008 1 -3.65877e-008
vn 1.04052e-008 1 -4.48849e-008
vn -2.51124e-009 1 -3.76049e-008
vn -4.96705e-009 1 -3.47694e-008
vn -2.74369e-009 1 -4.54283e-008
vn 5.86767e-010 1 -3.37596e-008
vn -7.89745e-009 1 -6.52437e-008
vn -9.08606e-009 1 -8.17746e-008
vn 1.1157e-008 1 -4.86338e-008
vn 8.97659e-009 1 -6.28362e-008
vn -3.52308e-009 1 -4.94437e-008
vn 1.88257e-009 1 -5.3562e-008
vn 4.87059e-009 1 -4.42761e-008
vn 4.13921e-008 1 -2.06961e-008
vn -7.86762e-009 -1 5.45617e-008
vn -2.25288e-009 -1 4.83433e-008
vn -1.0746e-008 -1 6.08942e-008
vn -7.3095e-009 -1 3.91836e-008
vn 2.51124e-009 -1 3.76049e-008
vn 1.81237e-009 -1 3.66739e-008
vn 4.96705e-009 -1 3.47694e-008
vn -5.86767e-010 -1 3.37596e-008
vn 4.54303e-009 -1 4.08873e-008
vn -2.72743e-009 -1 4.86446e-008
vn -9.98036e-009 -1 4.03477e-008
vn 2.09213e-008 -1 3.08028e-008
vn 5.38596e-008 -1 -4.48829e-009
vn 1.09163e-008 -1 3.76669e-008
vn 4.02561e-009 -1 4.19574e-008
vn -6.20881e-008 -1 3.10441e-008
# 59 normals
f  2//1 4//1 1//1
f  3//1 4//1 2//1
f  8//1 5//1 6//1
f  7//1 8//1 6//1
f  10//1 9//1 12//1
f  11//1 10//1 12//1
f  14//1 13//1 16//1
f  14//1 16//1 15//1
f  32//2 33//2 48//2
f  32//2 17//2 33//2
f  17//3 34//3 33//3
f  17//3 18//3 34//3
f  34//4 19//4 35//4
f  18//4 19//4 34//4
f  35//5 20//6 36//7
f  19//5 20//6 35//5
f  36//7 21//8 37//9
f  20//6 21//8 36//7
f  37//9 22//10 38//11
f  21//8 22//10 37//9
f  38//11 23//12 39//12
f  22//10 23//12 38//11
f  39//13 24//14 40//15
f  23//13 24//14 39//13
f  24//14 41//16 40//15
f  24//14 25//16 41//16
f  41//16 26//17 42//18
f  25//16 26//17 41//16
f  42//18 27//19 43//19
f  26//17 27//19 42//18
f  27//20 44//21 43//20
f  27//20 28//22 44//21
f  28//22 45//23 44//21
f  28//22 29//23 45//23
f  29//24 46//24 45//24
f  29//24 30//24 46//24
f  30//25 47//26 46//25
f  30//25 31//27 47//26
f  31//27 48//28 47//26
f  31//27 32//28 48//28
f  26//29 28//30 27//1
f  29//31 28//30 26//29
f  25//32 29//31 26//29
f  23//33 22//34 24//35
f  22//34 25//32 24//35
f  22//34 29//31 25//32
f  17//36 32//37 31//38
f  19//39 18//40 20//41
f  18//40 17//36 20//41
f  20//41 17//36 31//38
f  20//41 31//38 21//42
f  22//34 21//42 29//31
f  21//42 31//38 29//31
f  31//38 30//43 29//31
f  44//44 42//45 43//46
f  44//44 45//47 42//45
f  45//47 41//48 42//45
f  38//49 39//50 40//51
f  41//48 38//49 40//51
f  45//47 38//49 41//48
f  48//52 33//53 47//54
f  34//55 35//56 36//57
f  33//53 34//55 36//57
f  33//53 36//57 47//54
f  47//54 36//57 37//58
f  37//58 38//49 45//47
f  46//59 47//54 45//47
f  47//54 37//58 45//47
