# 
# Wavefront OBJ file
# Converted by the DEEP Exploration 3.5.10.1242
# Right Hemisphere, LTD
# http://www.righthemisphere.com/
# 
# object Object #0
g Object__0
v 2.4785 -0.0496619 -1.9985
v 2.48 -0.0496619 -1.9985
v 2.48 -0.0496619 -2
v 2.4785 -0.0496619 -2
v -2.48 -0.0496619 -1.9985
v -2.4785 -0.0496619 -1.9985
v -2.4785 -0.0496619 -2
v -2.48 -0.0496619 -2
v 2.4785 -0.0496617 1.9985
v 2.48 -0.0496617 1.9985
v 2.48 -0.0496617 2
v 2.4785 -0.0496617 2
v -2.48 -0.0496617 1.9985
v -2.4785 -0.0496617 1.9985
v -2.4785 -0.0496617 2
v -2.48 -0.0496617 2
v -0.205 0.0496618 -0.915
v -0.215 0.0496618 -0.675
v -0.22 0.0496618 -0.54
v -0.39 0.0496618 -0.555
v -0.37 0.0496618 -0.745
v -0.315 0.0496618 -0.8
v -0.27 0.0496618 -0.895
v -0.205 0.0296618 -0.915
v -0.215 0.0296618 -0.675
v -0.22 0.0296618 -0.54
v -0.39 0.0296618 -0.555
v -0.37 0.0296618 -0.745
v -0.315 0.0296618 -0.8
v -0.27 0.0296618 -0.895
# 30 verticies
vn 0 1 0
vn -0.294086 0 -0.955779
vn 0.999133 0 0.0416306
vn 0.999196 0 0.040091
vn 0.999257 0 0.0385514
vn 0.999315 0 0.0370116
vn -0.0878937 0 0.99613
vn -0.994505 0 -0.104685
vn -0.707107 0 -0.707107
vn -0.782852 0 -0.622208
vn -0.849261 0 -0.527973
vn -0.903738 0 -0.428086
vn -3.1841e-009 1 -4.39478e-008
vn -1.1513e-008 1 -4.78339e-008
vn -1.69883e-008 1 -5.58187e-008
vn -1.12973e-008 1 -2.8203e-008
vn 1.08099e-008 1 -3.84502e-008
vn -1.45141e-008 1 -4.71709e-008
vn 1.18312e-008 1 -5.37572e-008
vn -4.53716e-009 -1 3.99494e-008
vn -1.09258e-009 -1 4.30804e-008
vn -3.64035e-009 -1 4.12573e-008
vn -9.11395e-009 -1 4.67901e-008
vn -4.24184e-009 -1 4.8097e-008
vn 8.20268e-009 -1 4.02822e-008
vn 1.20951e-008 -1 3.93091e-008
# 26 normals
f  2//1 4//1 1//1
f  3//1 4//1 2//1
f  8//1 5//1 6//1
f  7//1 8//1 6//1
f  10//1 9//1 12//1
f  11//1 10//1 12//1
f  14//1 13//1 16//1
f  14//1 16//1 15//1
f  23//2 24//2 30//2
f  23//2 17//2 24//2
f  24//3 18//4 25//5
f  17//3 18//4 24//3
f  25//5 19//6 26//6
f  18//4 19//6 25//5
f  19//7 27//7 26//7
f  19//7 20//7 27//7
f  20//8 28//8 27//8
f  20//8 21//8 28//8
f  21//9 29//10 28//9
f  21//9 22//11 29//10
f  22//11 30//12 29//10
f  22//11 23//12 30//12
f  18//13 20//14 19//15
f  18//13 21//16 20//14
f  22//17 21//16 18//13
f  17//18 23//19 18//13
f  23//19 22//17 18//13
f  27//20 25//21 26//22
f  28//23 25//21 27//20
f  28//23 29//24 25//21
f  30//25 24//26 25//21
f  29//24 30//25 25//21
