# 
# Wavefront OBJ file
# Converted by the DEEP Exploration 3.5.10.1242
# Right Hemisphere, LTD
# http://www.righthemisphere.com/
# 
# object Object #0
g Object__0
v 2.4785 -0.0496619 -1.9985
v 2.48 -0.0496619 -1.9985
v 2.48 -0.0496619 -2
v 2.4785 -0.0496619 -2
v -2.48 -0.0496619 -1.9985
v -2.4785 -0.0496619 -1.9985
v -2.4785 -0.0496619 -2
v -2.48 -0.0496619 -2
v 2.4785 -0.0496617 1.9985
v 2.48 -0.0496617 1.9985
v 2.48 -0.0496617 2
v 2.4785 -0.0496617 2
v -2.48 -0.0496617 1.9985
v -2.4785 -0.0496617 1.9985
v -2.4785 -0.0496617 2
v -2.48 -0.0496617 2
v -1.49 0.0496618 0.35
v -1.2 0.0496618 0.4
v -1.23 0.0496618 0.42
v -1.23 0.0496618 0.46
v -1.23 0.0496619 0.55
v -1.25 0.0496619 0.59
v -1.28 0.0496619 0.63
v -1.37 0.0496619 0.54
v -1.44 0.0496619 0.62
v -1.5 0.0496619 0.67
v -1.59 0.0496619 0.72
v -1.66 0.0496619 0.72
v -1.8 0.0496619 0.85
v -1.82 0.0496619 0.79
v -1.72 0.0496619 0.69
v -1.8 0.0496619 0.6
v -1.8 0.0496619 0.57
v -1.75 0.0496619 0.57
v -1.65 0.0496619 0.5
v -1.57 0.0496618 0.46
v -1.49 0.0296618 0.35
v -1.2 0.0296618 0.4
v -1.23 0.0296618 0.42
v -1.23 0.0296618 0.46
v -1.23 0.0296619 0.55
v -1.25 0.0296619 0.59
v -1.28 0.0296619 0.63
v -1.37 0.0296619 0.54
v -1.44 0.0296619 0.62
v -1.5 0.0296619 0.67
v -1.59 0.0296619 0.72
v -1.66 0.0296619 0.72
v -1.8 0.0296619 0.85
v -1.82 0.0296619 0.79
v -1.72 0.0296619 0.69
v -1.8 0.0296619 0.6
v -1.8 0.0296619 0.57
v -1.75 0.0296619 0.57
v -1.65 0.0296618 0.5
v -1.57 0.0296618 0.46
# 56 verticies
vn 0 1 0
vn -0.808736 0 -0.588172
vn 0.169907 0 -0.98546
vn 0.5547 0 0.83205
vn 1 0 0
vn 0.894427 0 0.447214
vn 0.866062 0 0.499937
vn 0.834472 0 0.55105
vn 0.8 0 0.599999
vn -0.707107 0 0.707107
vn 0.752576 0 0.658505
vn 0.717081 0 0.69699
vn 0.679514 0 0.733663
vn 0.590981 0 0.806686
vn 0.539265 0 0.842136
vn 0.485643 0 0.874157
vn 0 0 1
vn 0.680451 0 0.732794
vn -0.948683 0 0.316229
vn -0.707107 0 -0.707107
vn -0.74741 0 0.664364
vn -1 0 0
vn 0 0 -1
vn -0.573462 0 -0.819232
vn -0.532659 0 -0.84633
vn -0.490475 0 -0.871455
vn -0.447214 0 -0.894427
vn -9.95564e-010 1 -2.04472e-008
vn -8.09847e-009 1 -1.34974e-008
vn 6.49695e-009 1 -2.98226e-008
vn 6.10681e-009 1 -3.79314e-008
vn -8.61487e-009 1 -5.38302e-008
vn 1.35046e-009 1 -3.86002e-008
vn -2.36526e-008 1 -1.77395e-008
vn 6.39696e-009 1 -3.81936e-008
vn 4.51551e-009 1 -4.28973e-008
vn -3.38662e-009 1 -6.09593e-008
vn 4.68975e-009 1 -6.56565e-008
vn 1.47829e-008 1 -2.06961e-008
vn -3.11306e-009 1 -1.91972e-008
vn -6.22611e-009 1 -3.83944e-008
vn 3.4216e-009 1 -3.96183e-008
vn -8.1695e-009 1 -3.16382e-008
vn 4.88334e-009 1 -4.87256e-008
vn 6.94154e-009 1 -5.22061e-008
vn 7.45864e-009 1 -1.19943e-008
vn 0 -1 6.20881e-008
vn 1.26359e-009 -1 5.14242e-008
vn -4.04922e-009 -1 5.53394e-008
vn 3.87963e-009 -1 4.82263e-008
vn 4.60957e-009 -1 4.30057e-008
vn -1.52077e-009 -1 4.50666e-008
vn -3.08401e-009 -1 4.46546e-008
vn -2.95656e-009 -1 4.43487e-008
vn -3.19849e-009 -1 4.59076e-008
vn 8.1529e-010 -1 4.423e-008
vn -8.46656e-009 -1 3.38663e-008
vn -3.08402e-009 -1 4.31763e-008
vn -1.47829e-009 -1 4.39791e-008
vn -2.07537e-009 -1 4.929e-008
vn 2.28848e-009 -1 7.62004e-008
vn 1.37572e-009 -1 5.55008e-008
vn 1.22543e-009 -1 4.19986e-008
vn 2.04274e-009 -1 4.30453e-008
vn 2.31385e-009 -1 4.46861e-008
vn 2.21744e-009 -1 6.54144e-008
# 66 normals
f  2//1 4//1 1//1
f  3//1 4//1 2//1
f  8//1 5//1 6//1
f  7//1 8//1 6//1
f  10//1 9//1 12//1
f  11//1 10//1 12//1
f  14//1 13//1 16//1
f  14//1 16//1 15//1
f  36//2 37//2 56//2
f  36//2 17//2 37//2
f  37//3 18//3 38//3
f  17//3 18//3 37//3
f  38//4 19//4 39//4
f  18//4 19//4 38//4
f  39//5 20//5 40//5
f  19//5 20//5 39//5
f  40//5 21//5 41//5
f  20//5 21//5 40//5
f  41//6 22//7 42//8
f  21//6 22//7 41//6
f  42//8 23//9 43//9
f  22//7 23//9 42//8
f  23//10 44//10 43//10
f  23//10 24//10 44//10
f  44//11 25//12 45//13
f  24//11 25//12 44//11
f  45//13 26//14 46//15
f  25//12 26//14 45//13
f  46//15 27//16 47//16
f  26//14 27//16 46//15
f  27//17 48//17 47//17
f  27//17 28//17 48//17
f  48//18 29//18 49//18
f  28//18 29//18 48//18
f  29//19 50//19 49//19
f  29//19 30//19 50//19
f  30//20 51//20 50//20
f  30//20 31//20 51//20
f  31//21 52//21 51//21
f  31//21 32//21 52//21
f  32//22 53//22 52//22
f  32//22 33//22 53//22
f  53//23 34//23 54//23
f  33//23 34//23 53//23
f  34//24 55//25 54//24
f  34//24 35//26 55//25
f  35//26 56//27 55//25
f  35//26 36//27 56//27
f  34//28 33//1 32//29
f  34//28 32//29 31//30
f  35//31 34//28 31//30
f  22//32 24//33 23//34
f  28//35 30//36 29//37
f  21//38 24//33 22//32
f  20//39 24//33 21//38
f  18//40 17//41 36//42
f  28//35 31//30 30//36
f  35//31 31//30 28//35
f  35//31 28//35 27//43
f  26//44 35//31 27//43
f  36//42 35//31 26//44
f  25//45 36//42 26//44
f  24//33 36//42 25//45
f  20//39 19//46 24//33
f  19//46 18//40 36//42
f  19//46 36//42 24//33
f  53//47 54//48 52//49
f  52//49 54//48 51//50
f  54//48 55//51 51//50
f  44//52 42//53 43//54
f  50//55 48//56 49//57
f  44//52 41//58 42//53
f  44//52 40//59 41//58
f  37//60 38//61 56//62
f  51//50 48//56 50//55
f  51//50 55//51 48//56
f  48//56 55//51 47//63
f  55//51 46//64 47//63
f  55//51 56//62 46//64
f  56//62 45//65 46//64
f  56//62 44//52 45//65
f  39//66 40//59 44//52
f  56//62 39//66 44//52
f  38//61 39//66 56//62
