# 
# Wavefront OBJ file
# Converted by the DEEP Exploration 3.5.10.1242
# Right Hemisphere, LTD
# http://www.righthemisphere.com/
# 
# object Object #0
g Object__0
v 2.4785 -0.0496619 -1.9985
v 2.48 -0.0496619 -1.9985
v 2.48 -0.0496619 -2
v 2.4785 -0.0496619 -2
v -2.48 -0.0496619 -1.9985
v -2.4785 -0.0496619 -1.9985
v -2.4785 -0.0496619 -2
v -2.48 -0.0496619 -2
v 2.4785 -0.0496617 1.9985
v 2.48 -0.0496617 1.9985
v 2.48 -0.0496617 2
v 2.4785 -0.0496617 2
v -2.48 -0.0496617 1.9985
v -2.4785 -0.0496617 1.9985
v -2.4785 -0.0496617 2
v -2.48 -0.0496617 2
v -0.65 0.0496619 0.86
v -0.61 0.0496619 0.7
v -0.6 0.0496619 0.65
v -0.57 0.0496619 0.59
v -0.51 0.0496619 0.56
v -0.44 0.0496619 0.51
v -0.42 0.0496619 0.48
v -0.38 0.0496619 0.5
v -0.34 0.0496619 0.56
v -0.26 0.0496619 0.65
v -0.21 0.0496619 0.7
v -0.23 0.0496619 0.74
v -0.33 0.0496619 0.73
v -0.38 0.0496619 0.78
v -0.41 0.0496619 0.87
v -0.41 0.0496619 0.92
v -0.65 0.0296619 0.86
v -0.61 0.0296619 0.7
v -0.6 0.0296619 0.65
v -0.57 0.0296619 0.59
v -0.51 0.0296619 0.56
v -0.44 0.0296618 0.51
v -0.42 0.0296618 0.48
v -0.38 0.0296618 0.5
v -0.34 0.0296619 0.56
v -0.26 0.0296619 0.65
v -0.21 0.0296619 0.7
v -0.23 0.0296619 0.74
v -0.33 0.0296619 0.73
v -0.38 0.0296619 0.78
v -0.41 0.0296619 0.87
v -0.41 0.0296619 0.92
# 48 verticies
vn 0 1 0
vn -0.242536 0 0.970142
vn -0.970143 0 -0.242535
vn -0.973867 0 -0.227119
vn -0.977347 0 -0.211642
vn -0.959405 0 -0.282032
vn -0.930459 0 -0.366395
vn -0.894427 0 -0.447214
vn -0.447213 0 -0.894427
vn -0.493231 0 -0.869898
vn -0.538028 0 -0.842927
vn -0.674659 0 -0.738129
vn -0.759498 0 -0.65051
vn -0.83205 0 -0.5547
vn 0.447214 0 -0.894427
vn 0.83205 0 -0.5547
vn 0.805556 0 -0.592519
vn 0.777282 0 -0.629152
vn 0.734257 0 -0.678872
vn 0.720817 0 -0.693125
vn 0.707107 0 -0.707107
vn 0.894427 0 0.447214
vn -0.0995036 0 0.995037
vn 0.707107 0 0.707107
vn 0.948683 0 0.316228
vn 0.976995 0 0.213264
vn 0.994299 0 0.106632
vn 1 0 0
vn -3.13844e-009 1 -4.27843e-008
vn -3.65225e-009 1 -4.74792e-008
vn 1.12124e-008 1 -6.09925e-008
vn 6.20881e-008 1 -6.20881e-008
vn 2.31011e-008 1 -4.96357e-008
vn 3.3185e-008 1 -5.24538e-008
vn -3.51804e-009 1 -3.79833e-008
vn -1.59498e-009 1 -5.45529e-008
vn -4.65661e-009 1 -2.79397e-008
vn -3.10441e-009 1 -4.34617e-008
vn -8.58964e-009 1 -4.14406e-008
vn -1.09082e-008 1 -2.94257e-008
vn 3.08625e-009 1 -3.95767e-008
vn 4.14172e-009 1 -4.33654e-008
vn -5.57202e-009 1 -2.90541e-008
vn 3.65225e-009 -1 4.74792e-008
vn -5.88292e-009 -1 5.33977e-008
vn -1.12124e-008 -1 6.09925e-008
vn -4.47467e-009 -1 4.34269e-008
vn -6.20881e-009 -1 4.34617e-008
vn -5.24537e-009 -1 4.31406e-008
vn -1.00553e-009 -1 4.2773e-008
vn 4.30833e-010 -1 3.82548e-008
vn 1.16415e-008 -1 6.98492e-008
vn 8.14906e-009 -1 4.88944e-008
vn 5.43271e-009 -1 4.50139e-008
vn -1.10795e-009 -1 4.20911e-008
vn -2.02189e-009 -1 4.27107e-008
vn -3.26783e-010 -1 4.09564e-008
vn -3.66412e-009 -1 4.71862e-008
vn 6.52722e-009 -1 3.66957e-008
# 59 normals
f  2//1 4//1 1//1
f  3//1 4//1 2//1
f  8//1 5//1 6//1
f  7//1 8//1 6//1
f  10//1 9//1 12//1
f  11//1 10//1 12//1
f  14//1 13//1 16//1
f  14//1 16//1 15//1
f  32//2 33//2 48//2
f  32//2 17//2 33//2
f  17//3 34//4 33//3
f  17//3 18//5 34//4
f  18//5 35//6 34//4
f  18//5 19//7 35//6
f  19//7 36//8 35//6
f  19//7 20//8 36//8
f  20//9 37//10 36//9
f  20//9 21//11 37//10
f  21//11 38//12 37//10
f  21//11 22//13 38//12
f  22//13 39//14 38//12
f  22//13 23//14 39//14
f  39//15 24//15 40//15
f  23//15 24//15 39//15
f  40//16 25//17 41//18
f  24//16 25//17 40//16
f  41//18 26//19 42//20
f  25//17 26//19 41//18
f  42//20 27//21 43//21
f  26//19 27//21 42//20
f  43//22 28//22 44//22
f  27//22 28//22 43//22
f  28//23 45//23 44//23
f  28//23 29//23 45//23
f  45//24 30//24 46//24
f  29//24 30//24 45//24
f  46//25 31//26 47//27
f  30//25 31//26 46//25
f  47//27 32//28 48//28
f  31//26 32//28 47//27
f  18//29 17//30 32//31
f  27//32 26//33 28//34
f  26//33 29//35 28//34
f  26//33 25//36 29//35
f  24//37 23//1 22//38
f  24//37 22//38 25//36
f  22//38 21//39 25//36
f  25//36 21//39 29//35
f  29//35 21//39 30//40
f  21//39 20//41 30//40
f  30//40 20//41 31//42
f  20//41 19//43 31//42
f  19//43 18//29 31//42
f  31//42 18//29 32//31
f  33//44 34//45 48//46
f  42//47 43//48 44//49
f  45//50 42//47 44//49
f  41//51 42//47 45//50
f  39//52 40//53 38//54
f  38//54 40//53 41//51
f  37//55 38//54 41//51
f  37//55 41//51 45//50
f  37//55 45//50 46//56
f  36//57 37//55 46//56
f  36//57 46//56 47//58
f  35//59 36//57 47//58
f  34//45 47//58 48//46
f  34//45 35//59 47//58
