# 
# Wavefront OBJ file
# Converted by the DEEP Exploration 3.5.10.1242
# Right Hemisphere, LTD
# http://www.righthemisphere.com/
# 
# object Object #0
g Object__0
v 2.4785 -0.0496619 -1.9985
v 2.48 -0.0496619 -1.9985
v 2.48 -0.0496619 -2
v 2.4785 -0.0496619 -2
v -2.48 -0.0496619 -1.9985
v -2.4785 -0.0496619 -1.9985
v -2.4785 -0.0496619 -2
v -2.48 -0.0496619 -2
v 2.4785 -0.0496617 1.9985
v 2.48 -0.0496617 1.9985
v 2.48 -0.0496617 2
v 2.4785 -0.0496617 2
v -2.48 -0.0496617 1.9985
v -2.4785 -0.0496617 1.9985
v -2.4785 -0.0496617 2
v -2.48 -0.0496617 2
v 0.77 0.0496618 0.085
v 0.825 0.0496618 0.11
v 0.845 0.0496618 0.145
v 0.765 0.0496618 0.41
v 0.735 0.0496619 0.485
v 0.765 0.0496619 0.5
v 0.845 0.0496619 0.525
v 1.005 0.0496619 0.59
v 1.07 0.0496619 0.5
v 1.055 0.0496619 0.47
v 1.105 0.0496618 0.4
v 1.22 0.0496618 0.32
v 1.305 0.0496618 0.245
v 1.345 0.0496618 0.215
v 1.315 0.0496618 0.19
v 1.035 0.0496618 0.115
v 0.995 0.0496618 0.08
v 0.97 0.0496618 0.03
v 0.965 0.0496618 -0.06
v 0.81 0.0496618 0.015
v 0.795 0.0496618 0.055
v 0.755 0.0496618 0.06
v 0.695 0.0496618 0.015
v 0.69 0.0496618 0.055
v 0.77 0.0296618 0.085
v 0.825 0.0296618 0.11
v 0.845 0.0296618 0.145
v 0.765 0.0296618 0.41
v 0.735 0.0296618 0.485
v 0.765 0.0296618 0.5
v 0.845 0.0296618 0.525
v 1.005 0.0296619 0.59
v 1.07 0.0296618 0.5
v 1.055 0.0296618 0.47
v 1.105 0.0296618 0.4
v 1.22 0.0296618 0.32
v 1.305 0.0296618 0.245
v 1.345 0.0296618 0.215
v 1.315 0.0296618 0.19
v 1.035 0.0296618 0.115
v 0.995 0.0296618 0.08
v 0.97 0.0296618 0.03
v 0.965 0.0296618 -0.06
v 0.81 0.0296618 0.015
v 0.795 0.0296618 0.055
v 0.755 0.0296618 0.06
v 0.695 0.0296618 0.015
v 0.69 0.0296618 0.055
# 64 verticies
vn 0 1 0
vn -0.372207 5.81647e-008 0.92815
vn -0.351124 8.72024e-008 0.936329
vn -0.393111 0 0.919491
vn -0.351124 1.74405e-007 0.936329
vn -0.413803 0 0.910367
vn -0.868243 0 0.49614
vn -0.948514 0 -0.316735
vn -0.957328 0 -0.289005
vn -0.938889 0 -0.34422
vn -0.928477 0 -0.37139
vn -0.398711 0 0.917076
vn -0.447214 0 0.894427
vn -0.348922 0 0.937152
vn -0.324557 0 0.945866
vn -0.350611 0 0.936521
vn -0.376377 0 0.926467
vn 0.810679 0 0.585491
vn 0.894426 0 -0.447216
vn 0.742503 0 0.669842
vn 0.813733 0 0.581239
vn 0.660548 0 0.750784
vn 0.602138 0 0.798392
vn 0.632368 0 0.774668
vn 0.641531 0 0.767097
vn 0.620976 0 0.78383
vn 0.599999 0 0.800001
vn 0.523893 0 -0.851784
vn 0.640185 0 -0.768221
vn 0.394053 0 -0.919088
vn 0.258736 0 -0.965948
vn 0.749653 0 -0.661831
vn 0.658505 0 -0.752576
vn 0.829628 0 -0.558316
vn 0.946544 0 -0.322575
vn 0.981872 -3.50871e-009 -0.189544
vn 0.99846 -5.1661e-009 -0.0554706
vn 0.99846 -1.03322e-008 -0.0554706
vn -0.435561 -1.04792e-007 -0.900159
vn -0.435561 -4.19169e-008 -0.900159
vn -0.435561 -1.67668e-007 -0.900159
vn -0.936329 -4.08761e-008 -0.351123
vn -0.936329 -6.54018e-008 -0.351123
vn -0.936329 -1.63504e-008 -0.351123
vn -0.124035 -1.84826e-007 -0.992278
vn 0.6 -9.31322e-008 -0.8
vn 0.6 -1.49012e-007 -0.8
vn 0.6 -3.72529e-008 -0.8
vn -0.992278 -1.44395e-008 -0.124035
vn -0.992278 -2.31032e-008 -0.124035
vn -0.992278 -5.77581e-009 -0.124035
vn 3.90083e-009 1 -4.16088e-008
vn 7.44985e-009 1 -6.95803e-008
vn 5.61463e-009 1 -5.98894e-008
vn -8.04616e-008 1 9.91927e-009
vn 1.53119e-009 1 -3.88217e-008
vn -5.00039e-009 1 -4.50035e-008
vn -3.97633e-008 1 -1.06149e-008
vn 3.33608e-008 1 -8.89622e-008
vn -1.98817e-008 1 -5.30744e-009
vn 7.6254e-009 1 -3.87408e-008
vn 2.06961e-008 1 -4.13921e-008
vn 1.68155e-008 1 -4.13921e-008
vn -1.11506e-006 1 5.83928e-007
vn 6.14957e-009 1 -5.57107e-008
vn -5.88903e-007 1 2.96969e-007
vn -5.88203e-008 1 -7.84273e-008
vn -2.53636e-008 1 -6.85575e-008
vn -3.89014e-008 1 -7.48056e-008
vn -6.88943e-009 1 -5.95651e-008
vn 2.51828e-009 1 -4.26507e-008
vn -1.2125e-009 1 -5.1987e-008
vn -8.71604e-008 1 9.26494e-009
vn -5.64437e-008 1 3.38662e-008
vn -2.04877e-006 1 1.11751e-006
vn 6.56253e-009 -1 4.05846e-008
vn 7.80165e-009 -1 4.09587e-008
vn 8.17575e-009 -1 3.69683e-008
vn -1.53119e-009 -1 3.88217e-008
vn -2.62206e-008 -1 6.03197e-008
vn 5.00039e-009 -1 4.50035e-008
vn 5.56014e-009 -1 4.72611e-008
vn -1.97974e-008 -1 7.44299e-008
vn -6.70942e-009 -1 7.09168e-008
vn 4.13922e-008 -1 4.13921e-008
vn 7.42055e-009 -1 4.03542e-008
vn 1.42286e-008 -1 4.13921e-008
vn -6.67888e-007 -1 4.17571e-007
vn 4.99678e-009 -1 4.34886e-008
vn -3.62004e-007 -1 2.54009e-007
vn 5.53633e-009 -1 6.39345e-008
vn 4.90169e-009 -1 6.86238e-008
vn 1.19421e-008 -1 6.99038e-008
vn 7.0574e-009 -1 5.33562e-008
vn -8.39119e-010 -1 4.4608e-008
vn -2.56249e-009 -1 3.9843e-008
vn -1.78489e-008 -1 5.40462e-008
vn -1.82458e-008 -1 8.54532e-008
vn -1.30172e-006 -1 7.7776e-007
# 99 normals
f  2//1 4//1 1//1
f  3//1 4//1 2//1
f  8//1 5//1 6//1
f  7//1 8//1 6//1
f  10//1 9//1 12//1
f  11//1 10//1 12//1
f  14//1 13//1 16//1
f  14//1 16//1 15//1
f  17//2 64//3 41//4
f  17//2 40//5 64//3
f  18//6 41//4 42//6
f  18//6 17//2 41//4
f  19//7 42//7 43//7
f  19//7 18//7 42//7
f  20//8 43//9 44//10
f  20//8 19//9 43//9
f  21//11 44//10 45//11
f  21//11 20//8 44//10
f  22//12 45//13 46//14
f  22//12 21//13 45//13
f  23//15 46//14 47//16
f  23//15 22//12 46//14
f  24//17 47//16 48//17
f  24//17 23//15 47//16
f  49//18 24//18 48//18
f  25//18 24//18 49//18
f  50//19 25//19 49//19
f  26//19 25//19 50//19
f  51//20 26//21 50//21
f  27//22 26//21 51//20
f  52//23 27//22 51//20
f  28//24 27//22 52//23
f  53//25 28//24 52//23
f  29//26 28//24 53//25
f  54//27 29//26 53//25
f  30//27 29//26 54//27
f  55//28 30//29 54//29
f  31//30 30//29 55//28
f  56//31 31//30 55//28
f  32//31 31//30 56//31
f  57//32 32//33 56//33
f  33//34 32//33 57//32
f  58//35 33//34 57//32
f  34//36 33//34 58//35
f  59//37 34//36 58//35
f  35//38 34//36 59//37
f  36//39 59//39 60//40
f  36//39 35//41 59//39
f  37//42 60//42 61//43
f  37//42 36//44 60//42
f  38//45 61//45 62//45
f  38//45 37//45 61//45
f  63//46 38//46 62//47
f  39//48 38//46 63//46
f  40//49 63//49 64//50
f  40//49 39//51 63//49
f  35//52 36//53 34//54
f  25//55 23//56 24//57
f  39//58 40//59 17//60
f  20//61 21//62 22//63
f  20//61 22//63 23//56
f  25//55 20//61 23//56
f  19//64 20//61 25//55
f  34//54 36//53 33//65
f  36//53 37//66 33//65
f  30//67 31//68 29//69
f  29//69 31//68 28//70
f  31//68 32//71 28//70
f  28//70 32//71 27//72
f  27//72 32//71 26//73
f  33//65 37//66 32//71
f  32//71 37//66 26//73
f  38//74 39//58 17//60
f  37//66 38//74 17//60
f  26//73 19//64 25//55
f  37//66 19//64 26//73
f  37//66 17//60 18//75
f  37//66 18//75 19//64
f  60//76 59//77 58//78
f  47//79 49//80 48//81
f  64//82 63//83 41//84
f  45//85 44//86 46//87
f  46//87 44//86 47//79
f  44//86 49//80 47//79
f  44//86 43//88 49//80
f  60//76 58//78 57//89
f  61//90 60//76 57//89
f  55//91 54//92 53//93
f  55//91 53//93 52//94
f  56//95 55//91 52//94
f  56//95 52//94 51//96
f  56//95 51//96 50//97
f  61//90 57//89 56//95
f  61//90 56//95 50//97
f  63//83 62//98 41//84
f  62//98 61//90 41//84
f  43//88 50//97 49//80
f  43//88 61//90 50//97
f  41//84 61//90 42//99
f  42//99 61//90 43//88
