# 
# Wavefront OBJ file
# Converted by the DEEP Exploration 3.5.10.1242
# Right Hemisphere, LTD
# http://www.righthemisphere.com/
# 
# object Object #0
g Object__0
v 2.4785 -0.0496619 -1.9985
v 2.48 -0.0496619 -1.9985
v 2.48 -0.0496619 -2
v 2.4785 -0.0496619 -2
v -2.48 -0.0496619 -1.9985
v -2.4785 -0.0496619 -1.9985
v -2.4785 -0.0496619 -2
v -2.48 -0.0496619 -2
v 2.4785 -0.0496617 1.9985
v 2.48 -0.0496617 1.9985
v 2.48 -0.0496617 2
v 2.4785 -0.0496617 2
v -2.48 -0.0496617 1.9985
v -2.4785 -0.0496617 1.9985
v -2.4785 -0.0496617 2
v -2.48 -0.0496617 2
v -1.14 0.0496618 -1.055
v -1.145 0.0496618 -1.175
v -1.16 0.0496618 -1.37
v -1.14 0.0496618 -1.385
v -1.1 0.0496618 -1.18
v -1.035 0.0496618 -1.165
v -0.96 0.0496618 -1.225
v -1.015 0.0496618 -1.28
v -0.995 0.0496618 -1.33
v -0.965 0.0496618 -1.325
v -0.885 0.0496618 -1.41
v -0.82 0.0496618 -1.45
v -0.805 0.0496618 -1.445
v -0.865 0.0496618 -1.36
v -0.86 0.0496618 -1.325
v -0.795 0.0496618 -1.335
v -0.755 0.0496618 -1.385
v -0.62 0.0496618 -1.505
v -0.575 0.0496618 -1.44
v -0.57 0.0496618 -1.405
v -0.55 0.0496618 -1.37
v -0.55 0.0496618 -1.3
v -0.585 0.0496618 -1.26
v -0.55 0.0496618 -1.2
v -0.58 0.0496618 -1.155
v -0.565 0.0496618 -1.075
v -0.55 0.0496618 -1.045
v -0.565 0.0496618 -1.01
v -0.61 0.0496618 -1.035
v -0.635 0.0496618 -0.965
v -0.625 0.0496618 -0.925
v -0.665 0.0496618 -0.88
v -0.625 0.0496618 -0.85
v -0.63 0.0496618 -0.82
v -0.695 0.0496618 -0.795
v -0.73 0.0496618 -0.785
v -0.785 0.0496618 -0.775
v -0.845 0.0496618 -0.74
v -0.985 0.0496618 -0.73
v -1.04 0.0496618 -0.82
v -1.11 0.0496618 -0.92
v -1.115 0.0496618 -1
v -1.14 0.0296618 -1.055
v -1.145 0.0296618 -1.175
v -1.16 0.0296618 -1.37
v -1.14 0.0296618 -1.385
v -1.1 0.0296618 -1.18
v -1.035 0.0296618 -1.165
v -0.96 0.0296618 -1.225
v -1.015 0.0296618 -1.28
v -0.995 0.0296618 -1.33
v -0.965 0.0296618 -1.325
v -0.885 0.0296618 -1.41
v -0.82 0.0296618 -1.45
v -0.805 0.0296618 -1.445
v -0.865 0.0296618 -1.36
v -0.86 0.0296618 -1.325
v -0.795 0.0296618 -1.335
v -0.755 0.0296618 -1.385
v -0.62 0.0296618 -1.505
v -0.575 0.0296618 -1.44
v -0.57 0.0296618 -1.405
v -0.55 0.0296618 -1.37
v -0.55 0.0296618 -1.3
v -0.585 0.0296618 -1.26
v -0.55 0.0296618 -1.2
v -0.58 0.0296618 -1.155
v -0.565 0.0296618 -1.075
v -0.55 0.0296618 -1.045
v -0.565 0.0296618 -1.01
v -0.61 0.0296618 -1.035
v -0.635 0.0296618 -0.965
v -0.625 0.0296618 -0.925
v -0.665 0.0296618 -0.88
v -0.625 0.0296618 -0.85
v -0.63 0.0296618 -0.82
v -0.695 0.0296618 -0.795
v -0.73 0.0296618 -0.785
v -0.785 0.0296618 -0.775
v -0.845 0.0296618 -0.74
v -0.985 0.0296618 -0.73
v -1.04 0.0296618 -0.82
v -1.11 0.0296618 -0.92
v -1.115 0.0296618 -1
# 100 verticies
vn 0 1 0
vn -0.953598 0 0.301083
vn -0.955628 0 0.294577
vn -0.983262 0 0.182195
vn -0.98571 0 0.168451
vn -0.998577 0 0.0533264
vn -0.997884 0 0.0650167
vn -0.997055 0 0.0766964
vn -0.6 0 -0.8
vn 0.981491 0 -0.19151
vn 0.224859 0 -0.974391
vn -0.624695 0 -0.780868
vn -0.707106 0 0.707107
vn -0.928477 0 -0.37139
vn 0.164399 0 -0.986394
vn -0.7282 0 -0.685365
vn -0.665309 0 -0.746568
vn -0.596745 0 -0.802431
vn -0.524098 0 -0.851658
vn 0.316228 0 -0.948683
vn 0.816968 0 0.576683
vn 0.98995 0 -0.141421
vn -0.152057 0 -0.988372
vn -0.780868 0 -0.624696
vn -0.744406 0 -0.667728
vn -0.705447 0 -0.708763
vn -0.664364 0 -0.747409
vn 0.822192 0 -0.56921
vn 0.98995 0 -0.141421
vn 0.964573 0 -0.263815
vn 0.923355 0 -0.383947
vn 0.868243 0 -0.496139
vn 1 0 0
vn 0.752577 0 0.658505
vn 0.863779 0 -0.503871
vn 0.832051 0 0.554699
vn 0.982872 0 -0.184289
vn 0.961648 0 -0.274285
vn 0.931912 0 -0.362685
vn 0.894428 0 -0.447212
vn 0.919145 0 0.393919
vn -0.485642 0 0.874158
vn 0.941742 0 0.336336
vn 0.970143 0 -0.242536
vn 0.747409 0 0.664364
vn 0.599999 0 -0.8
vn 0.986394 0 0.164399
vn 0.358979 0 0.933346
vn 0.331183 0 0.943566
vn 0.303073 0 0.952967
vn 0.243038 0 0.970017
vn 0.211058 0 0.977473
vn 0.291123 0 0.956686
vn 0.400926 0 0.91611
vn 0.503871 0 0.863779
vn 0.071247 0 0.997459
vn -0.853282 0 0.52145
vn -0.842294 0 0.539019
vn -0.830939 0 0.556364
vn -0.819232 0 0.573463
vn -0.998053 0 0.0623782
vn -9.55199e-009 1 -5.7312e-008
vn 4.20477e-009 1 -5.4066e-008
vn -4.06025e-009 1 -7.25565e-008
vn 1.16415e-008 1 -6.98491e-008
vn 9.38557e-009 1 -7.23557e-008
vn 2.37584e-007 1 1.1397e-007
vn -4.3518e-009 1 -8.19747e-008
vn 2.62804e-009 1 -5.91316e-008
vn -6.32746e-009 1 -5.02424e-008
vn -7.02442e-009 1 -2.94441e-008
vn -6.58898e-009 1 -3.39518e-008
vn -2.83292e-009 1 -3.96609e-008
vn 8.18742e-009 1 -8.39212e-008
vn 1.01033e-008 1 -3.26584e-008
vn 2.3405e-008 1 -1.36529e-008
vn 1.64418e-008 1 -3.8024e-008
vn -4.96707e-008 1 -3.31137e-008
vn -1.56976e-008 1 -3.00565e-008
vn -1.25497e-009 1 -4.50179e-008
vn -4.02425e-008 1 -7.67247e-008
vn -1.10345e-008 1 -4.67635e-008
vn -6.0821e-008 1 -5.32184e-008
vn -1.13762e-008 1 -3.7486e-008
vn -8.76854e-009 1 -3.58102e-008
vn -4.68045e-009 1 -4.1712e-008
vn 7.97605e-009 1 -5.08512e-008
vn 7.26886e-008 1 -1.81721e-008
vn 1.22668e-008 1 -4.23233e-008
vn -2.90122e-009 1 -3.7536e-008
vn 2.53344e-007 1 1.32555e-007
vn 1.00086e-008 1 -4.11653e-008
vn 9.94553e-009 1 -3.85595e-008
vn 1.18263e-008 1 -3.54789e-008
vn 4.04784e-007 1 2.3584e-007
vn -2.37784e-008 1 -3.17046e-008
vn -1.39939e-008 1 -3.47944e-008
vn -5.51143e-009 1 -4.67242e-008
vn -5.53813e-009 1 -4.98432e-008
vn 1.80035e-008 1 -4.63857e-008
vn 6.20866e-010 1 -5.03744e-008
vn -5.82656e-009 -1 3.68716e-008
vn -2.62681e-008 -1 2.86561e-008
vn -2.38801e-008 -1 4.29842e-008
vn -5.82075e-009 -1 3.49246e-008
vn -5.33939e-009 -1 3.66467e-008
vn -4.69279e-009 -1 3.61778e-008
vn 8.68858e-008 -1 1.0394e-007
vn -1.31402e-009 -1 2.95658e-008
vn 2.1759e-009 -1 4.09874e-008
vn -1.30807e-009 -1 4.6104e-008
vn -3.49864e-010 -1 4.94677e-008
vn 6.15317e-010 -1 4.50663e-008
vn 2.83292e-009 -1 3.96609e-008
vn -1.4328e-008 -1 3.04471e-008
vn -1.42381e-009 -1 5.06136e-008
vn 8.22386e-014 -1 6.20881e-008
vn 9.7521e-009 -1 5.63994e-008
vn -1.28782e-008 -1 3.92817e-008
vn -7.32284e-010 -1 4.59963e-008
vn 1.6557e-008 -1 5.243e-008
vn 6.65708e-010 -1 4.95941e-008
vn -5.89611e-009 -1 3.78831e-008
vn -1.65232e-008 -1 4.75151e-008
vn -5.27192e-010 -1 3.36985e-008
vn -2.2808e-008 -1 2.66092e-008
vn 2.95837e-009 -1 5.62942e-008
vn -7.86736e-010 -1 4.12685e-008
vn 1.05442e-008 -1 4.40567e-008
vn 2.99312e-009 -1 3.76169e-008
vn 4.54309e-009 -1 4.54304e-008
vn -5.39615e-009 -1 5.06359e-008
vn 9.39639e-008 -1 1.0745e-007
vn -5.662e-009 -1 3.83509e-008
vn 6.48535e-009 -1 4.17831e-008
vn -1.18263e-008 -1 3.54789e-008
vn 1.3873e-007 -1 1.40894e-007
vn -2.36553e-008 -1 4.66837e-008
vn -5.15201e-008 -1 5.5483e-008
vn -6.27046e-009 -1 4.74719e-008
vn 4.67977e-009 -1 4.21179e-008
vn 1.5421e-008 -1 5.11094e-008
vn 6.32749e-009 -1 4.71339e-008
# 143 normals
f  2//1 4//1 1//1
f  3//1 4//1 2//1
f  8//1 5//1 6//1
f  7//1 8//1 6//1
f  10//1 9//1 12//1
f  11//1 10//1 12//1
f  14//1 13//1 16//1
f  14//1 16//1 15//1
f  58//2 59//3 100//4
f  58//2 17//5 59//3
f  17//5 60//6 59//3
f  17//5 18//7 60//6
f  18//7 61//8 60//6
f  18//7 19//8 61//8
f  19//9 62//9 61//9
f  19//9 20//9 62//9
f  62//10 21//10 63//10
f  20//10 21//10 62//10
f  63//11 22//11 64//11
f  21//11 22//11 63//11
f  22//12 65//12 64//12
f  22//12 23//12 65//12
f  23//13 66//13 65//13
f  23//13 24//13 66//13
f  24//14 67//14 66//14
f  24//14 25//14 67//14
f  67//15 26//15 68//15
f  25//15 26//15 67//15
f  26//16 69//17 68//16
f  26//16 27//18 69//17
f  27//18 70//19 69//17
f  27//18 28//19 70//19
f  70//20 29//20 71//20
f  28//20 29//20 70//20
f  71//21 30//21 72//21
f  29//21 30//21 71//21
f  72//22 31//22 73//22
f  30//22 31//22 72//22
f  31//23 74//23 73//23
f  31//23 32//23 74//23
f  32//24 75//25 74//24
f  32//24 33//26 75//25
f  33//26 76//27 75//25
f  33//26 34//27 76//27
f  76//28 35//28 77//28
f  34//28 35//28 76//28
f  77//29 36//30 78//31
f  35//29 36//30 77//29
f  78//31 37//32 79//32
f  36//30 37//32 78//31
f  79//33 38//33 80//33
f  37//33 38//33 79//33
f  80//34 39//34 81//34
f  38//34 39//34 80//34
f  81//35 40//35 82//35
f  39//35 40//35 81//35
f  82//36 41//36 83//36
f  40//36 41//36 82//36
f  83//37 42//38 84//39
f  41//37 42//38 83//37
f  84//39 43//40 85//40
f  42//38 43//40 84//39
f  85//41 44//41 86//41
f  43//41 44//41 85//41
f  44//42 87//42 86//42
f  44//42 45//42 87//42
f  87//43 46//43 88//43
f  45//43 46//43 87//43
f  88//44 47//44 89//44
f  46//44 47//44 88//44
f  89//45 48//45 90//45
f  47//45 48//45 89//45
f  90//46 49//46 91//46
f  48//46 49//46 90//46
f  91//47 50//47 92//47
f  49//47 50//47 91//47
f  92//48 51//49 93//50
f  50//48 51//49 92//48
f  93//50 52//51 94//52
f  51//49 52//51 93//50
f  94//52 53//53 95//54
f  52//51 53//53 94//52
f  95//54 54//55 96//55
f  53//53 54//55 95//54
f  96//56 55//56 97//56
f  54//56 55//56 96//56
f  55//57 98//58 97//57
f  55//57 56//59 98//58
f  56//59 99//60 98//58
f  56//59 57//60 99//60
f  57//61 100//4 99//61
f  57//61 58//2 100//4
f  43//62 45//63 44//1
f  26//64 25//65 24//66
f  26//64 24//66 23//67
f  35//68 34//69 33//70
f  54//71 56//72 55//73
f  43//62 42//74 45//63
f  49//1 48//75 50//76
f  50//76 48//75 51//77
f  40//78 39//79 41//80
f  42//74 41//80 45//63
f  27//81 26//64 23//67
f  51//77 48//75 52//82
f  38//83 37//84 39//79
f  52//82 48//75 53//85
f  53//85 56//72 54//71
f  48//75 56//72 53//85
f  48//75 57//86 56//72
f  37//84 36//87 39//79
f  47//88 46//89 48//75
f  36//87 35//68 33//70
f  36//87 33//70 39//79
f  33//70 32//90 39//79
f  39//79 32//90 41//80
f  41//80 32//90 45//63
f  46//89 57//86 48//75
f  46//89 58//91 57//86
f  28//92 27//81 23//67
f  32//90 31//93 45//63
f  45//63 31//93 46//89
f  31//93 58//91 46//89
f  29//94 28//92 30//95
f  20//96 19//97 21//98
f  21//98 19//97 18//99
f  21//98 18//99 17//100
f  22//101 21//98 17//100
f  22//101 17//100 58//91
f  31//93 30//95 58//91
f  30//95 28//92 23//67
f  23//67 22//101 58//91
f  30//95 23//67 58//91
f  87//102 85//103 86//104
f  67//105 68//106 66//107
f  66//107 68//106 65//108
f  76//109 77//110 75//111
f  98//112 96//113 97//114
f  84//115 85//103 87//102
f  90//116 91//117 92//118
f  90//116 92//118 93//119
f  81//120 82//121 83//122
f  83//122 84//115 87//102
f  68//106 69//123 65//108
f  90//116 93//119 94//124
f  79//125 80//126 81//120
f  90//116 94//124 95//127
f  98//112 95//127 96//113
f  98//112 90//116 95//127
f  99//128 90//116 98//112
f  78//129 79//125 81//120
f  88//130 89//131 90//116
f  77//110 78//129 75//111
f  75//111 78//129 81//120
f  74//132 75//111 81//120
f  74//132 81//120 83//122
f  74//132 83//122 87//102
f  99//128 88//130 90//116
f  100//133 88//130 99//128
f  69//123 70//134 65//108
f  73//135 74//132 87//102
f  73//135 87//102 88//130
f  100//133 73//135 88//130
f  70//134 71//136 72//137
f  61//138 62//139 63//140
f  61//138 63//140 60//141
f  60//141 63//140 59//142
f  63//140 64//143 59//142
f  59//142 64//143 100//133
f  72//137 73//135 100//133
f  70//134 72//137 65//108
f  65//108 72//137 100//133
f  64//143 65//108 100//133
