# 
# Wavefront OBJ file
# Converted by the DEEP Exploration 3.5.10.1242
# Right Hemisphere, LTD
# http://www.righthemisphere.com/
# 
# object Object #0
g Object__0
v 2.4785 -0.0496619 -1.9985
v 2.48 -0.0496619 -1.9985
v 2.48 -0.0496619 -2
v 2.4785 -0.0496619 -2
v -2.48 -0.0496619 -1.9985
v -2.4785 -0.0496619 -1.9985
v -2.4785 -0.0496619 -2
v -2.48 -0.0496619 -2
v 2.4785 -0.0496617 1.9985
v 2.48 -0.0496617 1.9985
v 2.48 -0.0496617 2
v 2.4785 -0.0496617 2
v -2.48 -0.0496617 1.9985
v -2.4785 -0.0496617 1.9985
v -2.4785 -0.0496617 2
v -2.48 -0.0496617 2
v -0.43 0.0496618 -0.205
v -0.37 0.0496618 -0.2
v -0.28 0.0496618 -0.165
v -0.21 0.0496618 -0.12
v -0.25 0.0496618 -0.02
v -0.29 0.0496618 -0.01
v -0.355 0.0496618 -0.035
v -0.425 0.0496618 -0.035
v -0.45 0.0496618 -0.055
v -0.445 0.0496618 -0.14
v -0.435 0.0496618 -0.17
v -0.43 0.0296618 -0.205
v -0.37 0.0296618 -0.2
v -0.28 0.0296618 -0.165
v -0.21 0.0296618 -0.12
v -0.25 0.0296618 -0.02
v -0.29 0.0296618 -0.01
v -0.355 0.0296618 -0.035
v -0.425 0.0296618 -0.035
v -0.45 0.0296618 -0.055
v -0.445 0.0296618 -0.14
v -0.435 0.0296618 -0.17
# 38 verticies
vn 0 1 0
vn -0.979712 0 -0.20041
vn -0.98995 0 -0.141421
vn -0.965907 0 -0.258888
vn 0.0830454 0 -0.996546
vn 0.177811 0 -0.984065
vn 0.271807 0 -0.962352
vn 0.423773 0 -0.905768
vn 0.483476 0 -0.875357
vn 0.540758 0 -0.841178
vn 0.928477 0 0.371391
vn 0.242536 2.25879e-008 0.970142
vn 0.242536 4.51758e-008 0.970142
vn 0.242536 0 0.970142
vn -0.358979 1.08656e-007 0.933346
vn -0.242945 1.36563e-007 0.97004
vn -0.358979 4.34623e-008 0.933346
vn -0.121472 1.84885e-007 0.992595
vn 0 1.86264e-007 1
vn -0.624695 1.45448e-007 0.780869
vn -0.624695 1.45448e-007 0.780869
vn -0.624695 1.45448e-007 0.780869
vn -0.998274 -5.46891e-009 -0.058722
vn -0.989333 -3.67412e-009 -0.145675
vn -0.998274 -1.09378e-008 -0.058722
vn -0.972674 0 -0.232173
vn -2.32831e-008 1 -4.65661e-008
vn -7.761e-010 1 -5.12227e-008
vn -1.50956e-009 1 -3.88784e-008
vn 2.37396e-009 1 -2.91774e-008
vn -1.64001e-008 1 -2.79537e-008
vn -5.61445e-008 1 -4.70182e-008
vn -1.08829e-007 1 -5.02286e-008
vn -5.44144e-008 1 -6.05933e-008
vn -1.27478e-008 1 -3.778e-008
vn -3.31607e-009 -1 5.20694e-008
vn -7.40825e-009 -1 5.29161e-008
vn 2.78489e-009 -1 4.74409e-008
vn -4.38269e-009 -1 5.25923e-008
vn -2.41961e-009 -1 5.26634e-008
vn -4.36665e-009 -1 4.87852e-008
vn -3.34858e-008 -1 4.18572e-008
vn -1.86125e-008 -1 4.39912e-008
vn -1.67429e-008 -1 3.86681e-008
vn 4.64275e-010 -1 4.22518e-008
vn 1.12888e-008 -1 4.5155e-008
# 46 normals
f  2//1 4//1 1//1
f  3//1 4//1 2//1
f  8//1 5//1 6//1
f  7//1 8//1 6//1
f  10//1 9//1 12//1
f  11//1 10//1 12//1
f  14//1 13//1 16//1
f  14//1 16//1 15//1
f  27//2 28//3 38//4
f  27//2 17//3 28//3
f  28//5 18//6 29//7
f  17//5 18//6 28//5
f  29//7 19//8 30//9
f  18//6 19//8 29//7
f  30//9 20//10 31//10
f  19//8 20//10 30//9
f  31//11 21//11 32//11
f  20//11 21//11 31//11
f  32//12 22//12 33//13
f  21//14 22//12 32//12
f  22//15 34//16 33//17
f  22//15 23//18 34//16
f  23//18 35//19 34//16
f  23//18 24//19 35//19
f  24//20 36//20 35//21
f  24//20 25//22 36//20
f  25//23 37//24 36//25
f  25//23 26//26 37//24
f  26//26 38//4 37//24
f  26//26 27//2 38//4
f  20//27 19//28 21//29
f  18//30 17//1 27//31
f  19//28 18//30 21//29
f  18//30 27//31 21//29
f  26//32 25//33 24//34
f  26//32 24//34 23//35
f  21//29 23//35 22//1
f  27//31 23//35 21//29
f  27//31 26//32 23//35
f  30//36 31//37 32//38
f  28//39 29//40 38//41
f  29//40 30//36 32//38
f  38//41 29//40 32//38
f  36//42 37//43 35//44
f  35//44 37//43 34//45
f  34//45 32//38 33//46
f  37//43 38//41 34//45
f  34//45 38//41 32//38
