# 
# Wavefront OBJ file
# Converted by the DEEP Exploration 3.5.10.1242
# Right Hemisphere, LTD
# http://www.righthemisphere.com/
# 
# object Object #0
g Object__0
v 2.4785 -0.0496619 -1.9985
v 2.48 -0.0496619 -1.9985
v 2.48 -0.0496619 -2
v 2.4785 -0.0496619 -2
v -2.48 -0.0496619 -1.9985
v -2.4785 -0.0496619 -1.9985
v -2.4785 -0.0496619 -2
v -2.48 -0.0496619 -2
v 2.4785 -0.0496617 1.9985
v 2.48 -0.0496617 1.9985
v 2.48 -0.0496617 2
v 2.4785 -0.0496617 2
v -2.48 -0.0496617 1.9985
v -2.4785 -0.0496617 1.9985
v -2.4785 -0.0496617 2
v -2.48 -0.0496617 2
v -1.32 0.0496618 -0.56
v -1.26 0.0496618 -0.6
v -1.06 0.0496618 -0.68
v -1.1 0.0496618 -0.8
v -1.06 0.0496618 -0.78
v -1 0.0496618 -0.7
v -0.84 0.0496618 -0.72
v -0.76 0.0496618 -0.76
v -0.66 0.0496618 -0.78
v -0.56 0.0496618 -0.76
v -0.48 0.0496618 -0.58
v -0.56 0.0496618 -0.56
v -0.6 0.0496618 -0.58
v -0.66 0.0496618 -0.52
v -0.6 0.0496618 -0.44
v -0.64 0.0496618 -0.36
v -0.7 0.0496618 -0.38
v -0.88 0.0496618 -0.3
v -0.94 0.0496618 -0.32
v -1.06 0.0496618 -0.44
v -1.32 0.0296618 -0.56
v -1.26 0.0296618 -0.6
v -1.06 0.0296618 -0.68
v -1.1 0.0296618 -0.8
v -1.06 0.0296618 -0.78
v -1 0.0296618 -0.7
v -0.84 0.0296618 -0.72
v -0.76 0.0296618 -0.76
v -0.66 0.0296618 -0.78
v -0.56 0.0296618 -0.76
v -0.48 0.0296618 -0.58
v -0.56 0.0296618 -0.56
v -0.6 0.0296618 -0.58
v -0.66 0.0296618 -0.52
v -0.6 0.0296618 -0.44
v -0.64 0.0296618 -0.36
v -0.7 0.0296618 -0.38
v -0.88 0.0296618 -0.3
v -0.94 0.0296618 -0.32
v -1.06 0.0296618 -0.44
# 56 verticies
vn 0 1 0
vn -0.52228 0 0.852774
vn -0.419058 0 0.907959
vn -0.61964 0 0.784886
vn -0.5547 0 -0.83205
vn -0.495967 0 -0.868342
vn -0.43457 0 -0.900638
vn -0.371391 0 -0.928477
vn -0.948683 0 0.316228
vn 0.447214 0 -0.894427
vn 0.8 0 -0.6
vn -0.124035 0 -0.992278
vn -0.234754 0 -0.972055
vn -0.343872 0 -0.939017
vn -0.366394 0 -0.93046
vn -0.282032 0 -0.959405
vn -5.31869e-008 0 -1
vn -5.31869e-008 0 -1
vn 0.196116 0 -0.980581
vn 0.913812 0 -0.406139
vn 0.242535 0 0.970143
vn -0.447213 0 0.894427
vn 0.707107 0 0.707107
vn 0.8 0 -0.6
vn 0.894427 0 0.447213
vn -0.316227 0 0.948683
vn 0.406138 0 0.913812
vn -0.707107 0 0.707107
vn 9.86376e-009 1 -4.56486e-008
vn -2.45517e-009 1 -5.07522e-008
vn 1.33046e-008 1 -3.99138e-008
vn -9.31322e-009 1 -3.72529e-008
vn -9.31322e-010 1 -3.72529e-008
vn 2.07372e-008 1 -6.95383e-008
vn 6.20879e-010 1 -3.41485e-008
vn 1.73533e-010 1 -4.48024e-008
vn 6.20883e-009 1 -4.34617e-008
vn 3.10441e-009 1 -3.72529e-008
vn 1.86265e-008 1 -3.72529e-008
vn 1.86265e-009 1 -4.09782e-008
vn -9.31322e-009 1 -4.31795e-008
vn 2.40044e-008 1 -7.33732e-008
vn -8.46656e-009 1 -3.59829e-008
vn -1.69331e-008 1 -2.53997e-008
vn -4.70359e-010 1 -3.95107e-008
vn 1.35283e-009 1 -3.69852e-008
vn -9.8807e-009 1 -3.76535e-008
vn 5.31011e-008 1 -1.1764e-007
vn 5.44697e-009 -1 4.46379e-008
vn 9.86377e-009 -1 4.74837e-008
vn 1.33046e-008 -1 5.32184e-008
vn -1.04774e-008 -1 4.65661e-008
vn -1.16415e-008 -1 4.65661e-008
vn 3.46137e-008 -1 -2.01779e-008
vn -7.76098e-010 -1 4.26856e-008
vn 2.32317e-009 -1 4.65137e-008
vn 3.8805e-009 -1 4.26856e-008
vn 2.79396e-008 -1 3.72529e-008
vn 2.01786e-008 -1 3.72529e-008
vn 7.45056e-009 -1 4.09782e-008
vn 4.65662e-009 -1 4.69895e-008
vn 3.51065e-008 -1 -1.91458e-008
vn 6.30808e-015 -1 4.65661e-008
vn 8.41075e-016 -1 4.65661e-008
vn -5.17402e-009 -1 4.65661e-008
vn 1.40706e-009 -1 4.44061e-008
vn 6.0753e-009 -1 3.82543e-008
vn 8.90464e-008 -1 -1.12737e-007
# 68 normals
f  2//1 4//1 1//1
f  3//1 4//1 2//1
f  8//1 5//1 6//1
f  7//1 8//1 6//1
f  10//1 9//1 12//1
f  11//1 10//1 12//1
f  14//1 13//1 16//1
f  14//1 16//1 15//1
f  36//2 37//3 56//4
f  36//2 17//3 37//3
f  17//5 38//6 37//5
f  17//5 18//7 38//6
f  18//7 39//8 38//6
f  18//7 19//8 39//8
f  19//9 40//9 39//9
f  19//9 20//9 40//9
f  40//10 21//10 41//10
f  20//10 21//10 40//10
f  41//11 22//11 42//11
f  21//11 22//11 41//11
f  22//12 43//13 42//12
f  22//12 23//14 43//13
f  23//14 44//15 43//13
f  23//14 24//16 44//15
f  24//16 45//17 44//15
f  24//16 25//18 45//17
f  45//17 26//19 46//19
f  25//18 26//19 45//17
f  46//20 27//20 47//20
f  26//20 27//20 46//20
f  47//21 28//21 48//21
f  27//21 28//21 47//21
f  28//22 49//22 48//22
f  28//22 29//22 49//22
f  49//23 30//23 50//23
f  29//23 30//23 49//23
f  50//24 31//24 51//24
f  30//24 31//24 50//24
f  51//25 32//25 52//25
f  31//25 32//25 51//25
f  32//26 53//26 52//26
f  32//26 33//26 53//26
f  53//27 34//27 54//27
f  33//27 34//27 53//27
f  34//26 55//26 54//26
f  34//26 35//26 55//26
f  35//28 56//4 55//28
f  35//28 36//2 56//4
f  31//29 33//30 32//31
f  27//32 26//33 28//34
f  26//33 25//35 28//34
f  31//29 30//36 33//30
f  25//35 24//37 28//34
f  21//38 20//39 19//40
f  33//30 30//36 34//41
f  24//37 23//42 28//34
f  18//43 17//44 36//45
f  19//40 18//43 36//45
f  19//40 36//45 35//46
f  22//47 21//38 19//40
f  22//47 19//40 35//46
f  23//42 22//47 35//46
f  30//36 35//46 34//41
f  30//36 23//42 35//46
f  23//42 29//48 28//34
f  29//48 23//42 30//36
f  53//49 51//50 52//51
f  46//52 47//53 48//54
f  45//55 46//52 48//54
f  50//56 51//50 53//49
f  44//57 45//55 48//54
f  40//58 41//59 39//60
f  50//56 53//49 54//61
f  43//62 44//57 48//54
f  37//63 38//64 56//65
f  38//64 39//60 56//65
f  56//65 39//60 55//66
f  41//59 42//67 39//60
f  39//60 42//67 55//66
f  42//67 43//62 55//66
f  55//66 50//56 54//61
f  43//62 50//56 55//66
f  43//62 49//68 50//56
f  49//68 43//62 48//54
