# 
# Wavefront OBJ file
# Converted by the DEEP Exploration 3.5.10.1242
# Right Hemisphere, LTD
# http://www.righthemisphere.com/
# 
# object Object #0
g Object__0
v 2.4785 -0.0496619 -1.9985
v 2.48 -0.0496619 -1.9985
v 2.48 -0.0496619 -2
v 2.4785 -0.0496619 -2
v -2.48 -0.0496619 -1.9985
v -2.4785 -0.0496619 -1.9985
v -2.4785 -0.0496619 -2
v -2.48 -0.0496619 -2
v 2.4785 -0.0496617 1.9985
v 2.48 -0.0496617 1.9985
v 2.48 -0.0496617 2
v 2.4785 -0.0496617 2
v -2.48 -0.0496617 1.9985
v -2.4785 -0.0496617 1.9985
v -2.4785 -0.0496617 2
v -2.48 -0.0496617 2
v 1.57 0.0496618 -1.815
v 1.69 0.0496618 -1.825
v 1.755 0.0496618 -1.795
v 1.845 0.0496618 -1.795
v 1.835 0.0496618 -1.755
v 1.83 0.0496618 -1.69
v 1.815 0.0496618 -1.64
v 1.82 0.0496618 -1.585
v 1.86 0.0496618 -1.55
v 1.92 0.0496618 -1.515
v 1.9 0.0496618 -1.49
v 1.895 0.0496618 -1.465
v 1.93 0.0496618 -1.46
v 2 0.0496618 -1.395
v 1.99 0.0496618 -1.37
v 2.02 0.0496618 -1.335
v 2.07 0.0496618 -1.3
v 2.085 0.0496618 -1.255
v 2.105 0.0496618 -1.215
v 2.095 0.0496618 -1.16
v 2.13 0.0496618 -1.1
v 2.135 0.0496618 -1.045
v 2.195 0.0496618 -1.015
v 2.25 0.0496618 -0.985
v 2.26 0.0496618 -0.95
v 2.235 0.0496618 -0.91
v 2.215 0.0496618 -0.855
v 2.21 0.0496618 -0.795
v 2.24 0.0496618 -0.73
v 2.225 0.0496618 -0.71
v 2.165 0.0496618 -0.7
v 2.125 0.0496618 -0.66
v 2.13 0.0496618 -0.62
v 2.1 0.0496618 -0.61
v 2.08 0.0496618 -0.595
v 2.075 0.0496618 -0.575
v 2.055 0.0496618 -0.57
v 2.015 0.0496618 -0.615
v 1.995 0.0496618 -0.625
v 1.94 0.0496618 -0.615
v 1.905 0.0496618 -0.645
v 1.845 0.0496618 -0.65
v 1.785 0.0496618 -0.65
v 1.75 0.0496618 -0.63
v 1.705 0.0496618 -0.6
v 1.18 0.0496618 -0.62
v 1.105 0.0496618 -0.61
v 0.78 0.0496618 -0.61
v 0.78 0.0496618 -0.655
v 0.855 0.0496618 -0.695
v 0.91 0.0496618 -0.76
v 0.925 0.0496618 -0.795
v 0.885 0.0496618 -0.825
v 0.79 0.0496618 -0.945
v 0.775 0.0496618 -1
v 0.82 0.0496618 -1.055
v 1.46 0.0496618 -1.53
v 1.57 0.0296617 -1.815
v 1.69 0.0296617 -1.825
v 1.755 0.0296617 -1.795
v 1.845 0.0296617 -1.795
v 1.835 0.0296618 -1.755
v 1.83 0.0296618 -1.69
v 1.815 0.0296618 -1.64
v 1.82 0.0296618 -1.585
v 1.86 0.0296618 -1.55
v 1.92 0.0296618 -1.515
v 1.9 0.0296618 -1.49
v 1.895 0.0296618 -1.465
v 1.93 0.0296618 -1.46
v 2 0.0296618 -1.395
v 1.99 0.0296618 -1.37
v 2.02 0.0296618 -1.335
v 2.07 0.0296618 -1.3
v 2.085 0.0296618 -1.255
v 2.105 0.0296618 -1.215
v 2.095 0.0296618 -1.16
v 2.13 0.0296618 -1.1
v 2.135 0.0296618 -1.045
v 2.195 0.0296618 -1.015
v 2.25 0.0296618 -0.985
v 2.26 0.0296618 -0.95
v 2.235 0.0296618 -0.91
v 2.215 0.0296618 -0.855
v 2.21 0.0296618 -0.795
v 2.24 0.0296618 -0.73
v 2.225 0.0296618 -0.71
v 2.165 0.0296618 -0.7
v 2.125 0.0296618 -0.66
v 2.13 0.0296618 -0.62
v 2.1 0.0296618 -0.61
v 2.08 0.0296618 -0.595
v 2.075 0.0296618 -0.575
v 2.055 0.0296618 -0.57
v 2.015 0.0296618 -0.615
v 1.995 0.0296618 -0.625
v 1.94 0.0296618 -0.615
v 1.905 0.0296618 -0.645
v 1.845 0.0296618 -0.65
v 1.785 0.0296618 -0.65
v 1.75 0.0296618 -0.63
v 1.705 0.0296618 -0.6
v 1.18 0.0296618 -0.62
v 1.105 0.0296618 -0.61
v 0.78 0.0296618 -0.61
v 0.78 0.0296618 -0.655
v 0.855 0.0296618 -0.695
v 0.91 0.0296618 -0.76
v 0.925 0.0296618 -0.795
v 0.885 0.0296618 -0.825
v 0.79 0.0296618 -0.945
v 0.775 0.0296618 -1
v 0.82 0.0296618 -1.055
v 1.46 0.0296618 -1.53
# 130 verticies
vn 0 1 0
vn -0.932923 0 -0.360076
vn -0.0830454 0 -0.996546
vn 0.41906 0 -0.907959
vn 0.214524 0 -0.976719
vn 0 0 -1
vn 0.970143 0 0.242536
vn 0.982198 0 0.187846
vn 0.991197 0 0.132392
vn 0.989037 0 0.147669
vn 0.975894 0 0.218247
vn 0.986454 0 0.164037
vn 0.999352 0 0.036007
vn 0.995893 0 -0.0905358
vn 0.658506 0 -0.752576
vn 0.609422 0 -0.792846
vn 0.557668 0 -0.830064
vn 0.503871 0 -0.863779
vn 0.780869 0 0.624695
vn 0.980581 0 0.196116
vn 0.141421 0 -0.98995
vn 0.680451 0 -0.732793
vn 0.928477 0 0.371391
vn 0.759255 0 -0.650793
vn 0.70225 0 -0.711931
vn 0.639882 0 -0.768473
vn 0.573465 0 -0.81923
vn 0.948681 0 -0.316235
vn 0.932682 0 -0.360701
vn 0.914557 0 -0.404458
vn 0.894427 0 -0.447214
vn 0.983869 0 0.178889
vn 0.863777 0 -0.503875
vn 0.995894 0 -0.0905291
vn 0.447214 0 -0.894427
vn 0.457824 0 -0.889043
vn 0.468371 0 -0.883532
vn 0.47885 0 -0.877897
vn 0.961526 0 -0.274715
vn 0.847997 0 0.530001
vn 0.88291 0 0.469542
vn 0.913659 0 0.406482
vn 0.966272 0 0.257523
vn 0.985339 0 0.170609
vn 0.996546 0 0.0830395
vn 0.907961 0 -0.419055
vn 0.800003 0 0.599996
vn 0.164399 0 0.986394
vn 0.707107 0 0.707107
vn 0.992278 0 -0.124037
vn 0.316226 0 0.948684
vn 0.415584 0 0.909555
vn 0.511273 0 0.859419
vn 0.6 0 0.8
vn 0.970141 0 0.24254
vn 0.242536 0 0.970143
vn -0.74741 0 0.664363
vn -0.657885 0 0.753118
vn -0.556191 0 0.831055
vn -0.447214 0 0.894427
vn 0.178885 0 0.98387
vn -0.65079 0 0.759258
vn -0.0830455 0 0.996546
vn -0.0415586 0 0.999136
vn 0 0 1
vn 0.496139 0 0.868243
vn 0.515931 0 0.85663
vn 0.535462 0 0.844559
vn 0.5547 0 0.83205
vn -0.0380676 0 0.999275
vn 0.0472198 0 0.998884
vn 0.0882815 0 0.996096
vn 0.0441408 0 0.999025
vn 1.83399e-007 0 1
vn -1 0 0
vn -0.470589 0 -0.882353
vn -0.577345 0 -0.8165
vn -0.676517 0 -0.736427
vn -0.823376 0 -0.567497
vn -0.875809 0 -0.482657
vn -0.919145 0 -0.393919
vn -0.599999 0 0.8
vn -0.666254 0 0.745725
vn -0.728058 0 0.685516
vn -0.859759 0 0.5107
vn -0.921103 0 0.38932
vn -0.964764 0 0.263118
vn -0.773957 0 -0.633238
vn -0.719483 0 -0.69451
vn -0.659754 0 -0.751482
vn -0.595977 0 -0.803001
vn 2.32708e-008 1 -4.41691e-008
vn 1.37974e-008 1 -2.75948e-008
vn 5.72098e-009 1 -2.74075e-008
vn -2.98021e-008 1 -8.94069e-008
vn -3.32726e-009 1 -6.83139e-008
vn -8.51486e-009 1 -5.3928e-008
vn 3.30359e-008 1 -5.90761e-008
vn -1.68137e-008 1 -3.96262e-008
vn -6.20881e-008 1 -5.07994e-008
vn -2.97183e-008 1 -4.19713e-008
vn -1.35303e-008 1 -6.03035e-008
vn -4.41516e-008 1 -8.27842e-008
vn -2.20758e-008 1 -6.33056e-008
vn -6.94594e-010 1 -4.68197e-008
vn -1.16872e-007 1 -7.30455e-008
vn -4.62222e-008 1 -5.89152e-008
vn -8.54665e-009 1 -5.40435e-008
vn 7.3311e-009 1 -4.60684e-008
vn -3.37639e-009 1 -4.05167e-008
vn 1.22932e-010 1 -3.99332e-008
vn -2.13082e-009 1 -3.9442e-008
vn 1.53743e-007 1 -7.09579e-008
vn 2.95812e-008 1 -5.51983e-008
vn 7.33238e-008 1 -5.67663e-008
vn -6.34931e-009 1 -4.81567e-008
vn 1.0889e-008 1 -4.81169e-008
vn -5.43824e-009 1 -2.87184e-008
vn 2.31707e-008 1 -4.43059e-008
vn 7.58275e-009 1 -5.19824e-008
vn 5.09062e-009 1 -5.21938e-008
vn -3.2394e-009 1 -9.40771e-008
vn -9.32076e-009 1 -5.89613e-008
vn -1.86265e-008 1 -1.02446e-007
vn -9.7183e-008 1 3.23951e-008
vn -1.11238e-008 1 -2.76536e-008
vn -8.13908e-008 1 -1.01866e-008
vn -1.36593e-007 1 -2.48357e-008
vn -3.28657e-008 1 -4.58316e-008
vn -3.88051e-008 1 -1.5522e-008
vn -1.61347e-008 1 -3.06356e-008
vn 1.41893e-009 1 -3.33129e-008
vn -3.5323e-008 1 -3.08819e-008
vn 5.9266e-008 1 -1.01599e-007
vn -3.2671e-008 1 -4.1497e-008
vn -6.18711e-009 1 -5.79635e-008
vn -1.72813e-009 1 -4.98856e-008
vn 1.14619e-008 1 -6.87744e-008
vn -4.46215e-009 1 -2.38521e-008
vn 1.76478e-009 1 -2.8885e-008
vn 1.775e-009 1 -4.30536e-008
vn 1.87101e-008 1 -4.0212e-008
vn -2.05507e-009 1 -2.87677e-008
vn 2.55171e-008 1 -3.264e-008
vn -5.49387e-009 -1 4.59667e-008
vn 0 -1 4.65662e-008
vn 4.31168e-009 -1 3.79428e-008
vn 2.43484e-009 -1 5.21053e-008
vn 2.48353e-008 -1 9.9341e-008
vn 3.65227e-009 -1 7.8158e-008
vn 3.23422e-009 -1 5.35589e-008
vn -5.14586e-009 -1 4.29369e-008
vn -5.96042e-008 -1 7.45069e-009
vn -2.05776e-008 -1 1.45464e-008
vn -1.49268e-008 -1 4.6141e-008
vn -3.10441e-008 -1 4.23329e-008
vn -1.0558e-008 -1 4.65641e-008
vn -1.75106e-008 -1 4.60238e-008
vn -2.75947e-009 -1 4.13921e-008
vn -2.10669e-009 -1 4.65061e-008
vn -1.37973e-009 -1 4.26095e-008
vn -6.36089e-009 -1 5.59918e-008
vn 6.70572e-009 -1 5.10117e-008
vn 7.30443e-009 -1 5.11315e-008
vn 9.54945e-009 -1 4.85106e-008
vn 3.93912e-009 -1 4.72695e-008
vn 5.3462e-009 -1 4.65926e-008
vn 4.02222e-009 -1 4.77638e-008
vn -4.53176e-009 -1 5.31331e-008
vn 5.13975e-009 -1 4.38057e-008
vn 4.73058e-008 -1 3.54789e-008
vn 1.21222e-008 -1 4.16877e-008
vn -3.3994e-009 -1 4.23524e-008
vn -7.72513e-009 -1 4.36706e-008
vn -4.59583e-009 -1 5.31564e-008
vn 5.7927e-009 -1 5.10117e-008
vn 1.2317e-009 -1 4.24245e-008
vn 4.07218e-009 -1 3.97055e-008
vn -4.04313e-009 -1 4.41084e-008
vn 4.65662e-009 -1 6.82971e-008
vn -1.86265e-008 -1 8.38192e-008
vn -5.48438e-008 -1 6.52567e-008
vn -9.93404e-008 -1 4.96702e-008
vn -2.22139e-008 -1 4.05862e-008
vn -1.0281e-008 -1 5.35848e-008
vn -7.5587e-008 -1 1.07981e-007
vn -1.87899e-008 -1 5.39187e-008
vn -3.10442e-008 -1 6.20882e-008
vn -8.29943e-009 -1 4.92608e-008
vn -8.6825e-009 -1 4.71335e-008
vn -2.23119e-008 -1 5.12711e-008
vn -2.9633e-008 -1 5.07995e-008
vn -3.98906e-008 -1 5.76378e-008
vn -6.66697e-009 -1 5.27715e-008
vn -5.73093e-009 -1 3.43872e-008
vn -5.49829e-010 -1 4.88549e-008
vn 7.20182e-009 -1 4.09498e-008
vn -1.775e-009 -1 4.30536e-008
vn 6.82169e-009 -1 4.42959e-008
vn -5.5899e-009 -1 4.23428e-008
vn 7.80966e-009 -1 4.86357e-008
# 201 normals
f  2//1 4//1 1//1
f  3//1 4//1 2//1
f  8//1 5//1 6//1
f  7//1 8//1 6//1
f  10//1 9//1 12//1
f  11//1 10//1 12//1
f  14//1 13//1 16//1
f  14//1 16//1 15//1
f  73//2 74//2 130//2
f  73//2 17//2 74//2
f  17//3 75//3 74//3
f  17//3 18//3 75//3
f  75//4 19//5 76//5
f  18//4 19//5 75//4
f  19//5 77//6 76//5
f  19//5 20//6 77//6
f  77//7 21//8 78//9
f  20//7 21//8 77//7
f  78//9 22//10 79//11
f  21//8 22//10 78//9
f  79//11 23//12 80//13
f  22//10 23//12 79//11
f  80//13 24//14 81//14
f  23//12 24//14 80//13
f  81//15 25//16 82//17
f  24//15 25//16 81//15
f  82//17 26//18 83//18
f  25//16 26//18 82//17
f  83//19 27//19 84//19
f  26//19 27//19 83//19
f  84//20 28//20 85//20
f  27//20 28//20 84//20
f  85//21 29//21 86//21
f  28//21 29//21 85//21
f  86//22 30//22 87//22
f  29//22 30//22 86//22
f  87//23 31//23 88//23
f  30//23 31//23 87//23
f  88//24 32//25 89//26
f  31//24 32//25 88//24
f  89//26 33//27 90//27
f  32//25 33//27 89//26
f  90//28 34//29 91//30
f  33//28 34//29 90//28
f  91//30 35//31 92//31
f  34//29 35//31 91//30
f  92//32 36//32 93//32
f  35//32 36//32 92//32
f  93//33 37//33 94//33
f  36//33 37//33 93//33
f  94//34 38//34 95//34
f  37//34 38//34 94//34
f  95//35 39//36 96//37
f  38//35 39//36 95//35
f  96//37 40//38 97//38
f  39//36 40//38 96//37
f  97//39 41//39 98//39
f  40//39 41//39 97//39
f  98//40 42//41 99//42
f  41//40 42//41 98//40
f  99//42 43//43 100//44
f  42//41 43//43 99//42
f  100//44 44//45 101//45
f  43//43 44//45 100//44
f  101//46 45//46 102//46
f  44//46 45//46 101//46
f  102//47 46//47 103//47
f  45//47 46//47 102//47
f  103//48 47//48 104//48
f  46//48 47//48 103//48
f  104//49 48//49 105//49
f  47//49 48//49 104//49
f  105//50 49//50 106//50
f  48//50 49//50 105//50
f  106//51 50//52 107//53
f  49//51 50//52 106//51
f  107//53 51//54 108//54
f  50//52 51//54 107//53
f  108//55 52//55 109//55
f  51//55 52//55 108//55
f  109//56 53//56 110//56
f  52//56 53//56 109//56
f  53//57 111//58 110//57
f  53//57 54//59 111//58
f  54//59 112//60 111//58
f  54//59 55//60 112//60
f  112//61 56//61 113//61
f  55//61 56//61 112//61
f  56//62 114//62 113//62
f  56//62 57//62 114//62
f  57//63 115//64 114//63
f  57//63 58//64 115//64
f  115//64 59//65 116//65
f  58//64 59//65 115//64
f  116//66 60//67 117//68
f  59//66 60//67 116//66
f  117//68 61//69 118//69
f  60//67 61//69 117//68
f  61//70 119//71 118//70
f  61//70 62//71 119//71
f  119//71 63//72 120//73
f  62//71 63//72 119//71
f  120//73 64//74 121//74
f  63//72 64//74 120//73
f  64//75 122//75 121//75
f  64//75 65//75 122//75
f  65//76 123//77 122//76
f  65//76 66//78 123//77
f  66//78 124//79 123//77
f  66//78 67//80 124//79
f  67//80 125//81 124//79
f  67//80 68//81 125//81
f  68//82 126//83 125//82
f  68//82 69//84 126//83
f  69//84 127//85 126//83
f  69//84 70//86 127//85
f  70//86 128//87 127//85
f  70//86 71//87 128//87
f  71//88 129//89 128//88
f  71//88 72//90 129//89
f  72//90 130//91 129//89
f  72//90 73//91 130//91
f  20//1 19//92 21//93
f  52//1 51//1 53//1
f  51//1 54//94 53//1
f  49//95 48//96 50//97
f  21//93 19//92 22//98
f  72//99 71//100 70//101
f  66//102 65//103 64//104
f  63//105 66//102 64//104
f  41//106 40//107 42//108
f  18//109 17//110 73//111
f  67//112 66//102 63//105
f  45//113 44//114 46//115
f  72//99 70//101 69//116
f  73//111 72//99 69//116
f  22//98 19//92 23//117
f  46//115 44//114 47//118
f  40//107 39//119 42//108
f  39//119 38//120 42//108
f  42//108 38//120 43//121
f  50//97 54//94 51//1
f  48//96 54//94 50//97
f  55//122 57//123 56//124
f  19//92 18//109 23//117
f  23//117 18//109 73//111
f  33//125 32//126 34//127
f  35//128 34//127 36//129
f  34//127 32//126 36//129
f  30//130 29//131 31//132
f  29//131 28//133 31//132
f  26//134 25//135 27//136
f  27//136 25//135 28//133
f  62//137 67//112 63//105
f  23//117 73//111 69//116
f  37//138 36//129 38//120
f  67//112 62//137 61//139
f  48//96 55//122 54//94
f  48//96 57//123 55//122
f  48//96 47//118 57//123
f  47//118 44//114 57//123
f  44//114 43//121 57//123
f  43//121 38//120 57//123
f  38//120 36//129 57//123
f  36//129 32//126 57//123
f  25//135 24//140 28//133
f  32//126 58//141 57//123
f  58//141 32//126 59//142
f  32//126 31//132 59//142
f  31//132 28//133 59//142
f  28//133 24//140 59//142
f  68//143 67//112 61//139
f  60//144 68//143 61//139
f  23//117 69//116 68//143
f  24//140 23//117 68//143
f  59//142 24//140 60//144
f  24//140 68//143 60//144
f  76//145 77//146 78//147
f  108//148 109//149 110//150
f  111//151 108//148 110//150
f  105//152 106//153 107//154
f  76//145 78//147 79//155
f  128//156 129//157 127//158
f  122//159 123//160 121//161
f  123//160 120//162 121//161
f  97//163 98//164 99//165
f  74//166 75//167 130//168
f  123//160 124//169 120//162
f  101//170 102//171 103//172
f  127//158 129//157 126//173
f  129//157 130//168 126//173
f  76//145 79//155 80//174
f  101//170 103//172 104//175
f  96//176 97//163 99//165
f  95//177 96//176 99//165
f  95//177 99//165 100//178
f  111//151 107//154 108//148
f  111//151 105//152 107//154
f  114//179 112//180 113//181
f  75//167 76//145 80//174
f  75//167 80//174 130//168
f  91//182 92//183 93//184
f  89//185 90//186 91//182
f  89//185 91//182 93//184
f  86//187 87//188 88//189
f  85//190 86//187 88//189
f  82//191 83//192 84//193
f  82//191 84//193 85//190
f  124//169 119//194 120//162
f  130//168 80//174 126//173
f  93//184 94//195 95//177
f  119//194 124//169 118//196
f  112//180 105//152 111//151
f  114//179 105//152 112//180
f  104//175 105//152 114//179
f  101//170 104//175 114//179
f  100//178 101//170 114//179
f  95//177 100//178 114//179
f  93//184 95//177 114//179
f  89//185 93//184 114//179
f  81//197 82//191 85//190
f  115//198 89//185 114//179
f  89//185 115//198 116//199
f  88//189 89//185 116//199
f  85//190 88//189 116//199
f  81//197 85//190 116//199
f  124//169 125//200 118//196
f  125//200 117//201 118//196
f  126//173 80//174 125//200
f  80//174 81//197 125//200
f  125//200 81//197 117//201
f  81//197 116//199 117//201
