# 
# Wavefront OBJ file
# Converted by the DEEP Exploration 3.5.10.1242
# Right Hemisphere, LTD
# http://www.righthemisphere.com/
# 
# object Object #0
g Object__0
v 2.4785 -0.0496619 -1.9985
v 2.48 -0.0496619 -1.9985
v 2.48 -0.0496619 -2
v 2.4785 -0.0496619 -2
v -2.48 -0.0496619 -1.9985
v -2.4785 -0.0496619 -1.9985
v -2.4785 -0.0496619 -2
v -2.48 -0.0496619 -2
v 2.4785 -0.0496617 1.9985
v 2.48 -0.0496617 1.9985
v 2.48 -0.0496617 2
v 2.4785 -0.0496617 2
v -2.48 -0.0496617 1.9985
v -2.4785 -0.0496617 1.9985
v -2.4785 -0.0496617 2
v -2.48 -0.0496617 2
v -0.22 0.0496618 0.215
v -0.16 0.0496618 0.26
v -0.15 0.0496618 0.305
v -0.0450001 0.0496618 0.37
v 0.00999988 0.0496618 0.4
v 0.0249999 0.0496618 0.46
v -0.0350001 0.0496619 0.51
v -0.0850001 0.0496619 0.59
v -0.115 0.0496619 0.69
v -0.12 0.0496619 0.74
v -0.0800001 0.0496619 0.825
v 0.0249999 0.0496619 1.01
v -0.00500012 0.0496619 1.09
v -0.0150001 0.0496619 1.125
v -0.0650001 0.0496619 1.11
v -0.0350001 0.0496619 1.035
v -0.0500001 0.0496619 0.965
v -0.0700001 0.0496619 0.92
v -0.13 0.0496619 0.895
v -0.155 0.0496619 0.835
v -0.165 0.0496619 0.76
v -0.21 0.0496619 0.73
v -0.185 0.0496619 0.7
v -0.2 0.0496619 0.675
v -0.26 0.0496619 0.63
v -0.315 0.0496619 0.55
v -0.38 0.0496618 0.455
v -0.22 0.0296618 0.215
v -0.16 0.0296618 0.26
v -0.15 0.0296618 0.305
v -0.0450001 0.0296618 0.37
v 0.00999988 0.0296618 0.4
v 0.0249999 0.0296618 0.46
v -0.0350001 0.0296618 0.51
v -0.0850001 0.0296619 0.59
v -0.115 0.0296619 0.69
v -0.12 0.0296619 0.74
v -0.0800001 0.0296619 0.825
v 0.0249999 0.0296619 1.01
v -0.00500012 0.0296619 1.09
v -0.0150001 0.0296619 1.125
v -0.0650001 0.0296619 1.11
v -0.0350001 0.0296619 1.035
v -0.0500001 0.0296619 0.965
v -0.0700001 0.0296619 0.92
v -0.13 0.0296619 0.895
v -0.155 0.0296619 0.835
v -0.165 0.0296619 0.76
v -0.21 0.0296619 0.73
v -0.185 0.0296619 0.7
v -0.2 0.0296619 0.675
v -0.26 0.0296619 0.63
v -0.315 0.0296619 0.55
v -0.38 0.0296618 0.455
# 70 verticies
vn 0 1 0
vn -0.83205 0 -0.5547
vn 0.6 0 -0.8
vn 0.976187 0 -0.21693
vn 0.526355 0 -0.850265
vn 0.510692 0 -0.859764
vn 0.494852 0 -0.868977
vn 0.478852 0 -0.877896
vn 0.970143 0 -0.242536
vn 0.640184 0 0.768221
vn 0.717467 0 0.696592
vn 0.787521 0 0.616288
vn 0.891664 0 0.452698
vn 0.928565 0 0.371169
vn 0.974207 0 0.225654
vn 0.986662 0 0.162783
vn 0.995037 0 0.0995036
vn 0.904819 0 -0.425797
vn 0.893687 0 -0.448691
vn 0.881969 0 -0.471308
vn 0.869686 0 -0.493606
vn 0.936329 0 0.351123
vn 0.945408 0 0.32589
vn 0.953812 0 0.300405
vn 0.961524 0 0.274721
vn -0.287348 0 0.957826
vn -0.928477 0 -0.37139
vn -0.977802 0 0.209529
vn -0.961048 0 0.276382
vn -0.939616 0 0.342232
vn -0.913811 0 0.406139
vn -0.384616 0 0.923077
vn -0.923077 0 0.384615
vn -0.953062 0 0.302774
vn -0.975954 0 0.217977
vn -0.991228 0 0.132164
vn -0.5547 0 0.83205
vn -0.768222 0 -0.640184
vn -0.857493 0 0.514496
vn -0.784657 0 0.619931
vn -0.69738 0 0.716701
vn -0.682669 0 0.730727
vn -0.758234 0 0.651982
vn -0.824464 0 0.565914
vn -0.824886 0 0.565299
vn -0.825307 0 0.564684
vn -6.34111e-008 1 1.8208e-009
vn 5.32184e-008 1 -7.98276e-008
vn 1.24528e-008 1 -5.79371e-008
vn -1.40332e-008 1 -3.75005e-008
vn -9.55201e-009 1 -2.86561e-008
vn -2.08188e-008 1 -5.37859e-008
vn -2.73434e-008 1 -4.07889e-008
vn 5.13833e-008 1 -1.28458e-008
vn 5.55496e-009 1 -3.15938e-008
vn 1.35494e-008 1 -4.00119e-008
vn -2.90226e-009 1 -5.30111e-008
vn 2.00524e-008 1 -5.37388e-008
vn 2.02971e-008 1 -5.66412e-008
vn -6.04755e-009 1 -3.50758e-008
vn -8.31838e-009 1 -3.75975e-008
vn -3.4606e-009 1 -3.93966e-008
vn 1.90238e-008 1 -6.28507e-008
vn 3.1305e-008 1 -7.51319e-008
vn 3.46521e-008 1 -5.36785e-008
vn 1.88592e-008 1 -3.95202e-008
vn -3.32181e-008 1 -9.58708e-009
vn 7.45057e-008 1 -9.9341e-008
vn 3.45281e-009 1 -6.54721e-008
vn 5.06371e-009 1 -7.43255e-008
vn -5.85172e-008 1 -1.69842e-008
vn -2.4097e-009 1 -5.43464e-008
vn 5.28678e-014 -1 6.20882e-008
vn 5.0651e-008 -1 7.95151e-009
vn -1.65351e-008 -1 6.1911e-008
vn 9.55201e-009 -1 2.86561e-008
vn 1.40332e-008 -1 3.75005e-008
vn 0 -1 0
vn 1.7426e-008 -1 4.56432e-008
vn 8.34374e-009 -1 4.48603e-008
vn -2.76302e-009 -1 4.96691e-008
vn 1.71278e-008 -1 5.78062e-008
vn 1.19624e-009 -1 4.61037e-008
vn -5.69256e-009 -1 4.03204e-008
vn 1.50972e-009 -1 4.3168e-008
vn -5.44279e-009 -1 4.29376e-008
vn -2.78438e-009 -1 4.26618e-008
vn -3.12849e-009 -1 4.45522e-008
vn 2.43225e-010 -1 4.31326e-008
vn 2.19135e-008 -1 2.19135e-008
vn 7.58541e-009 -1 3.62415e-008
vn -1.53246e-008 -1 4.95433e-008
vn -1.64491e-008 -1 4.78735e-008
vn 7.89737e-009 -1 3.26064e-008
vn 2.46716e-014 -1 4.13921e-008
vn -5.86232e-009 -1 4.52968e-008
vn -9.26431e-009 -1 5.34328e-008
vn 3.7574e-008 -1 8.04859e-009
vn -1.32085e-008 -1 4.49127e-008
# 99 normals
f  2//1 4//1 1//1
f  3//1 4//1 2//1
f  8//1 5//1 6//1
f  7//1 8//1 6//1
f  10//1 9//1 12//1
f  11//1 10//1 12//1
f  14//1 13//1 16//1
f  14//1 16//1 15//1
f  43//2 44//2 70//2
f  43//2 17//2 44//2
f  44//3 18//3 45//3
f  17//3 18//3 44//3
f  45//4 19//4 46//4
f  18//4 19//4 45//4
f  46//5 20//6 47//7
f  19//5 20//6 46//5
f  47//7 21//8 48//8
f  20//6 21//8 47//7
f  48//9 22//9 49//9
f  21//9 22//9 48//9
f  49//10 23//11 50//12
f  22//10 23//11 49//10
f  50//12 24//13 51//14
f  23//11 24//13 50//12
f  51//14 25//15 52//16
f  24//13 25//15 51//14
f  52//16 26//17 53//17
f  25//15 26//17 52//16
f  53//18 27//19 54//20
f  26//18 27//19 53//18
f  54//20 28//21 55//21
f  27//19 28//21 54//20
f  55//22 29//23 56//24
f  28//22 29//23 55//22
f  56//24 30//25 57//25
f  29//23 30//25 56//24
f  30//26 58//26 57//26
f  30//26 31//26 58//26
f  31//27 59//27 58//27
f  31//27 32//27 59//27
f  32//28 60//29 59//28
f  32//28 33//30 60//29
f  33//30 61//31 60//29
f  33//30 34//31 61//31
f  34//32 62//32 61//32
f  34//32 35//32 62//32
f  35//33 63//34 62//33
f  35//33 36//35 63//34
f  36//35 64//36 63//34
f  36//35 37//36 64//36
f  37//37 65//37 64//37
f  37//37 38//37 65//37
f  38//38 66//38 65//38
f  38//38 39//38 66//38
f  39//39 67//40 66//39
f  39//39 40//41 67//40
f  40//41 68//42 67//40
f  40//41 41//43 68//42
f  41//43 69//44 68//42
f  41//43 42//45 69//44
f  42//45 70//46 69//44
f  42//45 43//46 70//46
f  39//47 38//48 37//49
f  29//50 31//51 30//1
f  29//50 32//52 31//51
f  28//53 32//52 29//50
f  22//54 21//55 23//56
f  21//55 20//57 23//56
f  20//57 19//58 23//56
f  17//59 43//60 42//61
f  23//56 19//58 24//62
f  36//63 35//64 34//65
f  28//53 33//66 32//52
f  27//67 33//66 28//53
f  18//68 17//59 19//58
f  19//58 17//59 42//61
f  19//58 42//61 24//62
f  24//62 42//61 25//69
f  37//49 36//63 34//65
f  42//61 41//70 25//69
f  41//70 40//71 25//69
f  25//69 40//71 26//72
f  26//72 40//71 27//67
f  27//67 34//65 33//66
f  27//67 37//49 34//65
f  39//47 37//49 27//67
f  40//71 39//47 27//67
f  65//73 66//74 64//75
f  58//76 56//77 57//78
f  59//79 56//77 58//76
f  59//79 55//80 56//77
f  48//81 49//82 50//83
f  47//84 48//81 50//83
f  46//85 47//84 50//83
f  70//86 44//87 69//88
f  46//85 50//83 51//89
f  62//90 63//91 61//92
f  60//93 55//80 59//79
f  60//93 54//94 55//80
f  44//87 45//95 46//85
f  44//87 46//85 69//88
f  69//88 46//85 51//89
f  69//88 51//89 52//96
f  63//91 64//75 61//92
f  68//97 69//88 52//96
f  67//98 68//97 52//96
f  67//98 52//96 53//99
f  67//98 53//99 54//94
f  61//92 54//94 60//93
f  64//75 54//94 61//92
f  66//74 67//98 54//94
f  64//75 66//74 54//94
