# 
# Wavefront OBJ file
# Converted by the DEEP Exploration 3.5.10.1242
# Right Hemisphere, LTD
# http://www.righthemisphere.com/
# 
# object Object #0
g Object__0
v 2.4785 -0.0496619 -1.9985
v 2.48 -0.0496619 -1.9985
v 2.48 -0.0496619 -2
v 2.4785 -0.0496619 -2
v -2.48 -0.0496619 -1.9985
v -2.4785 -0.0496619 -1.9985
v -2.4785 -0.0496619 -2
v -2.48 -0.0496619 -2
v 2.4785 -0.0496617 1.9985
v 2.48 -0.0496617 1.9985
v 2.48 -0.0496617 2
v 2.4785 -0.0496617 2
v -2.48 -0.0496617 1.9985
v -2.4785 -0.0496617 1.9985
v -2.4785 -0.0496617 2
v -2.48 -0.0496617 2
v -1.15 0.0496618 -1.405
v -1.185 0.0496618 -1.38
v -1.205 0.0496618 -1.4
v -1.205 0.0496618 -1.51
v -1.255 0.0496618 -1.58
v -1.3 0.0496618 -1.585
v -1.39 0.0496618 -1.695
v -1.39 0.0496618 -1.765
v -1.415 0.0496617 -1.855
v -1.485 0.0496617 -1.91
v -1.495 0.0496617 -1.965
v -1.41 0.0496617 -1.965
v -1.32 0.0496617 -1.89
v -1.355 0.0496618 -1.82
v -1.35 0.0496618 -1.755
v -1.295 0.0496618 -1.665
v -1.165 0.0496618 -1.5
v -1.15 0.0296618 -1.405
v -1.185 0.0296618 -1.38
v -1.205 0.0296618 -1.4
v -1.205 0.0296618 -1.51
v -1.255 0.0296618 -1.58
v -1.3 0.0296618 -1.585
v -1.39 0.0296618 -1.695
v -1.39 0.0296618 -1.765
v -1.415 0.0296617 -1.855
v -1.485 0.0296617 -1.91
v -1.495 0.0296617 -1.965
v -1.41 0.0296617 -1.965
v -1.32 0.0296617 -1.89
v -1.355 0.0296617 -1.82
v -1.35 0.0296618 -1.755
v -1.295 0.0296618 -1.665
v -1.165 0.0296618 -1.5
# 50 verticies
vn 0 1 0
vn 0.987763 0 -0.155962
vn 0.581238 0 0.813733
vn -0.707105 0 0.707109
vn -1 0 0
vn -0.813734 0 0.581238
vn -0.110432 0 0.993884
vn -0.773957 0 0.633238
vn -0.995947 0 0.0899467
vn -0.983686 0 0.179893
vn -0.963518 0 0.267644
vn -0.617821 0 0.786319
vn -0.98387 0 0.178885
vn 0 0 -1
vn 0.640185 0 -0.768221
vn 0.894427 0 0.447214
vn 0.997055 0 -0.0766964
vn 0.853282 0 -0.52145
vn 0.831988 0 -0.554793
vn 0.809356 0 -0.587318
vn 0.785492 0 -0.618872
vn 4.33402e-009 1 -4.4958e-008
vn 0 1 -6.77325e-008
vn 1.28458e-008 1 -5.02155e-008
vn -1.4078e-008 1 -4.02979e-008
vn -1.83619e-008 1 -4.98393e-008
vn -2.31047e-008 1 -3.135e-008
vn -1.06584e-008 1 -2.73443e-008
vn 9.83386e-009 1 -3.48362e-008
vn 1.46407e-008 1 -5.00579e-008
vn 7.89255e-009 1 -4.62644e-008
vn -3.51442e-009 1 -3.86587e-008
vn 3.30142e-009 1 -4.835e-008
vn 5.47887e-009 1 -6.29237e-008
vn 9.77943e-009 1 -4.5955e-008
vn 1.6565e-008 1 -6.626e-008
vn 5.71652e-009 1 -5.09633e-008
vn 0 -1 3.38662e-008
vn 4.22986e-009 -1 3.40585e-008
vn 1.39213e-014 -1 3.38663e-008
vn 4.63305e-009 -1 4.11826e-008
vn 1.23533e-008 -1 3.35304e-008
vn -2.92212e-009 -1 5.1619e-008
vn -9.14525e-009 -1 4.96161e-008
vn -4.38762e-009 -1 4.04961e-008
vn 2.08429e-009 -1 3.66396e-008
vn 2.98812e-009 -1 4.2853e-008
vn 9.36295e-010 -1 5.26321e-008
vn 5.63771e-009 -1 6.2015e-008
vn 7.76101e-009 -1 8.53713e-008
vn -4.24084e-009 -1 4.47924e-008
vn -1.65785e-010 -1 4.65558e-008
vn -1.23317e-008 -1 4.93269e-008
vn -5.71652e-009 -1 5.09633e-008
# 54 normals
f  2//1 4//1 1//1
f  3//1 4//1 2//1
f  8//1 5//1 6//1
f  7//1 8//1 6//1
f  10//1 9//1 12//1
f  11//1 10//1 12//1
f  14//1 13//1 16//1
f  14//1 16//1 15//1
f  50//2 17//2 34//2
f  33//2 17//2 50//2
f  34//3 18//3 35//3
f  17//3 18//3 34//3
f  18//4 36//4 35//4
f  18//4 19//4 36//4
f  19//5 37//5 36//5
f  19//5 20//5 37//5
f  20//6 38//6 37//6
f  20//6 21//6 38//6
f  21//7 39//7 38//7
f  21//7 22//7 39//7
f  22//8 40//8 39//8
f  22//8 23//8 40//8
f  23//5 41//9 40//5
f  23//5 24//10 41//9
f  24//10 42//11 41//9
f  24//10 25//11 42//11
f  25//12 43//12 42//12
f  25//12 26//12 43//12
f  26//13 44//13 43//13
f  26//13 27//13 44//13
f  44//14 28//14 45//14
f  27//14 28//14 44//14
f  45//15 29//15 46//15
f  28//15 29//15 45//15
f  46//16 30//16 47//16
f  29//16 30//16 46//16
f  47//17 31//17 48//17
f  30//17 31//17 47//17
f  48//18 32//19 49//20
f  31//18 32//19 48//18
f  49//20 33//21 50//21
f  32//19 33//21 49//20
f  28//22 27//23 26//24
f  28//22 26//24 25//25
f  29//26 28//22 25//25
f  29//26 25//25 30//27
f  30//27 25//25 24//28
f  30//27 24//28 31//29
f  31//29 24//28 23//30
f  31//29 23//30 32//31
f  17//32 19//33 18//1
f  17//32 33//34 19//33
f  32//31 23//30 22//35
f  33//34 20//36 19//33
f  21//37 20//36 33//34
f  32//31 22//35 21//37
f  32//31 21//37 33//34
f  44//38 45//39 43//40
f  43//40 45//39 42//41
f  45//39 46//42 42//41
f  42//41 46//42 47//43
f  42//41 47//43 41//44
f  41//44 47//43 48//45
f  41//44 48//45 40//46
f  40//46 48//45 49//47
f  36//48 34//49 35//50
f  50//51 34//49 36//48
f  40//46 49//47 39//52
f  37//53 50//51 36//48
f  37//53 38//54 50//51
f  38//54 49//47 50//51
f  39//52 49//47 38//54
