# 
# Wavefront OBJ file
# Converted by the DEEP Exploration 3.5.10.1242
# Right Hemisphere, LTD
# http://www.righthemisphere.com/
# 
# object Object #0
g Object__0
v 2.4785 -0.0496619 -1.9985
v 2.48 -0.0496619 -1.9985
v 2.48 -0.0496619 -2
v 2.4785 -0.0496619 -2
v -2.48 -0.0496619 -1.9985
v -2.4785 -0.0496619 -1.9985
v -2.4785 -0.0496619 -2
v -2.48 -0.0496619 -2
v 2.4785 -0.0496617 1.9985
v 2.48 -0.0496617 1.9985
v 2.48 -0.0496617 2
v 2.4785 -0.0496617 2
v -2.48 -0.0496617 1.9985
v -2.4785 -0.0496617 1.9985
v -2.4785 -0.0496617 2
v -2.48 -0.0496617 2
v 0.445 0.0496618 -1.765
v 0.665 0.0496618 -1.745
v 0.775 0.0496618 -1.77
v 0.81 0.0496618 -1.75
v 0.775 0.0496618 -1.705
v 0.83 0.0496618 -1.665
v 0.88 0.0496618 -1.685
v 0.915 0.0496618 -1.66
v 0.915 0.0496618 -1.64
v 0.94 0.0496618 -1.62
v 0.975 0.0496618 -1.635
v 1 0.0496618 -1.625
v 1.06 0.0496618 -1.675
v 1.08 0.0496618 -1.67
v 1.115 0.0496618 -1.62
v 1.155 0.0496618 -1.62
v 1.2 0.0496618 -1.61
v 1.25 0.0496618 -1.62
v 1.32 0.0496618 -1.675
v 1.36 0.0496618 -1.695
v 1.43 0.0496618 -1.765
v 1.505 0.0496618 -1.795
v 1.55 0.0496618 -1.81
v 1.44 0.0496618 -1.535
v 0.81 0.0496618 -1.07
v 0.75 0.0496618 -1.075
v 0.7 0.0496618 -1.11
v 0.655 0.0496618 -1.175
v 0.6 0.0496618 -1.215
v 0.525 0.0496618 -1.235
v 0.515 0.0496618 -1.31
v 0.53 0.0496618 -1.385
v 0.465 0.0496618 -1.515
v 0.46 0.0496618 -1.63
v 0.445 0.0296618 -1.765
v 0.665 0.0296618 -1.745
v 0.775 0.0296617 -1.77
v 0.81 0.0296618 -1.75
v 0.775 0.0296618 -1.705
v 0.83 0.0296618 -1.665
v 0.88 0.0296618 -1.685
v 0.915 0.0296618 -1.66
v 0.915 0.0296618 -1.64
v 0.94 0.0296618 -1.62
v 0.975 0.0296618 -1.635
v 1 0.0296618 -1.625
v 1.06 0.0296618 -1.675
v 1.08 0.0296618 -1.67
v 1.115 0.0296618 -1.62
v 1.155 0.0296618 -1.62
v 1.2 0.0296618 -1.61
v 1.25 0.0296618 -1.62
v 1.32 0.0296618 -1.675
v 1.36 0.0296618 -1.695
v 1.43 0.0296618 -1.765
v 1.505 0.0296617 -1.795
v 1.55 0.0296617 -1.81
v 1.44 0.0296618 -1.535
v 0.81 0.0296618 -1.07
v 0.75 0.0296618 -1.075
v 0.7 0.0296618 -1.11
v 0.655 0.0296618 -1.175
v 0.6 0.0296618 -1.215
v 0.525 0.0296618 -1.235
v 0.515 0.0296618 -1.31
v 0.53 0.0296618 -1.385
v 0.465 0.0296618 -1.515
v 0.46 0.0296618 -1.63
# 84 verticies
vn 0 1 0
vn -0.996108 0 0.0881444
vn -0.993884 0 0.110432
vn -0.997833 0 0.0658017
vn 0.0905356 0 -0.995893
vn -0.0663595 0 -0.997796
vn -0.221621 0 -0.975133
vn 0.496138 0 -0.868244
vn 0.789352 0 0.613941
vn 0.588172 0 -0.808736
vn -0.37139 0 -0.928477
vn 0.581238 0 -0.813734
vn 1 0 0
vn 0.624695 0 -0.780869
vn -0.393919 0 -0.919145
vn 0.371391 0 -0.928477
vn -0.640184 0 -0.768221
vn 0.242534 0 -0.970143
vn 0.819232 0 -0.573462
vn 0 0 -1
vn 0.109116 0 -0.994029
vn 0.0106362 0 -0.999943
vn -0.196116 0 -0.980581
vn -0.617821 0 -0.786319
vn -0.563513 0 -0.826108
vn -0.506385 0 -0.862308
vn -0.54004 0 -0.841639
vn -0.627675 0 -0.778475
vn -0.606193 0 -0.795318
vn -0.492221 0 -0.87047
vn -0.353138 0 -0.935571
vn -0.334744 0 -0.942309
vn -0.316228 0 -0.948683
vn 0.928477 0 0.37139
vn 0.593852 0 0.804574
vn -0.0830454 0 0.996546
vn -0.573462 0 0.819232
vn -0.665635 0 0.746277
vn -0.749715 0 0.661761
vn -0.753635 0 0.657293
vn -0.674638 0 0.738149
vn -0.485285 0 0.874356
vn -0.373436 0 0.927656
vn -0.257662 0 0.966235
vn -0.991228 0 0.132164
vn -0.999735 0 0.0230147
vn -0.996143 0 -0.0877475
vn -0.980581 0 -0.196116
vn -0.894427 0 0.447213
vn -0.947807 0 0.318846
vn -0.983377 0 0.181574
vn 3.27498e-008 1 -5.73122e-008
vn 2.67953e-008 1 -5.73122e-008
vn 1.90995e-008 1 -4.6409e-008
vn 7.70884e-010 1 -4.56396e-008
vn -1.20375e-008 1 -5.3852e-008
vn -6.01875e-009 1 -4.31229e-008
vn -3.82081e-008 1 -9.55203e-008
vn -2.02749e-008 1 -4.85959e-008
vn -4.10175e-008 1 -4.77602e-008
vn -9.09717e-009 1 -4.03044e-008
vn 1.73239e-009 1 -4.42963e-008
vn 1.16429e-008 1 -4.96309e-008
vn 1.37338e-008 1 -5.15018e-008
vn 7.87632e-009 1 -4.52311e-008
vn 3.14518e-009 1 -4.36862e-008
vn 6.15221e-009 1 -2.39646e-008
vn 1.39263e-008 1 -3.82974e-008
vn 9.82323e-009 1 -3.81536e-008
vn 5.28344e-009 1 -4.46285e-008
vn 1.01985e-009 1 -3.91683e-008
vn 8.83453e-009 1 -6.70785e-008
vn 1.4328e-008 1 -5.73123e-008
vn -3.19181e-008 1 -8.88267e-008
vn -6.59369e-009 1 -2.97015e-008
vn 2.36828e-009 1 -3.85551e-008
vn -2.97565e-008 1 -8.03999e-008
vn -3.54789e-008 1 -8.86974e-008
vn -6.14446e-008 1 -1.33332e-007
vn -2.34561e-009 1 -3.1485e-008
vn -9.31341e-008 1 -1.86267e-007
vn -5.21556e-008 1 -1.21534e-007
vn 8.28048e-009 -1 5.73122e-008
vn 2.04686e-008 -1 5.73122e-008
vn 4.71543e-009 -1 4.84362e-008
vn -3.80131e-009 -1 4.18145e-008
vn -2.62071e-009 -1 4.31987e-008
vn -6.33553e-009 -1 3.7297e-008
vn 2.38842e-010 -1 6.57096e-008
vn -4.77601e-009 -1 8.11923e-008
vn -5.12719e-009 -1 8.71623e-008
vn -3.52515e-009 -1 3.74269e-008
vn -8.64876e-010 -1 4.36492e-008
vn -1.37338e-008 -1 5.15018e-008
vn -1.16429e-008 -1 4.96309e-008
vn -1.01554e-009 -1 4.54106e-008
vn 0 -1 0
vn -1.37828e-009 -1 3.02705e-008
vn -6.15221e-009 -1 2.39646e-008
vn -5.03418e-009 -1 6.04102e-008
vn -5.12827e-009 -1 6.06689e-008
vn -2.34081e-009 -1 5.65941e-008
vn -1.27706e-010 -1 4.54658e-008
vn 1.40573e-009 -1 4.44574e-008
vn -7.16399e-009 -1 2.86561e-008
vn -4.41726e-009 -1 3.35392e-008
vn 3.19181e-008 -1 8.88267e-008
vn -3.94694e-009 -1 5.21168e-008
vn -1.95064e-009 -1 2.89495e-008
vn -2.36526e-008 -1 2.95665e-009
vn 1.90788e-010 -1 3.75296e-008
vn 3.00525e-009 -1 4.78678e-008
vn 2.34561e-009 -1 3.1485e-008
vn -8.14916e-008 -1 -6.98505e-008
vn 8.49913e-009 -1 5.75049e-008
# 115 normals
f  2//1 4//1 1//1
f  3//1 4//1 2//1
f  8//1 5//1 6//1
f  7//1 8//1 6//1
f  10//1 9//1 12//1
f  11//1 10//1 12//1
f  14//1 13//1 16//1
f  14//1 16//1 15//1
f  50//2 51//3 84//4
f  50//2 17//3 51//3
f  51//5 18//6 52//6
f  17//5 18//6 51//5
f  18//6 53//7 52//6
f  18//6 19//7 53//7
f  53//8 20//8 54//8
f  19//8 20//8 53//8
f  54//9 21//9 55//9
f  20//9 21//9 54//9
f  55//10 22//10 56//10
f  21//10 22//10 55//10
f  22//11 57//11 56//11
f  22//11 23//11 57//11
f  57//12 24//12 58//12
f  23//12 24//12 57//12
f  58//13 25//13 59//13
f  24//13 25//13 58//13
f  59//14 26//14 60//14
f  25//14 26//14 59//14
f  26//15 61//15 60//15
f  26//15 27//15 61//15
f  61//16 28//16 62//16
f  27//16 28//16 61//16
f  28//17 63//17 62//17
f  28//17 29//17 63//17
f  63//18 30//18 64//18
f  29//18 30//18 63//18
f  64//19 31//19 65//19
f  30//19 31//19 64//19
f  31//20 66//21 65//20
f  31//20 32//21 66//21
f  66//21 33//22 67//22
f  32//21 33//22 66//21
f  33//22 68//23 67//22
f  33//22 34//23 68//23
f  34//24 69//25 68//24
f  34//24 35//26 69//25
f  35//26 70//27 69//25
f  35//26 36//28 70//27
f  36//28 71//29 70//27
f  36//28 37//30 71//29
f  37//30 72//31 71//29
f  37//30 38//32 72//31
f  38//32 73//33 72//31
f  38//32 39//33 73//33
f  73//34 40//34 74//34
f  39//34 40//34 73//34
f  74//35 41//35 75//35
f  40//35 41//35 74//35
f  41//36 76//36 75//36
f  41//36 42//36 76//36
f  42//37 77//38 76//37
f  42//37 43//39 77//38
f  43//39 78//40 77//38
f  43//39 44//41 78//40
f  44//41 79//42 78//40
f  44//41 45//43 79//42
f  45//43 80//44 79//42
f  45//43 46//44 80//44
f  46//45 81//46 80//45
f  46//45 47//47 81//46
f  47//47 82//48 81//46
f  47//47 48//48 82//48
f  48//49 83//50 82//49
f  48//49 49//51 83//50
f  49//51 84//4 83//50
f  49//51 50//2 84//4
f  20//52 19//53 21//54
f  18//55 17//56 50//57
f  23//58 22//59 24//60
f  18//55 50//57 49//61
f  18//55 49//61 48//62
f  47//63 46//64 45//65
f  48//62 47//63 45//65
f  19//53 18//55 21//54
f  21//54 18//55 48//62
f  21//54 48//62 45//65
f  28//66 27//1 26//67
f  43//68 42//1 41//69
f  44//70 43//68 41//69
f  40//71 44//70 41//69
f  30//72 29//73 28//66
f  40//71 39//74 44//70
f  24//60 22//59 25//75
f  30//72 28//66 31//76
f  38//77 37//78 36//79
f  22//59 21//54 45//65
f  25//75 22//59 45//65
f  25//75 45//65 44//70
f  32//1 31//76 33//80
f  26//67 25//75 44//70
f  28//66 26//67 44//70
f  31//76 28//66 44//70
f  36//79 35//81 34//82
f  39//74 38//77 36//79
f  33//80 31//76 44//70
f  34//82 33//80 44//70
f  39//74 36//79 34//82
f  39//74 34//82 44//70
f  53//83 54//84 55//85
f  51//86 52//87 84//88
f  56//89 57//90 58//91
f  84//88 52//87 83//92
f  83//92 52//87 82//93
f  80//94 81//95 79//96
f  81//95 82//93 79//96
f  52//87 53//83 55//85
f  52//87 55//85 82//93
f  82//93 55//85 79//96
f  61//97 62//98 60//99
f  76//100 77//101 75//102
f  77//101 78//103 75//102
f  78//103 74//104 75//102
f  63//105 64//106 62//98
f  73//107 74//104 78//103
f  56//89 58//91 59//108
f  62//98 64//106 65//109
f  71//110 72//111 70//112
f  55//85 56//89 79//96
f  56//89 59//108 79//96
f  79//96 59//108 78//103
f  65//109 66//97 67//113
f  59//108 60//99 78//103
f  60//99 62//98 78//103
f  62//98 65//109 78//103
f  69//114 70//112 68//115
f  72//111 73//107 70//112
f  65//109 67//113 78//103
f  67//113 68//115 78//103
f  68//115 73//107 78//103
f  70//112 73//107 68//115
