# 
# Wavefront OBJ file
# Converted by the DEEP Exploration 3.5.10.1242
# Right Hemisphere, LTD
# http://www.righthemisphere.com/
# 
# object Object #0
g Object__0
v 2.4785 -0.0496619 -1.9985
v 2.48 -0.0496619 -1.9985
v 2.48 -0.0496619 -2
v 2.4785 -0.0496619 -2
v -2.48 -0.0496619 -1.9985
v -2.4785 -0.0496619 -1.9985
v -2.4785 -0.0496619 -2
v -2.48 -0.0496619 -2
v 2.4785 -0.0496617 1.9985
v 2.48 -0.0496617 1.9985
v 2.48 -0.0496617 2
v 2.4785 -0.0496617 2
v -2.48 -0.0496617 1.9985
v -2.4785 -0.0496617 1.9985
v -2.4785 -0.0496617 2
v -2.48 -0.0496617 2
v 0.0299999 0.0496618 -0.135
v 0.0349999 0.0496618 -0.23
v -0.175 0.0496618 -0.25
v -0.17 0.0496618 -0.285
v -0.17 0.0496618 -0.335
v -0.195 0.0496618 -0.38
v -0.215 0.0496618 -0.45
v -0.205 0.0496618 -0.535
v -0.13 0.0496618 -0.53
v -0.00500012 0.0496618 -0.35
v 0.0199999 0.0496618 -0.315
v 0.0449999 0.0496618 -0.28
v 0.11 0.0496618 -0.19
v 0.0299999 0.0296618 -0.135
v 0.0349999 0.0296618 -0.23
v -0.175 0.0296618 -0.25
v -0.17 0.0296618 -0.285
v -0.17 0.0296618 -0.335
v -0.195 0.0296618 -0.38
v -0.215 0.0296618 -0.45
v -0.205 0.0296618 -0.535
v -0.13 0.0296618 -0.53
v -0.00500012 0.0296618 -0.35
v 0.0199999 0.0296618 -0.315
v 0.0449999 0.0296618 -0.28
v 0.11 0.0296618 -0.19
# 42 verticies
vn 0 1 0
vn 0.566529 0 0.824042
vn -0.998618 0 -0.0525588
vn -0.0948091 0 0.995495
vn -0.98995 0 -0.141421
vn -0.995526 0 -0.0944921
vn -0.998883 0 -0.0472461
vn -1 0 0
vn -0.874157 0 0.485643
vn -0.908556 0 0.417762
vn -0.937849 0 0.347044
vn -0.989175 0 0.146738
vn -0.999903 0 0.0139204
vn -0.993151 0 -0.116841
vn 0.0665197 0 -0.997785
vn 0.82137 0 -0.570396
vn 0.81884 0 -0.574021
vn 0.816295 0 -0.577635
vn 0.813733 0 -0.581238
vn 0.813733 0 -0.581238
vn 0.812718 0 -0.582657
vn 0.8117 0 -0.584075
vn 0.810679 0 -0.585491
vn -1.90154e-008 1 -2.76588e-008
vn -7.06476e-008 1 -4.7278e-008
vn -1.42554e-007 1 -4.04386e-008
vn 2.92199e-009 1 -4.34615e-008
vn 2.89909e-009 1 -4.34859e-008
vn 4.88129e-009 1 -4.75519e-008
vn 4.51823e-009 1 -3.72522e-008
vn 4.39995e-009 1 -2.78663e-008
vn -3.38662e-009 1 -3.72529e-008
vn 2.67269e-009 1 -3.90652e-008
vn 1.00684e-008 1 -6.04101e-008
vn -8.86974e-008 1 -1.77395e-008
vn -5.70606e-008 -1 3.83737e-008
vn 1.2965e-008 -1 5.27245e-008
vn -1.13259e-007 -1 3.96669e-008
vn 2.17429e-008 -1 4.63849e-008
vn 1.6025e-008 -1 4.03097e-008
vn 1.11722e-008 -1 4.44729e-008
vn 5.25873e-009 -1 4.23027e-008
vn 2.52433e-009 -1 4.61008e-008
vn 3.48432e-009 -1 3.83275e-008
vn 2.5927e-009 -1 4.25985e-008
vn 3.77563e-009 -1 2.39123e-008
vn 3.75029e-009 -1 5.37542e-008
vn -7.91524e-008 -1 5.15081e-008
# 48 normals
f  2//1 4//1 1//1
f  3//1 4//1 2//1
f  8//1 5//1 6//1
f  7//1 8//1 6//1
f  10//1 9//1 12//1
f  11//1 10//1 12//1
f  14//1 13//1 16//1
f  14//1 16//1 15//1
f  42//2 17//2 30//2
f  29//2 17//2 42//2
f  17//3 31//3 30//3
f  17//3 18//3 31//3
f  18//4 32//4 31//4
f  18//4 19//4 32//4
f  19//5 33//6 32//5
f  19//5 20//7 33//6
f  20//7 34//8 33//6
f  20//7 21//8 34//8
f  21//9 35//10 34//9
f  21//9 22//11 35//10
f  22//11 36//12 35//10
f  22//11 23//13 36//12
f  23//13 37//14 36//12
f  23//13 24//14 37//14
f  37//15 25//15 38//15
f  24//15 25//15 37//15
f  38//16 26//17 39//18
f  25//16 26//17 38//16
f  39//18 27//19 40//20
f  26//17 27//19 39//18
f  40//20 28//21 41//22
f  27//19 28//21 40//20
f  41//22 29//23 42//23
f  28//21 29//23 41//22
f  29//24 28//25 17//26
f  25//27 24//28 23//29
f  25//27 23//29 26//30
f  23//29 22//31 26//30
f  26//30 22//31 21//32
f  26//30 21//32 20//33
f  27//34 26//30 20//33
f  27//34 20//33 28//25
f  20//33 19//1 18//35
f  28//25 18//35 17//26
f  28//25 20//33 18//35
f  41//36 42//37 30//38
f  37//39 38//40 36//41
f  36//41 38//40 39//42
f  35//43 36//41 39//42
f  35//43 39//42 34//44
f  34//44 39//42 33//45
f  39//42 40//46 33//45
f  33//45 40//46 41//36
f  32//47 33//45 31//48
f  31//48 41//36 30//38
f  33//45 41//36 31//48
