# 
# Wavefront OBJ file
# Converted by the DEEP Exploration 3.5.10.1242
# Right Hemisphere, LTD
# http://www.righthemisphere.com/
# 
mtllib testcity.mtl
# object Object #0
g Object__0
v 2.4 -2 -0.03
v 2.48 -1.92 -0.03
v 2.4 -2 0.03
v 2.48 -1.92 0.03
v 2.41612 -1.99837 0.03
v 2.43114 -1.99371 0.03
v 2.44473 -1.98634 0.03
v 2.45657 -1.97657 0.03
v 2.46634 -1.96473 0.03
v 2.47371 -1.95114 0.03
v 2.47837 -1.93612 0.03
v 2.47837 -1.93612 -0.03
v 2.47371 -1.95114 -0.03
v 2.46634 -1.96473 -0.03
v 2.45657 -1.97657 -0.03
v 2.44473 -1.98634 -0.03
v 2.43114 -1.99371 -0.03
v 2.41612 -1.99837 -0.03
v 2.4 2 -0.03
v 2.48 1.92 -0.03
v 2.4 2 0.03
v 2.48 1.92 0.03
v 2.41612 1.99837 -0.03
v 2.43114 1.99371 -0.03
v 2.44473 1.98634 -0.03
v 2.45657 1.97657 -0.03
v 2.46634 1.96473 -0.03
v 2.47371 1.95114 -0.03
v 2.47837 1.93612 -0.03
v 2.47837 1.93612 0.03
v 2.47371 1.95114 0.03
v 2.46634 1.96473 0.03
v 2.45657 1.97657 0.03
v 2.44473 1.98634 0.03
v 2.43114 1.99371 0.03
v 2.41612 1.99837 0.03
v -2.48 1.92 -0.03
v -2.4 2 -0.03
v -2.48 1.92 0.03
v -2.4 2 0.03
v -2.47837 1.93612 -0.03
v -2.47371 1.95114 -0.03
v -2.46634 1.96473 -0.03
v -2.45657 1.97657 -0.03
v -2.44473 1.98634 -0.03
v -2.43114 1.99371 -0.03
v -2.41612 1.99837 -0.03
v -2.41612 1.99837 0.03
v -2.43114 1.99371 0.03
v -2.44473 1.98634 0.03
v -2.45657 1.97657 0.03
v -2.46634 1.96473 0.03
v -2.47371 1.95114 0.03
v -2.47837 1.93612 0.03
v -2.4 -2 -0.03
v -2.48 -1.92 -0.03
v -2.4 -2 0.03
v -2.48 -1.92 0.03
v -2.41612 -1.99837 -0.03
v -2.43114 -1.99371 -0.03
v -2.44473 -1.98634 -0.03
v -2.45657 -1.97657 -0.03
v -2.46634 -1.96473 -0.03
v -2.47371 -1.95114 -0.03
v -2.47837 -1.93612 -0.03
v -2.47837 -1.93612 0.03
v -2.47371 -1.95114 0.03
v -2.46634 -1.96473 0.03
v -2.45657 -1.97657 0.03
v -2.44473 -1.98634 0.03
v -2.43114 -1.99371 0.03
v -2.41612 -1.99837 0.03
# 72 verticies
vt 0.983871 0
vt 0.987122 0.000406265
vt 0.990149 0.00157154
vt 0.992889 0.00341547
vt 0.995276 0.00585747
vt 1 0.02
vt 0.999672 0.015969
vt 0.998733 0.0122147
vt 0.997246 0.00881737
vt 1 0.98
vt 0.983871 1
vt 0.987122 0.999594
vt 0.990149 0.998428
vt 0.992889 0.996585
vt 0.995276 0.994143
vt 0.999672 0.984031
vt 0.998733 0.987785
vt 0.997246 0.991183
vt 0.016129 1
vt 0 0.98
vt 0.000327633 0.984031
vt 0.00126737 0.987785
vt 0.00275436 0.991183
vt 0.00472381 0.994143
vt 0.0128783 0.999594
vt 0.00985053 0.998428
vt 0.00711079 0.996585
vt 0.016129 0
vt 0 0.02
vt 0.00275436 0.00881737
vt 0.00472381 0.00585747
vt 0.00126737 0.0122147
vt 0.00711079 0.00341547
vt 0.000327633 0.015969
vt 0.00985053 0.00157154
vt 0 0.02
vt 0.0128783 0.000406265
vt 0 0.98
vt 0.016129 0
vt 0.983871 0
vt 0.000327633 0.984031
vt 0.00126737 0.987785
vt 0.00275436 0.991183
vt 0.00472381 0.994143
vt 0.00711079 0.996585
vt 0.00985053 0.998428
vt 0.0128783 0.999594
vt 0.016129 1
vt 0.983871 1
vt 0.987122 0.000406265
vt 0.990149 0.00157154
vt 0.992889 0.00341547
vt 0.995276 0.00585747
vt 0.997246 0.00881737
vt 0.998733 0.0122147
vt 0.999672 0.015969
vt 1 0.02
vt 1 0.98
vt 0.987122 0.999594
vt 0.990149 0.998428
vt 0.999672 0.984031
vt 0.992889 0.996585
vt 0.998733 0.987785
vt 0.995276 0.994143
vt 0.997246 0.991183
vt 0.0128783 0.000406265
vt 0.00985053 0.00157154
vt 0.00711079 0.00341547
vt 0.00472381 0.00585747
vt 0.000327633 0.015969
vt 0.00126737 0.0122147
vt 0.00275436 0.00881737
# 72 texture verticies
vn 0.0669323 -0.997758 0
vn 0.232082 -0.972696 0
vn 0.166409 -0.986057 0
vn 0.0334662 -0.99944 0
vn 0.418611 -0.908166 0
vn 0.358156 -0.933662 0
vn 0.585692 -0.810534 0
vn 0.532341 -0.84653 0
vn 0.729324 -0.684168 0
vn 0.684163 -0.729329 0
vn 0.998739 -0.0502022 0
vn 0.972696 -0.232081 0
vn 0.986058 -0.166404 0
vn 0.908166 -0.41861 0
vn 0.933662 -0.358156 0
vn 0.810532 -0.585694 0
vn 0.84653 -0.53234 0
vn 0.998739 0.0502023 0
vn 0.998739 0.0502022 0
vn 0.0669323 0.997758 0
vn 0.232082 0.972696 0
vn 0.166409 0.986057 0
vn 0.0334662 0.99944 0
vn 0.418611 0.908166 0
vn 0.358156 0.933662 0
vn 0.585692 0.810534 0
vn 0.532341 0.84653 0
vn 0.729324 0.684168 0
vn 0.684163 0.729329 0
vn 0.972696 0.232081 0
vn 0.986058 0.166404 0
vn 0.908166 0.41861 0
vn 0.933662 0.358156 0
vn 0.810532 0.585694 0
vn 0.84653 0.53234 0
vn -0.0334662 0.99944 0
vn -0.0669323 0.997758 0
vn -0.997758 0.0669269 0
vn -0.972696 0.232081 0
vn -0.986058 0.166404 0
vn -0.99944 0.0334635 0
vn -0.908166 0.41861 0
vn -0.933662 0.358156 0
vn -0.810532 0.585694 0
vn -0.84653 0.53234 0
vn -0.684163 0.729329 0
vn -0.729324 0.684168 0
vn -0.232082 0.972696 0
vn -0.166409 0.986057 0
vn -0.418611 0.908166 0
vn -0.358156 0.933662 0
vn -0.585692 0.810534 0
vn -0.532341 0.84653 0
vn -0.0669323 -0.997758 0
vn -0.0334662 -0.99944 0
vn -0.99944 -0.0334635 0
vn -0.997758 -0.0669269 0
vn 0 0 1
vn 0 0 -1
vn -0.232082 -0.972696 0
vn -0.166409 -0.986057 0
vn -0.418611 -0.908166 0
vn -0.358156 -0.933662 0
vn -0.585692 -0.810534 0
vn -0.532341 -0.84653 0
vn -0.729324 -0.684168 0
vn -0.684163 -0.729329 0
vn -0.972696 -0.232081 0
vn -0.986058 -0.166404 0
vn -0.908166 -0.41861 0
vn -0.933662 -0.358156 0
vn -0.810532 -0.585694 0
vn -0.84653 -0.53234 0
# 73 normals
usemtl Default
f  1/1/1 18/1/2 5/2/3 3/1/4
f  18/1/2 17/1/5 6/3/6 5/2/3
f  17/1/5 16/1/7 7/4/8 6/3/6
f  16/1/7 15/1/9 8/5/10 7/4/8
f  4/6/11 11/7/12 12/1/13 2/1/11
f  11/7/12 10/8/14 13/1/15 12/1/13
f  10/8/14 9/9/16 14/1/17 13/1/15
f  9/9/16 8/5/10 15/1/9 14/1/17
f  20/1/18 22/10/19 4/6/11 2/1/11
f  21/11/20 36/12/21 23/1/22 19/1/23
f  36/12/21 35/13/24 24/1/25 23/1/22
f  35/13/24 34/14/26 25/1/27 24/1/25
f  34/14/26 33/15/28 26/1/29 25/1/27
f  20/1/18 29/1/30 30/16/31 22/10/19
f  29/1/30 28/1/32 31/17/33 30/16/31
f  28/1/32 27/1/34 32/18/35 31/17/33
f  27/1/34 26/1/29 33/15/28 32/18/35
f  40/19/36 21/11/20 19/1/23 38/1/37
f  39/20/38 54/21/39 41/1/40 37/1/41
f  54/21/39 53/22/42 42/1/43 41/1/40
f  53/22/42 52/23/44 43/1/45 42/1/43
f  52/23/44 51/24/46 44/1/47 43/1/45
f  38/1/37 47/1/48 48/25/49 40/19/36
f  47/1/48 46/1/50 49/26/51 48/25/49
f  46/1/50 45/1/52 50/27/53 49/26/51
f  45/1/52 44/1/47 51/24/46 50/27/53
f  3/1/4 57/28/54 55/1/55 1/1/1
f  58/29/56 39/20/38 37/1/41 56/1/57
usemtl city
f  68/30/58 69/31/58 67/32/58
f  70/33/58 67/32/58 69/31/58
f  67/32/58 70/33/58 66/34/58
f  71/35/58 66/34/58 70/33/58
f  66/34/58 71/35/58 58/36/58
f  72/37/58 58/36/58 71/35/58
f  58/36/58 72/37/58 39/38/58
f  72/37/58 57/39/58 39/38/58
f  3/40/58 39/38/58 57/39/58
f  3/40/58 54/41/58 39/38/58
f  3/40/58 53/42/58 54/41/58
f  3/40/58 52/43/58 53/42/58
f  3/40/58 51/44/58 52/43/58
f  3/40/58 50/45/58 51/44/58
f  3/40/58 49/46/58 50/45/58
f  3/40/58 48/47/58 49/46/58
f  3/40/58 40/48/58 48/47/58
f  40/48/58 3/40/58 21/49/58
f  3/40/58 5/50/58 21/49/58
f  5/50/58 6/51/58 21/49/58
f  6/51/58 7/52/58 21/49/58
f  7/52/58 8/53/58 21/49/58
f  8/53/58 9/54/58 21/49/58
f  9/54/58 10/55/58 21/49/58
f  10/55/58 11/56/58 21/49/58
f  11/56/58 4/57/58 21/49/58
f  22/58/58 21/49/58 4/57/58
f  22/58/58 36/59/58 21/49/58
f  36/59/58 22/58/58 35/60/58
f  30/61/58 35/60/58 22/58/58
f  35/60/58 30/61/58 34/62/58
f  31/63/58 34/62/58 30/61/58
f  34/62/58 31/63/58 33/64/58
f  32/65/58 33/64/58 31/63/58
usemtl Default
f  43/40/59 44/40/59 42/40/59
f  45/40/59 42/40/59 44/40/59
f  42/40/59 45/40/59 41/40/59
f  46/40/59 41/40/59 45/40/59
f  41/40/59 46/40/59 37/40/59
f  47/40/59 37/40/59 46/40/59
f  37/40/59 47/40/59 56/40/59
f  47/40/59 38/40/59 56/40/59
f  19/40/59 56/40/59 38/40/59
f  19/40/59 65/40/59 56/40/59
f  19/40/59 64/40/59 65/40/59
f  19/40/59 63/40/59 64/40/59
f  19/40/59 62/40/59 63/40/59
f  19/40/59 61/40/59 62/40/59
f  19/40/59 60/40/59 61/40/59
f  19/40/59 59/40/59 60/40/59
f  19/40/59 55/40/59 59/40/59
f  55/40/59 19/40/59 1/40/59
f  19/40/59 23/40/59 1/40/59
f  23/40/59 24/40/59 1/40/59
f  24/40/59 25/40/59 1/40/59
f  25/40/59 26/40/59 1/40/59
f  26/40/59 27/40/59 1/40/59
f  27/40/59 28/40/59 1/40/59
f  28/40/59 29/40/59 1/40/59
f  29/40/59 20/40/59 1/40/59
f  2/40/59 1/40/59 20/40/59
f  2/40/59 18/40/59 1/40/59
f  18/40/59 2/40/59 17/40/59
f  12/40/59 17/40/59 2/40/59
f  17/40/59 12/40/59 16/40/59
f  13/40/59 16/40/59 12/40/59
f  16/40/59 13/40/59 15/40/59
f  14/40/59 15/40/59 13/40/59
f  57/28/54 72/66/60 59/1/61 55/1/55
f  72/66/60 71/67/62 60/1/63 59/1/61
f  71/67/62 70/68/64 61/1/65 60/1/63
f  70/68/64 69/69/66 62/1/67 61/1/65
f  56/1/57 65/1/68 66/70/69 58/29/56
f  65/1/68 64/1/70 67/71/71 66/70/69
f  64/1/70 63/1/72 68/72/73 67/71/71
f  63/1/72 62/1/67 69/69/66 68/72/73
